<?xml version="1.0" encoding="UTF-8"?>
<svg id="Layer_1" data-name="Layer 1" xmlns="http://www.w3.org/2000/svg" width="900" height="900" version="1.1" viewBox="0 0 900 900">
  <defs>
    <style>
      .cls-1 {
        fill: #d1c5b7;
        stroke-width: 0px;
      }
    </style>
  </defs>
  <path class="cls-1" d="M271.6,200.6c89.7-40.8,169-73.7,245.1-112.7,52.6-26.9,103.4-30.7,153.2-2.9,218.9,122.2,278.9,440.9,92.7,639.8,89.4-160.5,117-317.9,29.4-478.6-33.5-61.4-86.2-104.5-164.4-121.7,15.6,76.1,43.6,139.7,89.7,195.3,2.6,3.2,5.6,6,8.3,9.1,32.6,37.5,93,61.1,89.7,116.9-4,66.9-24,133.4-41.2,198.9-6.3,24-24.3,45-41.2,66,23-74.2,36-148.3,19.3-224.7-18-82.7-71.3-132.6-154.5-162.5,6.5,63.8,28.6,117,58.2,167.6,1.4,2.4,3,4.6,4.5,6.9,30.1,46.4,77.2,87.8,60.6,150.7-20.1,75.9-68.8,134-133.3,176.8-108.2,71.7-240.3,53-331.8-47.2-110.1-120.5-135-266.3-114.6-421.9,15.4-117.1,59.6-222.1,152.6-300.7,20.7-17.5,44.8-30.9,67.1-46.1-61.8-1.3-165.7,51.5-228.4,116.2C-1,263.8-37,456.3,38.8,627.5c73.6,166.1,239.8,268.8,429,265.1,205.6-4.1,388.3-163.1,425-369.9,37.1-208.8-78.6-417.8-272.3-491.8-128.8-49.2-265.8-9.1-321.2,95.2-10.5,19.7-15.9,42.2-27.7,74.6"/>
</svg>