<?xml version="1.0" standalone="no"?>
<!DOCTYPE svg PUBLIC "-//W3C//DTD SVG 1.1//EN" "http://www.w3.org/Graphics/SVG/1.1/DTD/svg11.dtd" >
<svg>
<metadata>
Created by FontForge 20120731 at Fri May  9 05:13:50 2025
 By fw_worker
Viet hoa by MTD
</metadata>
<defs>
<font id="MTD" horiz-adv-x="589" >
  <font-face 
    font-family="MTD Valky Semibold"
    font-weight="600"
    font-stretch="normal"
    units-per-em="1000"
    panose-1="2 0 0 0 0 0 0 0 0 0"
    ascent="800"
    descent="-200"
    x-height="524"
    cap-height="700"
    bbox="-528 -423 1533 1013"
    underline-thickness="0"
    underline-position="0"
    stemh="25"
    stemv="80"
    unicode-range="U+000A-FB02"
  />
<missing-glyph horiz-adv-x="527" 
d="M50 700h427v-700h-427v700zM78 680l185 -309l186 309h-371zM276 350l181 -303v605zM251 350l-180 300v-601zM264 329l-185 -308h370z" />
    <glyph glyph-name="uniF03B" unicode="fb" horiz-adv-x="905" 
d="M621 523l4 1c154 0 250 -96 250 -251c0 -170 -118 -271 -316 -271c-76 0 -143 13 -200 38l-7 3l43 39v599c-44 26 -97 32 -119 34c-17 0 -34 -4 -49 -13c-47 -29 -68 -55 -69 -177h208v-18h-208v-424c0 -33 25 -60 58 -63h4v-11h-205v11h4c33 3 58 30 58 63v424h-53v18
h53c2 69 49 132 140 188c43 27 93 41 144 40c21 0 68 -5 106 -19l5 2v-254c39 27 90 41 149 41zM476 453v-380c37 -33 83 -49 140 -49c72 0 167 20 167 196c0 164 -81 278 -197 278c-42 0 -81 -16 -110 -45z" />
    <glyph glyph-name="uniF03C" unicode="fh" horiz-adv-x="901" 
d="M887 20h10v-11h-205v11h4c33 3 58 30 58 63v263c0 118 -71 136 -113 136c-56 0 -101 -30 -153 -65l-12 -8v-326c0 -33 25 -60 58 -63h4v-11h-205v11h4c33 3 58 30 58 63v597c-44 26 -97 32 -119 34c-17 0 -34 -4 -49 -13c-47 -29 -68 -55 -69 -177h208v-18h-208v-424
c0 -33 25 -60 58 -63h4v-11h-205v11h4c33 3 58 30 58 63v424h-53v18h53c2 69 49 132 140 188c43 27 93 41 144 40c22 0 70 -6 108 -21l3 -1v-300c60 45 136 92 214 92c95 0 143 -62 143 -184v-255c0 -33 25 -60 58 -63z" />
    <glyph glyph-name="uniF03D" unicode="fj" horiz-adv-x="515" 
d="M215 18l3 -10h-205v11h4c33 3 58 30 58 63v424h-53v18h53c2 69 49 132 140 188c43 27 93 41 144 40c30 0 60 -5 89 -15l8 -3l-65 -58l-3 2c-45 26 -93 33 -117 35c-17 0 -34 -4 -49 -13c-47 -29 -68 -55 -69 -177h222l-33 -18h-189v-424c0 -33 25 -60 58 -63h4zM466 527
l2 -1v-468c0 -73 -29 -122 -80 -173l-53 -53l-12 -9c-6 -6 -12 -11 -18 -15c-34 -25 -77 -38 -119 -38h-61l90 81h31c41 0 75 6 110 28c20 33 30 71 30 110v447c0 8 -4 15 -10 19s-14 5 -21 2l-37 -14v14z" />
    <glyph glyph-name="uniF03E" unicode="fk" horiz-adv-x="884" 
d="M504 258l-40 -53v-119c0 -33 25 -60 58 -63h4v-11h-204v11h4c33 3 58 30 58 63v597c-44 26 -97 32 -119 34c-17 0 -34 -4 -49 -13c-47 -29 -68 -55 -69 -177h208v-18h-208v-424c0 -33 25 -60 58 -63h4v-11h-205v11h4c33 3 58 30 58 63v424h-53v18h53c2 69 49 132 140 188
c43 27 93 41 144 40c21 0 68 -5 106 -19l6 3v-504l34 44c149 217 184 252 341 248h7l-37 -82h-3c-115 1 -185 -45 -243 -110l181 -206c55 -63 76 -87 123 -110l19 -9h-144l-229 260l-7 -9v-3z" />
    <glyph glyph-name="uniF03F" unicode="gg" horiz-adv-x="1204" 
d="M1318 614l30 -27l-72 -65l-45 44c-11 11 -27 17 -42 17c-13 0 -26 -4 -37 -12l-9 -7c-9 -7 -18 -15 -27 -24c-11 -11 -22 -23 -33 -35l-18 -18l-9 -11c57 -38 90 -94 91 -154c1 -47 -18 -93 -53 -129c-45 -46 -112 -73 -183 -74c-40 -1 -79 7 -114 22l-97 -124l290 76
l1 -1h3c91 -23 159 -68 191 -126c27 -49 30 -107 8 -173c-37 -111 -173 -199 -289 -199c-100 0 -192 64 -282 193c-22 -59 -79 -117 -126 -144c-1 0 -2 -1 -3 -2c-58 -37 -141 -51 -209 -51c-140 0 -252 67 -328 184c-33 49 -66 102 -108 173c-17 31 -36 57 -76 57h-5v10
h145l5 -9c52 -94 110 -188 177 -272c100 -124 214 -125 236 -124c32 2 81 9 130 35c58 35 102 97 108 166c3 33 -2 64 -15 92l-8 16c-44 71 -142 127 -227 127c-20 0 -40 -3 -60 -8l-149 -39l-12 10l115 147c-69 36 -111 98 -112 166v1c-1 109 105 199 236 200
c49 1 97 -11 138 -34l10 13l4 4c15 18 30 36 47 53l19 19l33 28c25 21 55 31 86 31c27 0 54 -8 77 -24l30 -21l-72 -65l-45 44c-11 11 -27 17 -42 17c-13 0 -26 -4 -37 -12l-9 -7c-9 -7 -18 -15 -27 -24c-11 -11 -22 -23 -33 -35l-18 -18l-9 -11c57 -38 90 -94 91 -154
c1 -47 -18 -93 -53 -129c-45 -46 -112 -73 -183 -74c-40 -1 -79 7 -114 22l-97 -124l290 76l1 -1h3c55 -16 156 -59 212 -162c107 -197 217 -296 328 -296c104 0 164 73 173 176c10 110 -77 175 -151 210c-32 15 -66 23 -101 23c-20 0 -40 -3 -60 -8l-149 -39l-12 10
l115 147c-69 36 -111 98 -112 166v1c-1 109 105 199 236 200c48 0 94 -11 137 -34l10 13l4 4c15 18 30 36 47 53l19 19l33 28c25 21 55 31 86 31c27 0 54 -8 77 -24zM251 202l182 230c-30 42 -70 68 -110 71h-9c-71 0 -108 -66 -114 -130c-5 -60 14 -123 51 -171zM818 201
l182 230c-30 42 -70 68 -110 71h-9c-71 0 -108 -66 -114 -130c-5 -60 14 -123 51 -171zM477 269h-1c4 49 -9 102 -35 146l-178 -227c27 -29 59 -47 91 -50c27 -2 53 6 74 24c28 23 45 61 49 107zM1009 414l-179 -227c27 -29 59 -47 91 -50c27 -2 53 6 74 24
c28 23 45 61 49 107c4 49 -9 102 -35 146z" />
    <glyph glyph-name="uniF040" unicode="gb" horiz-adv-x="1169" 
d="M876 523l1 -1c154 0 250 -96 250 -251c0 -170 -118 -271 -316 -271c-76 0 -143 13 -200 38l-7 3l43 39v564l-148 -177c45 -36 73 -86 74 -142c1 -47 -18 -93 -53 -129c-45 -46 -112 -73 -183 -74c-37 0 -74 6 -109 20l-102 -121l289 76l1 -1h3c91 -23 159 -68 191 -126
c27 -49 30 -107 8 -173c-20 -61 -79 -122 -127 -150c-1 0 -2 -1 -3 -2c-58 -37 -141 -51 -209 -51c-140 0 -252 67 -328 184c-33 49 -66 102 -108 173c-17 31 -36 57 -76 57h-5v10h145l5 -9c52 -94 110 -188 177 -272c100 -124 215 -125 237 -124c32 2 81 9 130 35
c58 35 102 97 108 166c9 111 -77 175 -151 210c-32 15 -66 23 -101 23c-20 0 -40 -3 -60 -8l-149 -39l-12 10l121 144c-70 34 -117 97 -118 169v1c-1 109 105 199 236 200c59 0 113 -17 155 -46l133 159l109 140v-295c39 27 90 41 149 41zM250 199l185 220
c-29 49 -73 84 -120 88h-9c-71 0 -108 -66 -114 -130c-5 -65 19 -132 58 -178zM728 451v-380c37 -33 83 -49 140 -49c72 0 167 20 167 196c0 164 -81 278 -197 278c-42 0 -81 -16 -110 -45zM445 401l-183 -215c25 -25 55 -41 86 -44c27 -2 53 6 74 24c28 23 45 61 49 107
c3 44 -7 89 -26 128z" />
    <glyph glyph-name="uniF041" unicode="gh" horiz-adv-x="1173" 
d="M1146 20l8 -7l-6 -11h-207l6 11h3c33 3 58 30 58 63v263c0 118 -71 136 -113 136c-56 0 -101 -30 -153 -65l-12 -8v-326c0 -33 25 -60 58 -63h4v-11h-205c10 -11 19 -23 26 -36c27 -49 30 -107 8 -173c-20 -61 -79 -122 -127 -150c-1 0 -2 -1 -3 -2
c-58 -37 -141 -51 -209 -51c-140 0 -252 67 -328 184c-33 49 -66 102 -108 173c-17 31 -36 57 -76 57h-5v10h145l5 -9c52 -94 110 -188 177 -272c100 -124 215 -125 237 -124c32 2 81 9 130 35c58 35 102 97 108 166c9 111 -77 175 -151 210c-32 15 -66 23 -101 23
c-20 0 -40 -3 -60 -8l-149 -39l-12 10l121 144c-72 36 -117 100 -118 170v1c-1 109 105 199 236 200c56 1 111 -15 155 -45l134 159l109 139v-344c60 45 136 92 214 92c95 0 143 -62 143 -184v-255c0 -33 25 -60 58 -63zM129 17l289 76l1 -1h3c71 -18 128 -49 165 -90v11h4
c33 3 58 30 58 63v562l-148 -177c47 -37 73 -87 74 -141c1 -47 -18 -93 -53 -129c-45 -46 -112 -73 -183 -74c-38 0 -74 7 -108 21zM438 413h2c-31 51 -76 84 -121 88h-9c-71 0 -108 -66 -114 -130c-5 -62 17 -129 58 -177zM448 397l-183 -216c26 -26 56 -41 86 -44
c27 -2 53 6 74 24c28 23 45 61 49 107c3 43 -6 88 -26 129z" />
    <glyph glyph-name="uniF042" unicode="gk" horiz-adv-x="1158" 
d="M775 269l-5 -13l-4 2l3 -2l-41 -55v-119c0 -33 25 -60 58 -63l8 -1l-6 -10h-204c10 -11 19 -23 26 -36c27 -49 30 -107 8 -173c-20 -61 -79 -122 -127 -150c-1 0 -2 -1 -3 -2c-58 -37 -141 -51 -209 -51c-140 0 -252 67 -328 184c-33 49 -66 102 -108 173
c-17 31 -36 57 -76 57h-5v10h145l5 -9c52 -94 110 -188 177 -272c100 -124 215 -125 237 -124c32 2 81 9 130 35c58 35 102 97 108 166c9 111 -77 175 -151 210c-32 15 -66 23 -101 23c-20 0 -40 -3 -60 -8l-149 -39l-12 10l121 144c-72 35 -117 99 -118 169v1
c-1 109 105 199 236 200c56 1 111 -15 155 -45l133 159l109 139v-544l35 46c148 215 183 249 339 245h7l-37 -82h-3c-101 1 -174 -32 -243 -110l181 -206c55 -63 76 -87 123 -110l19 -9h-144zM582 6l3 11h3c33 3 58 30 58 63v562l-148 -177c47 -37 73 -87 74 -141
c1 -47 -18 -93 -53 -129c-45 -46 -112 -73 -183 -74c-38 -1 -75 6 -108 20l-102 -121l289 76l1 -1h3c70 -18 126 -49 163 -89zM435 416h1c-31 51 -76 84 -121 88h-9c-71 0 -108 -66 -114 -130c-5 -62 17 -129 58 -177zM445 400l-183 -216c26 -26 56 -41 86 -44
c27 -2 53 6 74 24c28 23 45 61 49 107c3 43 -6 88 -26 129z" />
    <glyph glyph-name="uniF043" unicode="gi" horiz-adv-x="833" 
d="M414 99l-2 -1c91 -23 159 -68 191 -126c27 -49 30 -107 8 -173c-20 -61 -79 -122 -127 -150c-1 0 -2 -1 -3 -2c-58 -37 -141 -51 -209 -51c-140 0 -252 67 -328 184c-33 49 -66 102 -108 173c-17 31 -36 57 -76 57h-5v10h145l5 -9c52 -94 110 -188 177 -272
c100 -124 215 -125 237 -124c32 2 81 9 130 35c58 35 102 97 108 166c13 155 -162 220 -238 241c-2 1 -3 1 -4 1l-218 -57l-12 10l116 147c-66 35 -111 96 -112 166v1c-1 109 105 199 236 200c51 0 98 -13 137 -35l10 13l4 4c20 24 40 46 62 68l11 10l9 9l17 14
c25 21 55 31 86 31c27 0 54 -8 77 -24l30 -21l-72 -65l-45 44c-11 11 -27 17 -42 17c-13 0 -26 -4 -37 -12l-11 -9c-20 -18 -39 -38 -57 -58l-18 -18l-9 -12c54 -36 89 -91 90 -153c1 -47 -18 -93 -53 -129c-45 -46 -112 -73 -183 -74c-39 0 -78 7 -114 23l-97 -124l290 76
l1 -1h3zM237 208l180 228c-29 40 -68 68 -109 72h-9c-71 0 -108 -66 -114 -130c-5 -62 17 -125 52 -170zM809 20h3v-11h-205v11h4c33 3 58 30 58 63v280c0 33 -25 60 -58 63h-4v11h206v-11h-4c-33 -3 -58 -30 -58 -63v-280c0 -33 25 -60 58 -63zM330 295l-81 -101
c26 -28 58 -47 91 -50c27 -2 53 6 74 24c28 23 45 61 49 107c4 51 -10 103 -35 145z" />
    <glyph glyph-name="uniF044" unicode="gl" horiz-adv-x="818" 
d="M601 20l-1 -4c33 3 58 30 58 63v563l-15 -20l-133 -158c47 -37 73 -87 74 -141c1 -47 -18 -93 -53 -129c-45 -46 -112 -73 -183 -74c-37 0 -74 7 -107 21l-102 -121l289 76l1 -1h3c91 -23 159 -68 191 -126c27 -49 30 -107 8 -173c-20 -61 -79 -122 -127 -150
c-1 0 -2 -1 -3 -2c-58 -37 -141 -51 -209 -51c-140 0 -252 67 -328 184c-33 49 -66 102 -108 173c-17 31 -36 57 -76 57h-5v10h145l5 -9c52 -94 110 -188 177 -272c100 -124 215 -125 237 -124c32 2 81 9 130 35c58 35 102 97 108 166c9 111 -77 175 -151 210
c-32 15 -66 23 -101 23c-20 0 -40 -3 -60 -8l-149 -39l-12 10l121 144c-72 35 -117 99 -118 169v1c-1 109 105 199 236 200c56 1 111 -15 155 -45l133 159l109 139v-693c0 -33 25 -60 58 -63h4v-11h-205v11h4zM444 415h1c-31 51 -76 84 -121 88h-9c-71 0 -108 -66 -114 -130
c-5 -62 17 -129 58 -177zM454 399l-183 -216c26 -26 56 -41 86 -44c27 -2 53 6 74 24c28 23 45 61 49 107c3 43 -6 88 -26 129z" />
    <glyph glyph-name="uniF045" unicode="ki" horiz-adv-x="771" 
d="M756 19v-9h-329l-238 270l-41 -41v-154c0 -33 25 -60 58 -63h4v-11h-205v11h4c33 3 58 30 58 63v582c0 8 -4 15 -10 19s-14 5 -21 2l-37 -14v14l148 70v-493l270 270l54 45c12 10 24 19 38 28l19 12c23 15 48 22 74 22c32 0 64 -11 89 -34l27 -24l-72 -66l-46 60
c-11 14 -29 22 -46 22c-11 0 -21 -2 -31 -8l-12 -7c-22 -15 -43 -32 -63 -50l-199 -199l183 -208c54 -63 75 -87 121 -110v1h4c33 3 58 30 58 63v280c0 33 -25 60 -58 63h-4v11h206v-11h-4c-33 -3 -58 -30 -58 -63v-280c0 -33 25 -60 58 -63h1z" />
    <glyph glyph-name="uniF046" unicode="LI" horiz-adv-x="576" 
d="M562 193l-10 -36l-36 -177l-37 28h-474v11h4c33 3 58 30 58 63v543c0 33 -25 60 -58 63h-4v11h216v-11h-4c-33 -3 -58 -30 -58 -63v-600h164c93 0 179 52 222 135zM520 216l-1 -11h-215v11h4c33 3 58 30 58 63v345c0 33 -25 60 -58 63h-4v11h216v-11h-4
c-33 -3 -58 -30 -58 -63v-345c0 -33 25 -60 58 -63h4z" />
    <glyph glyph-name="uniF047" unicode="LL" horiz-adv-x="783" 
d="M715 207l-345 1h-63v11h4c33 3 58 30 58 63v345c0 33 -25 60 -58 63h-4v11h216v-11h-4c-33 -3 -58 -30 -58 -63v-402h56c93 0 177 52 220 135l16 32zM763 195l-44 -214l-37 28h-671v11h4c33 3 58 30 58 63v543c0 33 -25 60 -58 63h-4v11h216v-11h-4
c-33 -3 -58 -30 -58 -63v-600h361c93 0 177 52 220 135z" />
    <glyph glyph-name="uniF048" unicode="LA" horiz-adv-x="1188" 
d="M1179 15l1 -4v-11l-243 1v11h5c17 0 32 8 42 22c9 14 11 31 5 47l-57 145c-44 -20 -92 -30 -143 -29c-80 0 -136 31 -184 65l-68 -169c-7 -18 -5 -38 6 -54s29 -25 49 -25h5v-11l-516 2h-63v11h4c33 3 58 30 58 63l2 543c0 33 -25 60 -58 63h-4v11h216v-11h-4
c-33 -3 -58 -30 -58 -63v-18l-2 -507v-75l201 -1c73 9 136 57 164 126l53 128c-72 60 -137 106 -235 106c-20 0 -40 -1 -60 -4h-2l-16 15l10 2c22 4 45 6 68 6c102 0 168 -45 244 -106l159 387l-6 16h101l245 -627c13 -33 45 -55 81 -55zM790 214c48 0 94 10 136 29
l-162 411l-152 -375c44 -32 97 -65 178 -65z" />
    <glyph glyph-name="uniF049" unicode="CA" horiz-adv-x="1263" 
d="M1265 20v-9l-243 1v11h5c17 0 32 8 42 22s12 31 6 47l-57 145c-43 -20 -91 -30 -141 -30c-80 0 -136 31 -184 65l-83 -204c-58 -48 -153 -68 -228 -68c-93 0 -180 33 -240 93c-66 67 -106 160 -109 255c-3 109 35 207 103 269c64 59 147 94 240 101c47 3 91 0 132 -9
c50 -9 96 -30 113 -42l3 -2c11 -7 27 -18 41 -30l4 -4l-75 -67l-3 4c-52 71 -135 126 -225 126c-95 0 -169 -59 -202 -146c-21 -53 -29 -113 -24 -179c13 -165 123 -297 295 -299c66 0 142 18 171 40l71 173c-72 60 -137 106 -235 106c-61 0 -118 -13 -165 -37l-3 -2l-14 12
l6 3c49 26 109 40 173 40c104 0 169 -43 247 -106l159 387l-6 16h101l245 -627c13 -33 44 -55 80 -55zM876 225h2c48 0 93 10 134 29l-162 411l-152 -375c44 -32 97 -65 178 -65z" />
    <glyph glyph-name="uniF04A" unicode="CH" horiz-adv-x="1381" 
d="M649 186l8 14l9 -4v-3c-3 -9 -7 -22 -28 -56c-52 -94 -144 -136 -251 -136c-93 0 -180 33 -240 93c-67 67 -107 160 -110 255c-3 109 34 207 102 269c63 59 146 94 239 101c47 3 91 0 132 -9c50 -9 96 -30 113 -42l3 -2c11 -7 27 -18 41 -30l4 -4l-75 -68l-3 4
c-52 71 -136 126 -226 126c-94 0 -168 -60 -201 -146c-21 -53 -29 -113 -24 -179c13 -164 126 -297 297 -299c69 0 123 24 149 45c31 27 54 53 61 71zM294 361l-16 11l7 4c61 32 136 52 216 58c101 8 170 -17 231 -48v244c0 33 -25 60 -58 63h-4v11h216v-11h-4
c-33 -3 -58 -30 -58 -63v-292c67 -35 130 -56 221 -49c56 4 109 17 158 38v303c0 33 -25 60 -58 63h-4v11h216v-11h-5c-33 -3 -58 -30 -58 -63v-543c0 -33 25 -60 58 -63h4v-11h-215v11h4c33 3 58 30 58 63v220c-61 -25 -126 -37 -192 -37c-78 0 -136 22 -187 48v-230
c0 -33 25 -60 58 -63h4v-11h-215v11h4c33 3 58 30 58 63v278c-61 32 -130 59 -231 51c-76 -6 -147 -25 -205 -55z" />
    <glyph glyph-name="uniF04B" unicode="GA" horiz-adv-x="1544" 
d="M1528 22l5 -5v-11h-243v12h5c17 0 32 8 42 22s12 31 6 47l-55 141c-46 -16 -95 -25 -147 -27c-75 0 -128 9 -196 41l-23 -55v1l-41 -96c-11 -27 1 -59 27 -72l3 -1v-9h-151l22 9c38 16 69 48 86 88l25 58l35 86c-7 3 -13 7 -19 11l-38 22c-38 23 -77 46 -123 62v-337
h-153v11h4c33 3 58 30 58 63v12c-59 -64 -144 -100 -248 -100c-213 0 -368 152 -368 361s155 361 368 361c96 0 198 -28 261 -104l3 -4l-96 -88l-1 10c-7 58 -43 110 -97 138c-35 16 -69 24 -108 24c-141 0 -236 -113 -236 -281c0 -189 126 -391 314 -391
c133 0 206 100 206 281c0 15 -3 43 -22 64h-31c-75 -4 -145 -21 -203 -49l-3 -1l-16 12l7 4c61 30 135 48 215 52c55 3 100 -4 140 -16l6 -1v-1c51 -16 93 -41 134 -65c8 -5 26 -16 35 -21l1 -1l18 -9l171 418l-6 16h101l245 -627c13 -33 45 -55 81 -55zM1281 244l-164 415
l-165 -402c55 -27 112 -43 188 -39c50 2 97 11 141 26z" />
    <glyph glyph-name="uniF04C" unicode="GH" horiz-adv-x="1545" 
d="M1514 693l-4 4c-33 -3 -58 -30 -58 -63v-543c0 -33 25 -60 58 -63h4v-11h-215v11h4c33 3 58 30 58 63v231c-62 -27 -133 -45 -201 -45c-73 0 -128 20 -177 43v-230c0 -33 25 -60 58 -63h4v-11h-215v11h4c33 3 58 30 58 63v274c-43 20 -90 36 -149 38v-387h-153v11h4
c33 3 58 30 58 63v12c-59 -64 -144 -100 -248 -100c-213 0 -368 152 -368 361s155 361 368 361c96 0 198 -28 261 -104l3 -4l-96 -88l-1 10c-7 58 -43 110 -97 138c-35 16 -69 24 -108 24c-141 0 -236 -113 -236 -281c0 -189 126 -391 314 -391c133 0 206 100 206 281v3
c0 18 0 59 -20 80c-60 -12 -116 -32 -163 -59l-3 -1l-17 10l7 4c78 45 184 73 275 73c66 0 117 -16 163 -36v248c0 33 -25 60 -58 63h-4v11h216v-11h-4c-33 -3 -58 -30 -58 -63v-292l8 -4c54 -25 105 -43 170 -43c67 0 141 18 202 46v293c0 33 -25 60 -58 63h-4v11h216v-11
h-4z" />
    <glyph glyph-name="uniF04D" unicode="Th" horiz-adv-x="1223" 
d="M1203 22l9 -4v-11h-205v11h4c33 3 58 30 58 63v263c0 118 -71 136 -113 136c-56 0 -101 -30 -153 -65l-12 -8v-326c0 -33 25 -60 58 -63h4v-11h-205v11h4c33 3 58 30 58 63v576c0 9 -4 17 -11 22s-16 6 -24 2l-81 -39l-2 1c-55 23 -110 36 -169 39v-599
c0 -33 25 -60 58 -63h4v-11h-216v11h4c33 3 58 30 58 63v617h339l118 56v-324c60 45 136 92 214 92c95 0 143 -62 143 -184v-255c0 -33 25 -60 58 -63zM293 699v-8c-80 -15 -223 -69 -262 -145l-16 -32l38 185h240z" />
    <glyph glyph-name="uniF04E" unicode="vit" horiz-adv-x="951" 
d="M907 74l-1 6l18 9l7 4v-17l-15 -10c-34 -21 -77 -48 -100 -49c-39 -1 -71 10 -95 33c-31 30 -47 80 -47 149v251c0 9 -5 17 -13 21s-17 4 -25 -1l-42 -24l-33 -18v-332c0 -33 25 -60 58 -63h4v-11h-205v11h4c33 3 58 30 58 63v227c0 10 -6 19 -15 23s-19 2 -26 -5
c-75 -70 -130 -166 -168 -293l-10 -33l-15 -5l-203 443l-38 74h202v-11l-4 -1c-31 -4 -50 -14 -59 -30c-10 -18 -7 -46 10 -83l95 -209l31 -64c82 208 205 276 304 331c63 35 118 65 142 125c22 54 9 106 -34 139c-25 20 -56 30 -87 30c-33 0 -72 -13 -96 -37c3 1 6 1 9 1
c29 0 52 -23 52 -52s-23 -52 -52 -52c-27 0 -50 23 -52 51l1 10c8 61 83 96 138 96c34 0 69 -11 97 -33c37 -28 55 -68 51 -113v-91h188l-71 -64h-2c-25 0 -88 1 -117 1v-292c0 -46 11 -80 33 -100c19 -17 46 -25 81 -23c14 1 28 10 42 18z" />
    <glyph glyph-name="uniF04F" unicode="vip" horiz-adv-x="1198" 
d="M930 530l4 4c136 -14 240 -135 232 -269c-9 -151 -131 -253 -297 -249c-37 1 -72 7 -104 18v-163c0 -8 9 -24 23 -34l7 -5l-110 -52v670c0 9 -5 17 -13 21s-17 4 -25 -1l-42 -24l-33 -18v-332c0 -33 25 -60 58 -63h4v-11h-205v11h4c33 3 58 30 58 63v227
c0 10 -6 19 -15 23s-19 2 -26 -5c-75 -70 -130 -166 -168 -293l-10 -33l-15 -5l-203 443l-38 74h202v-11l-4 -1c-31 -4 -50 -14 -59 -30c-10 -18 -7 -46 10 -83l95 -209l31 -64c82 208 205 276 304 331c63 35 118 65 142 125c22 54 9 106 -34 139c-25 20 -56 30 -87 30
c-33 0 -72 -13 -96 -37c3 1 6 1 9 1c29 0 52 -23 52 -52s-24 -52 -53 -52c-27 0 -50 23 -52 51l1 10c5 61 83 96 137 96c34 0 69 -11 97 -33c41 -31 59 -78 50 -128v-83c31 5 64 7 96 7c24 0 49 -1 73 -4zM764 116h1c29 -35 78 -76 148 -78c91 -2 156 68 161 175
c4 93 -27 187 -81 245c-34 37 -75 57 -119 58c-39 1 -76 -7 -110 -25v-375z" />
    <glyph glyph-name="uniF050" unicode="wit" horiz-adv-x="1239" 
d="M1190 74l1 7l18 9l7 4v-17l-15 -10c-34 -21 -77 -48 -100 -49c-39 -1 -71 10 -95 33c-31 30 -47 80 -47 149v251c0 9 -5 17 -13 21s-17 4 -25 -1l-42 -24l-33 -18v-332c0 -33 25 -60 58 -63h4v-11h-205v11h4c33 3 58 30 58 63v227c0 10 -6 19 -15 23s-19 2 -26 -5
c-75 -70 -130 -166 -168 -293l-10 -32l-15 -5l-138 302l-130 -301h-11l-202 442l-38 74h202v-11l-4 -1c-31 -4 -50 -14 -59 -30c-10 -18 -7 -46 10 -83l95 -209l35 -72l91 211l-54 119l-38 74h202v-11l-4 -1c-31 -4 -50 -14 -59 -30c-10 -18 -7 -46 10 -83l95 -209l31 -64
c82 208 205 276 304 331c63 35 118 65 142 125c22 54 9 106 -34 139c-25 20 -56 30 -87 30c-33 0 -72 -13 -96 -37c3 1 6 1 9 1c29 0 52 -23 52 -52s-23 -52 -52 -52c-27 0 -49 21 -52 47v10c7 64 78 100 137 100c34 0 69 -11 97 -33c37 -28 55 -68 51 -113v-91h188l-71 -64
h-2c-25 0 -88 1 -117 1v-292c0 -46 11 -80 33 -100c19 -17 46 -25 81 -23c14 1 28 10 42 18z" />
    <glyph glyph-name="uniF051" unicode="wip" horiz-adv-x="1486" 
d="M1212 530l3 5c136 -14 240 -135 232 -269c-9 -151 -131 -254 -297 -250c-37 1 -72 7 -104 18v-163c0 -8 9 -24 23 -34l7 -5l-110 -52v670c0 9 -5 17 -13 21s-17 4 -25 -1c-14 -8 -29 -16 -42 -23l-33 -18v-332c0 -33 25 -60 58 -63h4v-11h-205v11h4c33 3 58 30 58 63v227
c0 10 -6 19 -15 23s-19 2 -26 -5c-75 -70 -130 -166 -168 -293l-10 -32l-15 -5l-138 302l-130 -301h-11l-202 442l-38 74h202v-11l-4 -1c-31 -4 -50 -14 -59 -30c-10 -18 -7 -46 10 -83l95 -209l35 -72l91 211l-54 119l-38 74h202v-11l-4 -1c-31 -4 -50 -14 -59 -30
c-10 -18 -7 -46 10 -83l95 -209l31 -64c82 208 205 276 304 331c63 35 118 65 142 125c22 54 9 106 -34 139c-25 20 -56 30 -87 30c-33 0 -72 -13 -96 -37c3 1 6 1 9 1c29 0 52 -23 52 -52s-24 -52 -53 -52c-27 0 -50 23 -52 51l1 10c8 61 83 96 138 96c34 0 69 -11 97 -33
c41 -31 59 -78 50 -128v-83c31 5 64 7 96 7c24 0 49 -1 73 -4zM1045 117c29 -35 78 -76 148 -78c92 -2 157 68 162 175c4 93 -27 187 -81 245c-34 37 -75 57 -119 58c-39 1 -76 -7 -110 -25v-375z" />
    <glyph glyph-name="fi" unicode="fi" horiz-adv-x="536" 
d="M151 84l3 1c0 -33 25 -60 58 -63h4v-11h-205v11h4c33 3 58 30 58 63v424h-53v18h53c2 69 49 132 140 188c43 27 93 41 144 40c30 0 60 -5 89 -15l8 -3l-65 -58l-3 2c-45 26 -93 33 -117 35c-17 0 -34 -4 -49 -13c-47 -29 -68 -55 -69 -177h222l-33 -18h-189v-424zM524 20
h5v-11h-205v11h4c33 3 58 30 58 63v352c0 8 -4 15 -10 19s-14 5 -21 2l-37 -14v14l148 70v-443c0 -33 25 -60 58 -63z" />
    <glyph glyph-name="fl" unicode="fl" horiz-adv-x="536" 
d="M524 20l8 1v-11h-205v11h4c33 3 58 30 58 63v597c-44 26 -97 32 -119 34c-17 0 -34 -4 -49 -13c-47 -29 -68 -55 -69 -177h208v-18h-208v-424c0 -33 25 -60 58 -63h4v-11h-205v11h4c33 3 58 30 58 63v424h-53v18h53c2 69 49 132 140 188c43 27 93 41 144 40
c22 0 70 -6 108 -21l3 -1v-648c0 -33 25 -60 58 -63z" />
    <glyph glyph-name=".notdef" horiz-adv-x="527" 
d="M50 700h427v-700h-427v700zM78 680l185 -309l186 309h-371zM276 350l181 -303v605zM251 350l-180 300v-601zM264 329l-185 -308h370z" />
    <glyph glyph-name="uni0000" horiz-adv-x="0" 
 />
    <glyph glyph-name="uni0000" horiz-adv-x="0" 
 />
    <glyph glyph-name="uni000D" unicode="&#xd;" horiz-adv-x="0" 
 />
    <glyph glyph-name="space" unicode=" " horiz-adv-x="369" 
 />
    <glyph glyph-name="uni000A" unicode="&#xa;" horiz-adv-x="0" 
 />
    <glyph glyph-name="exclam" unicode="!" horiz-adv-x="205" 
d="M112 147l-48 464c-3 28 -15 53 -34 70l-5 5l6 4l140 66v-8c0 -25 -41 -492 -53 -564zM154 97l1 -1c11 -11 17 -25 17 -41c0 -31 -26 -59 -58 -59s-60 28 -60 60s28 58 59 58c16 0 30 -6 41 -17z" />
    <glyph glyph-name="quotedbl" unicode="&#x22;" horiz-adv-x="285" 
d="M63 789h3c32 0 58 -26 58 -58c0 -11 -3 -20 -8 -29v-1l-1 -1c-21 -32 -35 -74 -43 -111l-10 -57l-4 34c-7 56 -21 98 -43 129l-9 12h3c-3 8 -5 16 -5 24c0 32 28 58 59 58zM268 772h3c11 -11 17 -25 17 -41c0 -11 -3 -20 -8 -29v-1l-1 -1c-22 -33 -33 -73 -42 -111
l-11 -53l-4 30c-7 56 -21 98 -43 129l-9 12h3c-3 8 -5 16 -5 24c0 32 28 58 59 58c16 0 30 -6 41 -17z" />
    <glyph glyph-name="numbersign" unicode="#" horiz-adv-x="830" 
d="M767 467h-212l-54 -198h212l-5 -18h-212l-66 -242h-18l66 242h-189l-66 -242h-18l66 242h-216l5 18h216l54 198h-216l5 18h216l61 225h18l-61 -225h189l61 225h18l-61 -225h212zM294 269h189l54 198h-189z" />
    <glyph glyph-name="dollar" unicode="$" horiz-adv-x="584" 
d="M548 205h-1c0 -95 -77 -190 -248 -196v-77h-20v77c-96 0 -183 29 -245 82l-4 4l80 68l3 -6c29 -61 95 -108 168 -123v280h-3c-153 35 -231 104 -231 204c0 106 92 176 235 181v53h20v-52c96 -1 170 -28 234 -86l4 -4l-82 -70l-3 6c-25 62 -87 112 -154 129v-275l24 -6
c150 -32 223 -94 223 -189zM125 557h-1c0 -93 74 -130 155 -152v273c-9 1 -18 2 -27 2c-81 0 -127 -45 -127 -123zM468 165v1c0 91 -66 119 -169 143v-279c9 -1 18 -2 27 -2c128 0 142 96 142 137z" />
    <glyph glyph-name="percent" unicode="%" horiz-adv-x="712" 
d="M656 704l-2 -4l-580 -709l-17 13l583 714zM86 407h2c-35 30 -53 68 -54 114c-2 46 13 88 45 124c31 35 71 55 118 60c46 5 87 -8 121 -38c34 -29 52 -67 54 -113s-13 -88 -45 -125c-35 -40 -84 -61 -137 -61c-39 0 -74 13 -104 39zM334 582l-1 -1c6 29 -2 54 -25 76
c-16 12 -34 18 -53 18c-77 0 -173 -101 -185 -172c-6 -35 3 -63 26 -82c16 -11 32 -16 49 -16c77 0 173 110 189 177zM680 191l1 -2c1 -47 -14 -89 -45 -124c-36 -41 -85 -61 -139 -61c-88 0 -153 65 -157 153c-2 46 13 87 45 123c31 36 71 57 119 62c46 5 87 -8 122 -38
c34 -29 52 -67 54 -113zM378 139v1c-6 -35 3 -63 26 -82c16 -11 32 -16 49 -16c77 0 172 109 188 177c6 28 -2 53 -24 75c-16 11 -34 17 -53 17c-77 0 -174 -101 -186 -172z" />
    <glyph glyph-name="ampersand" unicode="&#x26;" horiz-adv-x="629" 
d="M623 519l3 1c41 -1 110 -17 111 -115c1 -77 -40 -131 -116 -153c-20 -6 -65 -9 -79 -10c31 -55 28 -128 -9 -192c-46 -81 -132 -129 -231 -129c-127 0 -255 72 -270 208c-9 86 37 200 196 240c-46 30 -73 75 -74 124v1c0 88 86 160 192 161c79 0 165 -39 190 -120l1 -2
l-76 -41l-1 4c-10 75 -64 137 -123 141c-54 4 -96 -38 -102 -102c-8 -86 31 -143 117 -169l2 -1l-2 -15h-2c-119 2 -173 -47 -197 -88c-33 -55 -31 -132 5 -196c35 -62 95 -99 160 -100c87 -1 130 44 151 82c37 67 28 154 -2 201h-45c-59 1 -98 -8 -117 -27
c-9 -9 -13 -20 -13 -34c0 -18 8 -34 24 -49l2 -2l-44 -43l-2 2c-16 21 -39 73 -15 120c19 38 76 83 236 83c55 0 166 5 202 56c11 16 13 35 5 57c-10 28 -43 46 -93 51h-3l17 56h2z" />
    <glyph glyph-name="quotesingle" unicode="'" horiz-adv-x="121" 
d="M101 772h3c11 -11 17 -25 17 -41c0 -11 -3 -20 -8 -29v-1l-1 -1c-21 -32 -35 -74 -43 -111l-10 -57l-4 34c-7 56 -21 98 -43 129l-9 12h3c-3 8 -5 16 -5 24c0 32 28 58 59 58c16 0 30 -6 41 -17z" />
    <glyph glyph-name="parenleft" unicode="(" horiz-adv-x="228" 
d="M117 367c0 -148 36 -282 106 -398l5 -7h-20l-1 1c-115 116 -173 252 -173 404c0 154 58 290 173 405l1 1h20l-5 -7c-70 -116 -106 -250 -106 -399z" />
    <glyph glyph-name="parenright" unicode=")" horiz-adv-x="228" 
d="M20 773c115 -115 173 -251 173 -405c0 -152 -58 -288 -173 -404l-1 -1h-20l5 7c70 116 106 250 106 398c0 149 -36 283 -106 399l-5 7h20z" />
    <glyph glyph-name="asterisk" unicode="*" horiz-adv-x="374" 
d="M347 484l-5 -8l-128 41l41 -131l-9 -4l-63 122l-61 -120l-9 4l39 128l-126 -41l-4 9l120 62l-123 64l4 9l129 -41l-41 129l9 4l64 -123l62 120l9 -4l-40 -126l128 39l4 -9l-120 -61z" />
    <glyph glyph-name="plus" unicode="+" horiz-adv-x="621" 
d="M322 328h244v-28h-244v-240h-28v240h-241v28h241v245h28v-245z" />
    <glyph glyph-name="comma" unicode="," horiz-adv-x="151" 
d="M134 65l-1 -2c1 -9 0 -21 -1 -33v-2c-7 -48 -45 -104 -83 -133l-1 -1h-23l14 9c2 1 4 2 6 4c2 1 4 3 6 5c11 8 31 35 36 48c3 8 2 16 -2 25s-14 16 -30 23c-25 12 -38 31 -38 56c0 32 28 58 59 58s58 -25 58 -57z" />
    <glyph glyph-name="hyphen" unicode="-" horiz-adv-x="382" 
d="M373 299h-366v24h366v-24z" />
    <glyph glyph-name="period" unicode="." horiz-adv-x="150" 
d="M74 116c33 0 59 -26 59 -59s-26 -59 -59 -59s-59 26 -59 59s26 59 59 59z" />
    <glyph glyph-name="slash" unicode="/" horiz-adv-x="533" 
d="M456 767l25 -12l-405 -812l-26 12z" />
    <glyph glyph-name="zero" unicode="0" horiz-adv-x="647" 
d="M323 703c157 0 285 -157 285 -349s-128 -349 -285 -349s-285 157 -285 349s128 349 285 349zM323 685c-101 0 -183 -149 -183 -332s82 -332 183 -332s183 149 183 332s-82 332 -183 332z" />
    <glyph glyph-name="one" unicode="1" horiz-adv-x="249" 
d="M228 20l5 1v-11h-215v11h4c33 3 58 30 58 63v432c0 43 -18 84 -50 113l-6 5l146 69v-620c0 -33 25 -60 58 -63z" />
    <glyph glyph-name="two" unicode="2" horiz-adv-x="494" 
d="M371 98l-3 -1c27 0 54 7 78 19l7 4v-113h-421l8 8c88 91 167 188 244 288c46 58 78 140 78 201c0 72 -23 182 -114 182c-53 0 -122 -83 -169 -161l-3 -5l-66 60l3 4c79 111 165 122 239 118c120 -7 204 -86 204 -192c0 -76 -31 -138 -107 -214l-202 -198h224z" />
    <glyph glyph-name="three" unicode="3" horiz-adv-x="526" 
d="M434 391l-1 -1c38 -36 58 -88 58 -150c0 -127 -107 -235 -234 -235c-128 0 -232 104 -232 232v5h91v-5c0 -114 81 -200 188 -200c73 0 108 47 108 144c0 135 -69 226 -176 232c-17 1 -40 -4 -69 -15l-5 -2l-5 16l112 39c43 15 69 75 69 124c0 53 -33 110 -83 110
c-35 0 -101 -62 -132 -113l-3 -5l-64 58l3 4c45 50 119 76 210 73c73 -2 149 -42 150 -105c1 -65 -43 -120 -122 -153c56 -2 103 -20 137 -53z" />
    <glyph glyph-name="four" unicode="4" horiz-adv-x="474" 
d="M378 202l82 1v-18h-80v-100c0 -33 25 -60 58 -63h4v-11h-215v11h4c33 3 58 30 58 63v100h-280v18h3l244 499h99l-247 -499h181v64c0 27 -7 54 -19 78l-2 4l110 64v-211z" />
    <glyph glyph-name="five" unicode="5" horiz-adv-x="526" 
d="M263 456l-1 2c133 0 229 -91 229 -217c0 -128 -104 -233 -232 -233s-233 104 -233 232v5h89v-5c0 -115 83 -202 193 -202c71 0 104 45 104 142c0 135 -90 245 -201 245c-41 0 -73 -9 -107 -30l-1 -1h-9l-3 -2v2h-7l59 307h299l-13 -90h-282l-42 -196c43 27 110 41 158 41
z" />
    <glyph glyph-name="six" unicode="6" horiz-adv-x="545" 
d="M280 469c128 0 233 -104 233 -232s-105 -232 -234 -232c-144 0 -245 119 -245 289c0 205 171 379 325 407l5 1l3 -16l-5 -1c-91 -15 -198 -139 -235 -271c40 35 95 55 152 55h1zM214 430l2 -1c-32 0 -61 -11 -81 -38c-21 -29 -29 -72 -22 -121c19 -126 144 -240 248 -225
c63 9 98 71 87 154c-14 104 -122 231 -234 231z" />
    <glyph glyph-name="seven" unicode="7" horiz-adv-x="559" 
d="M67 700h439l-242 -692h-100l245 674h-129c-79 0 -157 -28 -219 -78l-10 -8z" />
    <glyph glyph-name="eight" unicode="8" horiz-adv-x="528" 
d="M181 461c-36 33 -55 73 -55 117c0 68 64 127 137 127c74 0 134 -60 134 -134c0 -46 -28 -89 -57 -109c96 -39 155 -123 155 -220c0 -129 -105 -234 -233 -234s-233 105 -233 234c0 101 62 190 152 219zM321 468c8 10 12 26 12 47c0 83 -55 157 -118 157
c-10 0 -17 -2 -22 -7c-9 -9 -10 -25 -9 -48c2 -86 117 -140 137 -149zM96 300v-2c0 -133 126 -247 229 -247c74 0 107 38 107 123c0 42 -11 101 -43 139c-29 40 -80 69 -130 97c-23 13 -45 25 -63 38c-61 -19 -100 -77 -100 -148z" />
    <glyph glyph-name="nine" unicode="9" horiz-adv-x="544" 
d="M263 703h1c144 0 245 -119 245 -289c0 -205 -171 -379 -325 -407l-5 -1l-3 16l5 1c91 15 198 139 235 271c-40 -35 -95 -55 -153 -55c-129 0 -234 104 -234 232s105 232 234 232zM210 324l-1 1c46 -35 95 -51 137 -45c27 4 48 16 63 37c21 29 29 72 22 121
c-19 126 -144 240 -248 225c-63 -9 -98 -71 -87 -154c9 -67 53 -138 114 -185z" />
    <glyph glyph-name="colon" unicode=":" horiz-adv-x="158" 
d="M76 328l-2 2c-15 0 -28 6 -38 17c-11 10 -17 23 -17 38c0 30 27 54 56 54c14 0 27 -5 39 -16c11 -12 16 -25 16 -39c0 -29 -24 -56 -54 -56zM78 181l-2 2c14 0 27 -5 39 -16c11 -12 16 -25 16 -39c0 -29 -24 -56 -54 -56c-15 0 -28 6 -38 17c-11 10 -17 23 -17 38
c0 30 27 54 56 54z" />
    <glyph glyph-name="semicolon" unicode=";" horiz-adv-x="164" 
d="M79 326l-2 2c-15 0 -28 6 -38 17c-11 10 -17 23 -17 38c0 30 27 54 56 54c14 0 27 -5 39 -16c11 -12 16 -25 16 -39c0 -29 -24 -56 -54 -56zM139 67l-1 -2c1 -9 0 -21 -1 -33v-2c-7 -48 -45 -104 -83 -133l-1 -1h-23l14 9c2 1 4 2 6 4c2 1 4 3 6 5c11 8 31 35 36 48
c3 8 2 16 -2 25s-14 16 -30 23c-25 12 -38 31 -38 56c0 32 28 58 59 58s58 -25 58 -57z" />
    <glyph glyph-name="less" unicode="&#x3c;" horiz-adv-x="537" 
d="M523 563v-27l-415 -223l415 -229v-31l-473 261z" />
    <glyph glyph-name="equal" unicode="=" horiz-adv-x="439" 
d="M423 369h-410v28h410v-28zM423 231h-410v28h410v-28z" />
    <glyph glyph-name="greater" unicode="&#x3e;" horiz-adv-x="537" 
d="M12 563l472 -248l-473 -261v31l416 229l-415 223v26z" />
    <glyph glyph-name="question" unicode="?" horiz-adv-x="521" 
d="M459 640l-1 1c65 -84 32 -177 -4 -216c-13 -14 -27 -27 -42 -38c-12 -10 -27 -21 -47 -35c-19 -13 -33 -23 -41 -30c-52 -37 -99 -85 -117 -148l-5 -17l-5 17c-6 20 -21 89 24 147c7 10 23 25 43 44c44 41 110 103 133 155c10 23 17 52 18 75c1 32 -7 56 -24 73
c-25 24 -59 24 -73 23c-64 -5 -159 -95 -192 -165l-3 -6l-71 74l2 3c42 61 104 99 184 112c29 5 53 4 70 3h5c54 -3 112 -29 146 -72zM264 114l-2 1c14 0 27 -5 39 -16c11 -12 16 -25 16 -39c0 -29 -24 -56 -54 -56c-15 0 -28 6 -38 18c-11 10 -17 23 -17 38
c0 30 27 54 56 54z" />
    <glyph glyph-name="at" unicode="@" horiz-adv-x="757" 
d="M635 499l-4 2c58 -59 86 -134 84 -223c-1 -28 -8 -56 -21 -81l-1 -1c-24 -45 -83 -121 -206 -121c-32 0 -57 10 -73 29c-14 16 -19 38 -16 65l-137 -85l-2 1c-51 20 -84 78 -82 145c3 126 136 224 248 224c61 0 112 -27 131 -39l4 -2l-86 -205c-14 -35 -11 -65 8 -83
c12 -11 28 -17 49 -17c90 0 169 80 173 170c2 85 -24 156 -78 211c-53 53 -128 80 -223 80c-180 0 -344 -131 -348 -317c-2 -87 30 -162 94 -224c65 -63 143 -94 238 -94c60 0 150 25 191 68l3 4l11 -11l-3 -4c-48 -51 -135 -73 -204 -73c-97 0 -181 33 -249 98
s-101 144 -99 235c4 194 176 333 363 333c102 0 179 -28 235 -85zM293 128l107 67c4 13 8 26 14 39l60 142c-24 27 -58 41 -99 41h-8c-50 -1 -135 -20 -138 -135c-2 -77 30 -135 64 -154z" />
    <glyph glyph-name="A" unicode="A" horiz-adv-x="638" 
d="M654 20l4 -1v-11h-243v11h5c17 0 32 8 42 22s12 31 6 47l-36 92h-297l-38 -89c-11 -27 1 -59 27 -72l3 -1v-9h-134v10l3 1c40 16 71 47 88 87l195 458l-60 150l85 41l269 -681c13 -33 45 -55 81 -55zM287 540l-146 -343h282z" />
    <glyph glyph-name="B" unicode="B" horiz-adv-x="629" 
d="M11 11v11h4c33 3 58 30 58 63v542c0 33 -25 60 -58 63h-4v11h308c110 -7 187 -78 187 -173c0 -76 -31 -125 -101 -158c130 -8 203 -59 206 -147c2 -51 -14 -95 -48 -130c-51 -53 -142 -82 -256 -82h-296zM323 363c75 34 91 108 91 164c0 103 -56 157 -166 160h-84v-398
c23 11 95 45 159 74zM358 354l3 -2c-11 -1 -23 -4 -35 -9c-36 -17 -141 -66 -160 -75v-212c60 -15 128 -20 172 -20c74 0 119 13 147 43c26 27 36 70 32 132c-2 24 -17 144 -150 143h-9z" />
    <glyph glyph-name="C" unicode="C" horiz-adv-x="673" 
d="M637 182l8 14l9 -4v-3c-3 -9 -7 -22 -28 -56c-52 -94 -144 -136 -251 -136c-93 0 -180 33 -240 93c-67 67 -107 160 -110 255c-3 109 34 207 102 269c63 59 146 94 239 101c47 3 91 0 132 -9c50 -9 96 -30 113 -42l3 -2c11 -7 27 -18 41 -30l4 -4l-75 -68l-3 4
c-52 71 -136 126 -226 126c-94 0 -168 -60 -201 -146c-21 -53 -29 -113 -24 -179c13 -164 126 -297 297 -299c69 0 123 24 149 45c31 27 54 53 61 71z" />
    <glyph glyph-name="D" unicode="D" horiz-adv-x="712" 
d="M316 701v3c230 0 368 -123 368 -329c0 -214 -159 -364 -387 -364h-283v11h4c33 3 58 30 58 63v542c0 33 -25 60 -58 63h-4v11h302zM167 67l-1 -1c28 -14 74 -30 140 -30c194 0 277 88 277 293c0 230 -109 357 -306 357h-110v-619z" />
    <glyph glyph-name="E" unicode="E" horiz-adv-x="570" 
d="M535 161l16 33l-43 -212l-37 28h-463v11h4c33 3 58 30 58 63v543c0 33 -25 60 -58 63h-4v11h506l38 -185l-16 32c-43 83 -127 135 -220 135h-154v-319h155c45 0 85 27 102 69l1 3h10v-163h-10l-1 3c-17 42 -58 69 -104 69h-154v-319h154c93 0 177 52 220 135z" />
    <glyph glyph-name="F" unicode="F" horiz-adv-x="552" 
d="M513 701l38 -184l-16 32c-43 83 -127 135 -220 135h-154v-319h154c46 0 87 27 104 69l1 3h10v-163h-10l-1 3c-17 42 -58 69 -104 69h-154v-262c0 -33 25 -60 58 -63h4v-11h-216v11h4c33 3 58 30 58 63v543c0 33 -25 60 -58 63h-4v11h506z" />
    <glyph glyph-name="G" unicode="G" horiz-adv-x="788" 
d="M646 -7l-1 101c-59 -64 -144 -100 -248 -100c-213 0 -368 152 -368 361s155 361 368 361c96 0 198 -28 261 -104l3 -4l-96 -88l-1 10c-7 58 -43 110 -97 138c-35 16 -69 24 -108 24c-141 0 -236 -113 -236 -281c0 -189 126 -391 314 -391c133 0 206 100 206 281
c0 15 -1 30 -3 45h-278l20 18h354v-274c0 -8 4 -15 10 -19s14 -5 21 -2l4 -9z" />
    <glyph glyph-name="H" unicode="H" horiz-adv-x="712" 
d="M693 689l-2 1c-33 -3 -58 -30 -58 -63v-543c0 -33 25 -60 58 -63h4v-11h-215v11h4c33 3 58 30 58 63v262h-379v-262c0 -33 25 -60 58 -63h4v-11h-215v11h4c33 3 58 30 58 63v542c0 33 -25 60 -58 63h-4v11h216v-11h-4c-33 -3 -58 -30 -58 -63v-262h379v262
c0 33 -25 60 -58 63h-4v11h216v-11h-4z" />
    <glyph glyph-name="I" unicode="I" horiz-adv-x="227" 
d="M216 689l-1 1c-33 -3 -58 -30 -58 -63v-543c0 -33 25 -60 58 -63h4v-11h-215v11h4c33 3 58 30 58 63v542c0 33 -25 60 -58 63h-4v11h216v-11h-4z" />
    <glyph glyph-name="J" unicode="J" horiz-adv-x="224" 
d="M-232 -214l96 87h39c50 0 84 6 128 31c23 36 35 78 35 121v601c0 33 -25 60 -58 63h-4v11h214v-11h-4c-33 -3 -58 -30 -58 -63v-524c0 -80 -34 -136 -91 -190c-22 -21 -41 -39 -60 -57l-12 -12c-43 -37 -101 -57 -157 -57h-68z" />
    <glyph glyph-name="K" unicode="K" horiz-adv-x="666" 
d="M195 366l-34 -32v-251c0 -33 25 -60 58 -63h4v-11h-215v11h4c33 3 58 30 58 63v542c0 33 -25 60 -58 63h-4v11h216v-11h-4c-33 -3 -58 -30 -58 -63v-264l305 306c25 21 56 32 87 32c27 0 54 -8 77 -24c0 0 24 -17 25 -17l5 -4l-72 -65l-23 23c-17 17 -40 26 -63 26
c-22 0 -45 -9 -62 -26l-184 -184l243 -282c69 -83 96 -104 146 -129l19 -9h-167z" />
    <glyph glyph-name="L" unicode="L" horiz-adv-x="551" 
d="M551 193l-44 -213l-37 28h-464v11h4c33 3 58 30 58 63v543c0 33 -25 60 -58 63h-4v11h216v-11h-4c-33 -3 -58 -30 -58 -63v-599h154c93 0 177 52 220 135z" />
    <glyph glyph-name="M" unicode="M" horiz-adv-x="891" 
d="M812 608l2 2v-524c0 -33 25 -60 58 -63h4v-11h-215v11h4c33 3 58 30 58 63v12l-1 557l-262 -444l130 -201h-116l-367 563v-449c0 -46 27 -87 69 -104l3 -1v-10h-162v10l3 1c42 17 69 57 69 102v432c0 30 -9 59 -25 84l-40 62h110l314 -474l279 474h147v-11h-4
c-33 -3 -58 -30 -58 -63v-18z" />
    <glyph glyph-name="N" unicode="N" horiz-adv-x="719" 
d="M549 701h162v-10l-3 -1c-42 -17 -69 -58 -69 -104v-610l-527 626v-482c0 -46 27 -87 69 -104l3 -1v-10h-163v10l3 1c42 17 69 58 69 104v503c-29 34 -50 54 -73 68l-15 9h158l3 -6c7 -12 16 -29 34 -48l421 -503v443c0 46 -27 87 -69 104l-3 1v10z" />
    <glyph glyph-name="O" unicode="O" horiz-adv-x="802" 
d="M401 722c215 0 371 -153 371 -364s-156 -364 -371 -364s-371 153 -371 364s156 364 371 364zM440 20c143 0 239 114 239 284c0 190 -127 393 -316 393c-143 0 -239 -114 -239 -283c0 -190 127 -394 316 -394z" />
    <glyph glyph-name="P" unicode="P" horiz-adv-x="571" 
d="M329 701v1c136 -4 225 -74 227 -179c2 -94 -37 -160 -119 -202c-12 -6 -70 -34 -131 -64c-60 -29 -122 -59 -142 -69v-104c0 -33 25 -60 58 -63h4v-11h-216v11h4c33 3 58 30 58 63v543c0 33 -25 60 -58 63h-4v11h145c1 0 131 1 174 0zM163 609h-1v-400c11 5 28 13 49 23
c66 31 166 78 191 99c42 36 60 93 56 179c-2 42 -9 170 -207 175h-89v-69z" />
    <glyph glyph-name="Q" unicode="Q" horiz-adv-x="801" 
d="M955 -55c54 -68 0 -165 -25 -197c-39 -49 -90 -77 -139 -77c-67 0 -187 39 -315 80c-125 40 -254 81 -323 81c-32 0 -76 -17 -123 -47l-5 -3l-7 22l4 2c38 17 87 38 139 60c172 73 386 164 448 231c47 51 72 122 72 205c0 190 -127 393 -316 393
c-141 0 -237 -112 -238 -279c0 -160 84 -342 234 -411l27 -13l-30 3c-194 21 -325 166 -325 361c0 219 160 364 372 364c210 0 372 -146 372 -364c0 -102 -39 -206 -119 -272s-330 -171 -438 -214c8 1 17 2 25 2c78 0 210 -38 338 -75c110 -32 214 -62 266 -62
c29 0 53 9 69 27c7 8 6 18 4 25c-6 23 -32 54 -66 65l-8 3l104 94z" />
    <glyph glyph-name="R" unicode="R" horiz-adv-x="632" 
d="M594 122l18 1l-115 -104l-2 1c-142 30 -264 123 -332 251v-187c0 -33 25 -60 58 -63h4v-11h-216v11h4c33 3 58 30 58 63v543c0 33 -25 60 -58 63h-4v11h330c162 0 263 -74 263 -194c0 -63 -25 -122 -70 -165c-55 -53 -136 -81 -229 -79c-55 2 -98 11 -125 17
c104 -101 244 -158 389 -158h27zM162 681v-381c32 -7 80 -14 83 -14l9 -1c16 -2 32 -3 47 -3c128 0 205 57 205 191c0 102 -26 208 -216 208h-128z" />
    <glyph glyph-name="S" unicode="S" horiz-adv-x="560" 
d="M313 401v-3c150 -34 223 -99 223 -199c0 -103 -82 -207 -265 -207c-97 0 -185 31 -248 87l-4 4l79 72l3 -6c35 -78 125 -135 215 -135c132 0 142 111 142 145c0 104 -77 130 -194 157c-153 37 -231 109 -231 214c0 116 98 191 250 191c98 0 174 -29 239 -91l4 -4l-82 -74
l-3 7c-30 81 -116 142 -200 142c-81 0 -127 -47 -127 -129c0 -116 103 -149 199 -171z" />
    <glyph glyph-name="T" unicode="T" horiz-adv-x="728" 
d="M691 701l37 -185l-16 32c-40 79 -210 129 -303 134v-599c0 -33 25 -60 58 -63h4v-11h-216v11h4c33 3 58 30 58 63v599c-93 -5 -263 -55 -303 -134l-16 -32l38 185h655z" />
    <glyph glyph-name="U" unicode="U" horiz-adv-x="674" 
d="M7 689v11h216v-11h-4c-33 -3 -58 -30 -58 -63v-361c0 -153 80 -248 208 -248c127 0 206 95 206 248v327c-2 43 -29 81 -70 98l-3 1v10h161v-10l-3 -1c-42 -17 -69 -57 -69 -102v-307c-1 -187 -91 -286 -261 -286c-171 0 -261 99 -261 286v345c0 33 -25 60 -58 63h-4z" />
    <glyph glyph-name="V" unicode="V" horiz-adv-x="634" 
d="M582 713l1 1c38 -83 42 -176 11 -261c-3 -8 -6 -15 -9 -22l-52 -116l-122 -288l40 -90h-108l-275 697c-13 33 -45 55 -81 55h-5v11h243v-11h-5c-17 0 -32 -8 -42 -22s-12 -31 -6 -47l228 -572l51 121l66 161c21 52 29 109 22 165c-6 62 -33 123 -72 171l-3 4l95 86l3 -5
c7 -12 14 -25 20 -38z" />
    <glyph glyph-name="W" unicode="W" horiz-adv-x="1038" 
d="M980 713l1 1c38 -83 42 -176 11 -261c-3 -8 -6 -15 -9 -22l-52 -116l-122 -288l40 -90h-108l-174 443l-150 -354l40 -90h-103l-4 -3l-276 700c-13 33 -45 55 -81 55h-5v11h243v-11h-5c-17 0 -32 -8 -42 -22s-12 -31 -6 -47l227 -571l152 355l-85 216
c-11 28 -29 53 -53 72l-11 9h215v-11h-5c-17 0 -32 -8 -42 -22s-12 -31 -6 -47l227 -572l51 121l66 161c22 52 30 109 23 165c-6 62 -33 123 -72 171l-3 4l95 86l3 -5c7 -12 14 -25 20 -38z" />
    <glyph glyph-name="X" unicode="X" horiz-adv-x="679" 
d="M666 18l15 -10h-225l-4 11h7c15 0 26 6 32 17c6 12 4 28 -5 43l-171 232l-185 -224c-12 -16 -18 -33 -16 -47c1 -9 6 -16 14 -21l3 -2l-3 -8h-134l4 10l2 1c40 14 78 39 109 71l196 237l-216 292c-21 28 -48 53 -78 72l-14 9h224l4 -11h-7c-15 0 -26 -6 -32 -17
c-7 -13 -4 -31 7 -48l168 -229l184 223c13 16 19 34 17 49c-1 9 -6 16 -14 21l-3 2l3 8h135l-4 -10l-2 -1c-39 -14 -76 -38 -107 -69l-197 -238l137 -186h1l77 -105c21 -28 48 -53 78 -72z" />
    <glyph glyph-name="Y" unicode="Y" horiz-adv-x="682" 
d="M555 700l136 -2l-2 -10l-2 -1c-44 -17 -83 -48 -110 -88l-198 -295v-224c0 -33 25 -60 58 -63h4v-11h-216v11h4c33 3 58 30 58 63v201l-209 350c-20 34 -57 56 -93 56h-4l-2 11h243l2 -11h-6c-16 0 -29 -7 -36 -19c-8 -14 -7 -32 3 -49l179 -299l199 296
c10 15 14 32 11 47c-3 11 -9 20 -18 26l-3 2z" />
    <glyph glyph-name="Z" unicode="Z" horiz-adv-x="603" 
d="M587 161l15 35l-38 -185h-579l23 9c31 13 66 61 120 146l326 518h-179c-93 0 -177 -52 -220 -135l-16 -32l38 185h518v-13l-4 -1c-4 -1 -8 -2 -12 -4v-1h-1c-21 -10 -41 -38 -87 -111l-341 -546h217c93 0 177 52 220 135z" />
    <glyph glyph-name="bracketleft" unicode="[" horiz-adv-x="183" 
d="M306 779v-18h-169l1 -805h168v-18h-257v841h257z" />
    <glyph glyph-name="backslash" unicode="\" horiz-adv-x="533" 
d="M75 767l406 -812l-26 -12l-405 812z" />
    <glyph glyph-name="bracketright" unicode="]" horiz-adv-x="183" 
d="M-125 779h257v-841h-257v18h168l1 805h-169v18z" />
    <glyph glyph-name="underscore" unicode="_" horiz-adv-x="384" 
d="M374 7h-366v24h366v-24z" />
    <glyph glyph-name="a" unicode="a" horiz-adv-x="566" 
d="M435 156l-1 -3v22l1 57c-77 -173 -167 -235 -227 -235c-71 0 -129 30 -159 81c-25 43 -27 95 -5 136c53 96 147 104 238 112c53 5 108 10 154 33c-1 78 -28 119 -105 119s-170 -40 -226 -67l-3 -1l-79 72l8 3c65 23 137 36 208 38c34 1 68 -4 102 -14
c89 -31 174 -83 174 -189v-236c0 -8 4 -15 10 -19s14 -5 21 -2l4 -9l-115 -61v163zM152 267c-34 -24 -36 -71 -27 -107c12 -43 46 -89 95 -94c101 -10 163 113 186 159c2 4 4 7 5 10c16 30 24 57 25 82v14c-48 -18 -91 -20 -132 -22c-52 -3 -101 -6 -152 -42z" />
    <glyph glyph-name="b" unicode="b" horiz-adv-x="571" 
d="M292 523h1c154 0 250 -96 250 -251c0 -170 -118 -271 -316 -271c-76 0 -143 13 -200 38l-7 3l43 39v584c0 8 -4 15 -10 19s-14 5 -21 2l-37 -14v14l148 70v-274c39 27 90 41 149 41zM144 452v-380c37 -33 83 -49 140 -49c72 0 167 20 167 196c0 164 -81 278 -197 278
c-42 0 -81 -16 -110 -45z" />
    <glyph glyph-name="c" unicode="c" horiz-adv-x="525" 
d="M492 111l3 3l14 -10l-4 -6c-46 -62 -124 -98 -214 -98c-155 0 -268 110 -268 262c0 150 106 255 264 261c90 4 161 -15 217 -59l5 -4l-78 -71l-3 5c-39 62 -112 105 -178 105c-85 0 -138 -67 -138 -175c0 -141 81 -293 212 -293c60 0 123 30 168 80z" />
    <glyph glyph-name="d" unicode="d" horiz-adv-x="548" 
d="M514 16l5 -9h-108l-1 4c-3 13 -5 22 -6 27c-33 -33 -84 -37 -126 -37c-151 0 -253 98 -253 243c0 135 82 280 312 280c28 0 52 -2 74 -7v149c0 8 -4 15 -10 19s-14 5 -21 2l-37 -14v14l148 70v-662c0 -28 8 -55 23 -79zM105 297l2 1c0 -150 93 -263 216 -263
c47 0 89 19 89 74v334c-25 25 -68 54 -134 54c-110 0 -173 -73 -173 -200z" />
    <glyph glyph-name="e" unicode="e" horiz-adv-x="553" 
d="M538 375l-6 -4l-400 -190c33 -92 98 -152 174 -161c70 -8 125 29 150 101l1 3h66l-5 -8c-47 -75 -130 -118 -228 -118c-110 0 -201 55 -243 147l-3 9c-14 33 -21 69 -21 107c0 152 113 262 268 262c106 0 196 -52 240 -138l4 -4zM113 344l-1 -1c-5 -48 0 -98 15 -145
l320 152c-34 87 -98 144 -171 152c-6 1 -12 1 -18 1c-91 0 -136 -77 -145 -159z" />
    <glyph glyph-name="f" unicode="f" horiz-adv-x="354" 
d="M441 739l11 -2l-65 -58l-3 2c-45 26 -93 33 -117 35c-17 0 -34 -4 -49 -13c-47 -29 -68 -55 -69 -177h208v-18h-208v-424c0 -33 25 -60 58 -63h4v-11h-205v11h4c33 3 58 30 58 63v424h-53v18h53c2 69 49 132 140 188c43 27 93 41 144 40c30 0 60 -5 89 -15z" />
    <glyph glyph-name="g" unicode="g" horiz-adv-x="611" 
d="M740 614l30 -23l-72 -65l-45 44c-11 11 -27 17 -42 17c-13 0 -26 -4 -37 -12l-11 -9c-20 -18 -39 -38 -57 -58l-18 -18l-9 -12c54 -36 89 -91 90 -153c1 -47 -18 -93 -53 -129c-45 -46 -112 -73 -183 -74c-39 0 -78 7 -114 23l-97 -124l290 76l1 -1h3
c91 -23 159 -68 191 -126c27 -49 30 -107 8 -173c-20 -61 -79 -122 -127 -150c-1 0 -2 -1 -3 -2c-58 -37 -141 -51 -209 -51c-140 0 -252 67 -328 184c-33 49 -66 102 -108 173c-17 31 -36 57 -76 57h-5v10h145l5 -9c52 -94 110 -188 177 -272c100 -124 215 -125 237 -124
c32 2 81 9 130 35c58 35 102 97 108 166c9 111 -77 175 -151 210c-32 15 -66 23 -101 23c-20 0 -40 -3 -60 -8l-149 -39l-12 10l116 147c-66 35 -111 96 -112 166v1c-1 109 105 199 236 200c51 1 98 -12 137 -34l10 13l4 4c20 24 40 46 62 68l11 9l9 9l16 14
c25 21 55 31 86 31c27 0 54 -8 77 -24zM240 206l180 228c-29 40 -68 68 -109 72h-9c-71 0 -108 -66 -114 -130c-5 -62 17 -125 52 -170zM333 293l-81 -101c26 -28 58 -47 91 -50c27 -2 53 6 74 24c28 23 45 61 49 107c4 51 -10 103 -35 145z" />
    <glyph glyph-name="h" unicode="h" horiz-adv-x="574" 
d="M564 20l7 -2v-11h-205v11h4c33 3 58 30 58 63v263c0 118 -71 136 -113 136c-56 0 -101 -30 -153 -65l-12 -8v-326c0 -33 25 -60 58 -63h4v-11h-205v11h4c33 3 58 30 58 63v582c0 8 -4 15 -10 19s-14 5 -21 2l-37 -14v14l148 70v-324c60 45 136 92 214 92
c95 0 143 -62 143 -184v-255c0 -33 25 -60 58 -63z" />
    <glyph glyph-name="i" unicode="i" horiz-adv-x="222" 
d="M185 645l-66 -65l-66 65l66 65zM216 20h5v-11h-205v11h4c33 3 58 30 58 63v352c0 8 -4 15 -10 19s-14 5 -21 2l-37 -14v14l148 70v-443c0 -33 25 -60 58 -63z" />
    <glyph glyph-name="j" unicode="j" horiz-adv-x="198" 
d="M172 644l-66 -65l-66 65l66 65zM8 444v12l148 70v-468c0 -73 -29 -122 -80 -173l-53 -53l-12 -9c-6 -6 -12 -11 -18 -15c-34 -25 -77 -38 -119 -38h-61l90 81h31c41 0 75 6 110 28c20 33 30 71 30 110v447c0 8 -4 15 -10 19s-14 5 -21 2z" />
    <glyph glyph-name="k" unicode="k" horiz-adv-x="555" 
d="M181 258l-41 -53v-120c0 -33 25 -60 58 -63h4v-11h-205v11h4c33 3 58 30 58 63v582c0 8 -4 15 -10 19s-14 5 -21 2l-37 -14v14l148 70v-524l34 44c149 217 184 252 341 248h7l-37 -82h-3c-115 2 -185 -44 -243 -109l181 -206c55 -63 76 -87 123 -110l19 -9h-144l-229 260
l-7 -9v-3z" />
    <glyph glyph-name="l" unicode="l" horiz-adv-x="205" 
d="M200 19h5v-11h-205v11h4c33 3 58 30 58 63v582c0 8 -4 15 -10 19s-14 5 -21 2l-37 -14v14l148 70v-673c0 -33 25 -60 58 -63z" />
    <glyph glyph-name="m" unicode="m" horiz-adv-x="932" 
d="M922 19l3 -4v-11h-205v11h4c33 3 58 30 58 63v263c0 118 -67 136 -107 136c-52 0 -99 -33 -148 -68l-9 -6c4 -20 6 -43 6 -69v-255c0 -33 25 -60 58 -63h4v-11h-205v11h4c33 3 58 30 58 63v263c0 118 -67 136 -107 136c-52 0 -94 -30 -143 -65l-8 -5v-329
c0 -33 25 -60 58 -63h4v-11h-205v11h4c33 3 58 30 58 63v310c0 13 -3 37 -9 51c-9 19 -32 28 -51 20l-24 -10l-7 12l124 60l2 -3c23 -24 39 -49 43 -90c59 44 127 92 204 92c65 0 107 -33 125 -98l2 2l4 3c1 0 1 1 2 1c55 39 130 92 205 92c90 0 136 -62 136 -184v-255
c0 -33 25 -60 58 -63h4z" />
    <glyph glyph-name="n" unicode="n" horiz-adv-x="602" 
d="M599 19l6 -3v-11h-206v11h4c33 3 58 30 58 63v263c0 118 -71 136 -113 136c-56 0 -101 -30 -153 -65l-12 -8v-326c0 -33 25 -60 58 -63h4v-11h-205v11h4c33 3 58 30 58 63v310c0 13 -3 37 -9 51c-9 19 -32 28 -51 20l-24 -10l-7 12l124 60l2 -3c23 -24 39 -49 43 -90
c60 45 136 92 214 92c95 0 143 -62 143 -184v-255c0 -33 25 -60 58 -63h4z" />
    <glyph glyph-name="o" unicode="o" 
d="M294 524c155 0 268 -110 268 -262s-113 -262 -268 -262s-268 110 -268 262s113 262 268 262zM117 324c0 -142 89 -300 217 -300c85 0 138 68 138 177c0 141 -89 298 -217 298c-85 0 -138 -67 -138 -175z" />
    <glyph glyph-name="p" unicode="p" horiz-adv-x="591" 
d="M310 522h1c160 -11 263 -118 256 -266c-7 -154 -129 -259 -298 -255c-37 1 -72 7 -104 18v-162c0 -8 9 -24 23 -34l7 -5l-110 -52v658l-73 49l8 4c49 21 152 55 290 45zM164 102h1c29 -35 78 -76 148 -78c93 -2 156 67 161 175c4 93 -27 187 -81 245
c-34 37 -75 57 -119 58c-39 1 -76 -7 -110 -25v-375z" />
    <glyph glyph-name="q" unicode="q" horiz-adv-x="547" 
d="M530 -164l36 14v-14l-148 -70v267c-37 -18 -78 -29 -122 -32c-76 -6 -145 16 -194 62s-76 113 -76 189c0 157 114 272 271 273c84 1 151 -13 200 -41l2 -1v-626c0 -8 4 -15 10 -19s14 -5 21 -2zM418 345h1c0 84 -66 156 -151 156h-12c-90 -7 -139 -70 -139 -178
c0 -101 38 -201 96 -254c34 -31 73 -45 115 -41c36 3 67 24 90 59v258z" />
    <glyph glyph-name="r" unicode="r" horiz-adv-x="457" 
d="M428 500l31 -21l-72 -65l-45 44c-11 11 -27 17 -42 17c-13 0 -26 -4 -37 -12l-11 -8c-5 -4 -10 -8 -15 -13c-23 -20 -43 -42 -63 -65v-294c0 -33 25 -60 58 -63h4v-11h-205v11h4c33 3 58 30 58 63v310c0 13 -3 37 -9 51c-9 19 -32 28 -51 20l-24 -10l-7 12l124 60l2 -3
c27 -28 45 -57 45 -110v-8c16 18 32 34 49 51c2 2 4 3 6 4v1l37 32c25 21 55 31 86 31c27 0 54 -8 77 -24z" />
    <glyph glyph-name="s" unicode="s" horiz-adv-x="444" 
d="M239 308l-2 -1c180 -29 182 -118 183 -147c-2 -96 -82 -158 -204 -158c-99 0 -163 39 -193 62l-5 4l76 70l3 -5c43 -65 106 -109 157 -110c62 0 90 33 90 94c0 62 -35 93 -120 107c-112 20 -176 65 -190 134c-3 16 -3 33 1 49c16 72 90 119 188 119c69 0 145 -24 190 -59
l5 -4l-74 -68l-3 5c-43 62 -104 104 -152 104c-76 0 -84 -63 -84 -90c0 -74 68 -95 134 -106z" />
    <glyph glyph-name="t" unicode="t" horiz-adv-x="333" 
d="M299 65l-3 2l18 9l7 4v-17l-15 -10c-34 -21 -77 -48 -100 -49c-112 0 -143 84 -143 182v276h-60l142 168v-105h188l-71 -64h-2c-25 0 -88 1 -117 1v-292c0 -46 11 -80 33 -100c19 -17 46 -25 81 -23c14 1 28 10 42 18z" />
    <glyph glyph-name="u" unicode="u" horiz-adv-x="543" 
d="M517 58l-110 -51v103c-61 -46 -135 -99 -214 -99c-95 0 -143 62 -143 184v241c0 8 -9 24 -23 34l-7 5l110 52v-340c0 -118 71 -136 113 -136c49 0 88 28 133 60c10 7 20 14 31 21v304c0 8 -9 24 -23 34l-7 5l110 52v-430c0 -8 9 -24 23 -34z" />
    <glyph glyph-name="v" unicode="v" horiz-adv-x="517" 
d="M362 514l-2 12h154v-10l-3 -1c-28 -11 -53 -26 -92 -118l-167 -387h-11l-202 442l-38 74h202v-11l-4 -1c-31 -4 -50 -14 -59 -30c-10 -18 -7 -46 10 -83l95 -209l35 -72l122 280c15 35 18 61 10 79c-8 19 -28 27 -47 34z" />
    <glyph glyph-name="w" unicode="w" horiz-adv-x="804" 
d="M645 524l153 4v-10l-3 -1c-28 -11 -53 -26 -92 -118l-167 -387h-11l-138 301l-130 -301h-11l-202 442l-38 74h202v-11l-4 -1c-31 -4 -50 -14 -59 -30c-10 -18 -7 -46 10 -83l95 -209l35 -72l91 211l-54 119l-38 74h202v-11l-4 -1c-31 -4 -50 -14 -59 -30
c-10 -18 -7 -46 10 -83l95 -209l35 -72l122 280c15 35 18 61 10 79c-8 19 -28 27 -47 34l-3 1v10z" />
    <glyph glyph-name="x" unicode="x" horiz-adv-x="550" 
d="M530 20l19 -10h-216l-4 11h7c15 0 26 6 32 17c6 12 4 28 -5 43l-106 143l-109 -133c-13 -17 -19 -35 -17 -50c1 -9 6 -16 14 -21l3 -2l-3 -8h-135l4 10l2 1c47 17 91 48 124 88l107 130l-153 207c-21 27 -47 51 -76 69l-14 9h215l4 -11h-7c-15 0 -26 -6 -32 -17
c-7 -14 -4 -33 8 -50l105 -143l114 139c13 17 19 35 17 50c-1 9 -6 16 -14 21l-3 2l3 8h135l-4 -10l-2 -1c-47 -17 -91 -48 -124 -88l-112 -136l67 -91h1l77 -105c21 -28 48 -53 78 -72z" />
    <glyph glyph-name="y" unicode="y" horiz-adv-x="504" 
d="M350 514l-3 12h154v-10l-3 -1c-28 -11 -53 -26 -92 -118l-178 -411c-37 -86 -121 -141 -215 -141h-8v85l5 -1c87 -10 172 33 217 106l-189 416l-38 74h202v-11l-4 -1c-31 -4 -50 -14 -59 -30c-10 -18 -7 -46 10 -83l89 -196l35 -72l121 279c11 30 13 52 6 68
c-8 19 -28 27 -47 34z" />
    <glyph glyph-name="z" unicode="z" horiz-adv-x="479" 
d="M462 513l1 1c-29 -6 -54 -35 -106 -123l-212 -364h104c69 0 147 39 203 101l10 11l-15 -130h-440v3l1 5l3 1c33 14 75 65 128 156l192 332h-101c-69 0 -147 -39 -203 -101l-10 -11l15 130h434v-10z" />
    <glyph glyph-name="braceleft" unicode="{" horiz-adv-x="340" 
d="M253 448l1 -3c-26 -48 -87 -79 -139 -89c54 -10 112 -37 138 -88c25 -51 37 -109 39 -166c1 -28 3 -53 6 -75c2 -21 8 -39 17 -52c8 -13 19 -19 35 -19h95v-19h-154c-55 0 -88 30 -95 84c-4 27 -5 53 -4 78c1 28 1 57 0 85c-3 94 -32 160 -139 169v10
c102 9 136 71 139 169c1 29 1 58 0 87c-1 25 0 50 4 79c6 54 41 83 95 83h154v-19h-95c-38 0 -48 -42 -51 -73c-3 -23 -5 -48 -6 -76c-2 -54 -14 -117 -40 -165z" />
    <glyph glyph-name="braceright" unicode="}" horiz-adv-x="340" 
d="M200 393l-3 5c22 -17 51 -27 86 -30v-10c-35 -3 -64 -13 -86 -30c-46 -35 -49 -86 -51 -139c-1 -28 -2 -57 -1 -85c1 -29 0 -56 -3 -79c-7 -54 -41 -85 -96 -85h-154v19h95c40 0 49 39 53 72c2 20 4 47 5 76c1 28 5 57 12 86c21 93 70 150 169 168
c-53 10 -111 40 -137 89s-39 110 -41 165c-1 29 -3 56 -5 76c-4 32 -12 72 -52 72h-95v19h154c54 0 88 -29 95 -83c3 -24 4 -50 3 -79s0 -60 1 -87c2 -54 6 -104 51 -140z" />
    <glyph glyph-name="asciitilde" unicode="~" horiz-adv-x="780" 
d="M740 387h18l-3 -7c-32 -79 -92 -187 -188 -187c-35 0 -68 12 -98 29l-211 123c-23 10 -44 17 -63 20c-18 2 -34 2 -45 0c-38 -7 -83 -75 -101 -105l-6 -9l-3 -5h-14l3 7c27 68 70 146 138 178c20 9 42 12 67 9c26 -3 52 -12 80 -28l211 -121c24 -10 45 -17 63 -20
c16 -3 31 -3 45 0c36 8 72 59 91 88l10 15l3 6s2 3 2 4z" />
    <glyph glyph-name="uni00A0" unicode="&#xa0;" horiz-adv-x="369" 
 />
    <glyph glyph-name="exclamdown" unicode="&#xa1;" horiz-adv-x="171" 
d="M83 390l-1 1c-32 0 -58 26 -58 58c0 31 26 59 58 59s60 -28 60 -60s-28 -58 -59 -58zM166 -176l5 -5l-6 -4l-140 -66v8c0 25 41 492 53 564l6 37l48 -464c3 -28 15 -53 34 -70z" />
    <glyph glyph-name="cent" unicode="&#xa2;" horiz-adv-x="541" 
d="M498 175l1 4l14 -10l-3 -4l-5 1l4 -3c-44 -59 -116 -94 -200 -97v-70h-20v70c-152 3 -262 112 -262 262c0 149 105 254 262 261v100h20v-100c82 1 148 -18 200 -59l5 -4l-78 -71l-3 5c-28 45 -75 80 -124 96v-459c7 -1 14 -2 21 -2c60 0 123 30 168 80zM289 561h-1
c-11 2 -22 3 -33 3c-85 0 -138 -67 -138 -175c0 -126 65 -261 172 -288v460z" />
    <glyph glyph-name="sterling" unicode="&#xa3;" 
d="M264 166v-1c-23 -54 -63 -99 -122 -137h429v-22h-524l1 83l4 1c52 13 90 43 113 89s20 97 -9 152l-13 20h-113v18h102c-36 63 -54 113 -55 153c0 12 2 25 6 40c3 15 10 31 21 48c41 69 115 95 192 101c167 15 253 -71 275 -98l3 -4l-95 -87l-2 9c-14 80 -83 163 -182 160
c-38 -1 -69 -10 -100 -28c-30 -18 -45 -46 -44 -83c0 -13 2 -31 7 -43c1 -5 3 -10 5 -16l3 -6c5 -15 11 -30 18 -44l4 -8c3 -6 5 -10 7 -12l1 -1c2 -4 5 -9 9 -17l3 -5c6 -11 10 -17 12 -20c1 -1 2 -3 3 -6c6 -11 12 -23 19 -33h184v-18h-174c2 -4 5 -9 9 -15
c27 -54 28 -111 3 -170z" />
    <glyph glyph-name="yen" unicode="&#xa5;" horiz-adv-x="824" 
d="M632 700l138 -1l-3 -10l-2 -1c-44 -17 -83 -48 -110 -88l-195 -290h217v-20h-221v-79h221v-20h-221v-110c0 -33 25 -60 58 -63h4v-11h-216v11h4c33 3 58 30 58 63v110h-215v20h215v70l-5 8h-210v20h198l-192 322c-20 34 -57 56 -93 56h-4l-2 11h243l2 -11h-6
c-16 0 -29 -7 -36 -19c-8 -14 -7 -32 3 -49l179 -299l199 296c10 15 14 32 11 47c-3 11 -9 20 -18 26l-3 2z" />
    <glyph glyph-name="copyright" unicode="&#xa9;" horiz-adv-x="744" 
d="M371 689c186 0 334 -148 334 -334s-148 -334 -334 -334s-333 148 -333 334s147 334 333 334zM371 672h-1c-178 0 -317 -141 -317 -318c0 -176 141 -317 317 -317c177 0 319 139 319 317s-140 318 -318 318zM211 173l2 -3c-46 42 -70 100 -71 172c-2 77 28 145 84 192
c47 39 108 61 169 61c68 0 173 -36 173 -115c0 -19 -6 -35 -17 -45c-9 -8 -21 -12 -34 -11c-17 2 -31 10 -40 23s-11 30 -6 48c6 22 4 40 -6 54c-12 16 -34 26 -63 28c-57 3 -104 -20 -139 -67c-34 -47 -46 -105 -35 -173c15 -90 74 -149 157 -157c87 -10 156 23 190 90
l9 -4c-28 -94 -109 -155 -207 -155c-64 0 -120 21 -166 62z" />
    <glyph glyph-name="uni00AD" unicode="&#xad;" horiz-adv-x="0" 
 />
    <glyph glyph-name="questiondown" unicode="&#xbf;" horiz-adv-x="519" 
d="M250 502l2 -1c-14 0 -27 5 -39 16c-11 12 -16 25 -16 39c0 29 24 56 54 56c15 0 28 -6 38 -18c11 -10 17 -23 17 -38c0 -30 -27 -54 -56 -54zM392 96l71 -75l-2 -3c-50 -73 -138 -116 -226 -116c-11 0 -20 1 -28 1h-5c-54 3 -112 29 -146 72c-65 84 -32 177 4 216
c13 14 27 27 42 38c13 11 30 23 47 35c19 13 33 23 41 30c52 37 99 85 117 148l5 17l5 -17c6 -20 21 -89 -23 -147c-7 -10 -23 -25 -43 -44c-44 -41 -110 -103 -133 -155c-10 -23 -17 -52 -18 -75c-1 -32 7 -56 24 -73c25 -24 59 -24 73 -23c64 5 159 95 192 165z" />
    <glyph glyph-name="Adieresis" unicode="&#xc4;" horiz-adv-x="840" 
d="M351 769c-27 0 -48 19 -48 44s21 44 48 44c28 0 50 -19 50 -44s-22 -44 -50 -44zM486 769c-28 0 -50 19 -50 44s22 44 50 44s50 -19 50 -44s-22 -44 -50 -44zM773 22l5 -1v-11h-243v12h5c17 0 32 8 42 22s12 31 6 47l-36 91h-348l-37 -88c-11 -27 1 -59 27 -72l3 -1v-9
h-134v10l3 1c40 16 71 47 88 87l25 58l193 471l-26 65h101l245 -627c13 -33 45 -55 81 -55zM381 614l-170 -414h333z" />
    <glyph glyph-name="Aring" unicode="&#xc5;" horiz-adv-x="840" 
d="M419 768c-59 0 -97 23 -97 59c0 35 38 58 97 58c58 0 97 -23 97 -58c0 -36 -38 -59 -97 -59zM419 784h2c26 0 42 17 42 44c0 26 -17 43 -43 43s-43 -17 -43 -43c0 -27 16 -44 42 -44zM773 22l5 -1v-11h-243v12h5c17 0 32 8 42 22s12 31 6 47l-36 91h-348l-37 -88
c-11 -27 1 -59 27 -72l3 -1v-9h-134v10l3 1c40 16 71 47 88 87l25 58l193 471l-26 65h101l245 -627c13 -33 45 -55 81 -55zM381 614l-170 -414h333z" />
    <glyph glyph-name="AE" unicode="&#xc6;" horiz-adv-x="1134" 
d="M1050 164l16 31l-43 -212l-37 28h-463v11h4c33 3 58 30 58 63v97h-377l-37 -88c-11 -27 1 -59 27 -72l3 -1v-9h-134v10l3 1c40 16 71 47 88 87l25 58l220 536h626l38 -185l-16 32c-43 83 -127 135 -220 135h-154v-319h155c45 0 85 27 102 69l1 3h10v-163h-10l-1 3
c-17 42 -58 69 -104 69h-154v-319h154c93 0 177 52 220 135zM347 522l-131 -322h369v484c-105 -2 -198 -65 -238 -162z" />
    <glyph glyph-name="Ccedilla" unicode="&#xc7;" horiz-adv-x="756" 
d="M673 185l5 17l9 -4v-3c-3 -9 -7 -22 -28 -56c-52 -94 -144 -136 -251 -136c-17 0 -34 1 -51 3l-29 -41h8c103 0 160 -33 160 -93c0 -68 -76 -99 -146 -99c-43 0 -74 11 -87 31c-8 13 -9 28 -2 43l1 3h96l-1 -5v-6c-1 -11 -3 -26 5 -35c6 -6 16 -9 30 -9c23 0 56 27 56 52
c0 46 -65 56 -119 56c-31 0 -48 -2 -67 -6l-12 -2l84 113c-162 33 -268 177 -273 340c-3 109 34 207 102 269c63 59 146 94 239 101c47 3 91 0 132 -9c50 -9 96 -30 113 -42l3 -2c11 -7 27 -18 41 -30l4 -4l-75 -68l-3 4c-52 71 -136 126 -226 126c-94 0 -168 -60 -201 -146
c-21 -53 -29 -113 -24 -179c13 -164 126 -297 297 -299c69 0 123 24 149 45c31 27 54 53 61 71z" />
    <glyph glyph-name="Egrave" unicode="&#xc8;" horiz-adv-x="572" 
d="M354 742h-1c-65 41 -117 88 -155 128l-8 8h90l1 -3c19 -49 52 -89 81 -126l6 -8h-13zM535 161l16 33l-43 -212l-37 28h-463v11h4c33 3 58 30 58 63v543c0 33 -25 60 -58 63h-4v11h506l38 -185l-16 32c-43 83 -127 135 -220 135h-154v-319h155c45 0 85 27 102 69l1 3h10
v-163h-10l-1 3c-17 42 -58 69 -104 69h-154v-319h154c93 0 177 52 220 135z" />
    <glyph glyph-name="Eacute" unicode="&#xc9;" horiz-adv-x="572" 
d="M239 742l-2 -1h-12l6 8c29 37 62 77 81 126l1 3h90l-8 -8c-38 -40 -91 -87 -156 -128zM535 161l16 33l-43 -212l-37 28h-463v11h4c33 3 58 30 58 63v543c0 33 -25 60 -58 63h-4v11h506l38 -185l-16 32c-43 83 -127 135 -220 135h-154v-319h155c45 0 85 27 102 69l1 3h10
v-163h-10l-1 3c-17 42 -58 69 -104 69h-154v-319h154c93 0 177 52 220 135z" />
    <glyph glyph-name="Ecircumflex" unicode="&#xca;" horiz-adv-x="572" 
d="M286 810l-136 -69h-13l149 139l151 -139h-13zM535 161l16 33l-43 -212l-37 28h-463v11h4c33 3 58 30 58 63v543c0 33 -25 60 -58 63h-4v11h506l38 -185l-16 32c-43 83 -127 135 -220 135h-154v-319h155c45 0 85 27 102 69l1 3h10v-163h-10l-1 3c-17 42 -58 69 -104 69
h-154v-319h154c93 0 177 52 220 135z" />
    <glyph glyph-name="Edieresis" unicode="&#xcb;" horiz-adv-x="662" 
d="M259 771c-27 0 -48 19 -48 44s21 44 48 44c28 0 50 -19 50 -44s-22 -44 -50 -44zM394 771c-28 0 -50 19 -50 44s22 44 50 44s50 -19 50 -44s-22 -44 -50 -44zM586 164l16 33l-43 -212l-37 28h-463v11h4c33 3 58 30 58 63v543c0 33 -25 60 -58 63h-4v11h506l38 -185
l-16 32c-43 83 -127 135 -220 135h-154v-319h155c45 0 85 27 102 69l1 3h10v-163h-10l-1 3c-17 42 -58 69 -104 69h-154v-319h154c93 0 177 52 220 135z" />
    <glyph glyph-name="Igrave" unicode="&#xcc;" horiz-adv-x="227" 
d="M142 742h-1c-65 41 -117 88 -155 128l-8 8h90l1 -3c19 -49 52 -89 81 -126l6 -8h-13zM216 689l-1 1c-33 -3 -58 -30 -58 -63v-543c0 -33 25 -60 58 -63h4v-11h-215v11h4c33 3 58 30 58 63v542c0 33 -25 60 -58 63h-4v11h216v-11h-4z" />
    <glyph glyph-name="Iacute" unicode="&#xcd;" horiz-adv-x="227" 
d="M99 742l-2 -1h-12l6 8c29 37 62 77 81 126l1 3h90l-8 -8c-38 -40 -91 -87 -156 -128zM216 689l-1 1c-33 -3 -58 -30 -58 -63v-543c0 -33 25 -60 58 -63h4v-11h-215v11h4c33 3 58 30 58 63v542c0 33 -25 60 -58 63h-4v11h216v-11h-4z" />
    <glyph glyph-name="Icircumflex" unicode="&#xce;" horiz-adv-x="411" 
d="M203 909l151 -139h-21l-130 78l-129 -78h-20zM160 703l89 1h63v-11h-4c-33 -3 -58 -30 -58 -63v-543c0 -33 25 -60 58 -63h4v-11h-215v11h4c33 3 58 30 58 63v542c0 33 -25 60 -58 63h-4v11h63z" />
    <glyph glyph-name="Idieresis" unicode="&#xcf;" horiz-adv-x="341" 
d="M101 770c-27 0 -48 19 -48 44s21 44 48 44c28 0 50 -19 50 -44s-22 -44 -50 -44zM236 770c-28 0 -50 19 -50 44s22 44 50 44s50 -19 50 -44s-22 -44 -50 -44zM125 703l89 1h63v-11h-4c-33 -3 -58 -30 -58 -63v-543c0 -33 25 -60 58 -63h4v-11h-215v11h4c33 3 58 30 58 63
v542c0 33 -25 60 -58 63h-4v11h63z" />
    <glyph glyph-name="Ntilde" unicode="&#xd1;" horiz-adv-x="831" 
d="M366 770c-41 0 -65 29 -75 88l-1 6h15l1 -3c10 -26 26 -38 53 -38c20 0 36 11 52 22c19 13 38 26 65 26c40 0 64 -29 75 -88l1 -6h-16l-1 3c-10 26 -26 38 -53 38c-20 0 -36 -11 -52 -22c-18 -13 -37 -26 -64 -26zM605 694v10h163v-10l-3 -1c-42 -17 -69 -58 -69 -104
v-610l-527 626v-482c0 -46 27 -87 69 -104l3 -1v-10h-163v10l3 1c42 17 69 58 69 104v503c-29 34 -50 54 -73 68l-15 9h158l3 -6c6 -12 15 -29 33 -48l421 -503v443c0 46 -27 87 -69 104z" />
    <glyph glyph-name="Ograve" unicode="&#xd2;" horiz-adv-x="801" 
d="M468 763h-1c-65 41 -117 88 -155 128l-8 8h90l1 -3c19 -49 52 -89 81 -126l6 -8h-13zM401 722c215 0 371 -153 371 -364s-156 -364 -371 -364s-371 153 -371 364s156 364 371 364zM440 20c143 0 239 114 239 284c0 190 -127 393 -316 393c-143 0 -239 -114 -239 -283
c0 -190 127 -394 316 -394z" />
    <glyph glyph-name="Oacute" unicode="&#xd3;" horiz-adv-x="801" 
d="M332 763l-2 -1h-12l6 8c29 37 62 77 81 126l1 3h90l-8 -8c-38 -40 -91 -87 -156 -128zM401 722c215 0 371 -153 371 -364s-156 -364 -371 -364s-371 153 -371 364s156 364 371 364zM440 20c143 0 239 114 239 284c0 190 -127 393 -316 393c-143 0 -239 -114 -239 -283
c0 -190 127 -394 316 -394z" />
    <glyph glyph-name="Ocircumflex" unicode="&#xd4;" horiz-adv-x="801" 
d="M400 831l-136 -69h-13l149 139l151 -139h-13zM401 722c215 0 371 -153 371 -364s-156 -364 -371 -364s-371 153 -371 364s156 364 371 364zM440 20c143 0 239 114 239 284c0 190 -127 393 -316 393c-143 0 -239 -114 -239 -283c0 -190 127 -394 316 -394z" />
    <glyph glyph-name="Otilde" unicode="&#xd5;" horiz-adv-x="801" 
d="M525 850c-10 -59 -34 -88 -75 -88c-27 0 -46 13 -64 26c-16 11 -32 22 -52 22c-27 0 -47 -12 -57 -38l-1 -3h-12l1 6c11 59 33 82 73 82c27 0 46 -13 65 -26c16 -11 32 -22 52 -22c27 0 48 18 58 44l1 3h12zM401 722c215 0 371 -153 371 -364s-156 -364 -371 -364
s-371 153 -371 364s156 364 371 364zM440 20c143 0 239 114 239 284c0 190 -127 393 -316 393c-143 0 -239 -114 -239 -283c0 -190 127 -394 316 -394z" />
    <glyph glyph-name="Odieresis" unicode="&#xd6;" horiz-adv-x="869" 
d="M366 770c-27 0 -48 19 -48 44s21 44 48 44c28 0 50 -19 50 -44s-22 -44 -50 -44zM501 770c-28 0 -50 19 -50 44s22 44 50 44s50 -19 50 -44s-22 -44 -50 -44zM435 725c215 0 371 -153 371 -364s-156 -364 -371 -364s-371 153 -371 364s156 364 371 364zM712 307
c0 190 -127 393 -316 393c-143 0 -239 -114 -239 -283c0 -190 127 -394 316 -394c143 0 239 114 239 284z" />
    <glyph glyph-name="multiply" unicode="&#xd7;" horiz-adv-x="423" 
d="M404 488l-172 -174l171 -172l-19 -20l-173 173l-170 -170l-20 20l170 170l-171 171l20 20l171 -171l173 173z" />
    <glyph glyph-name="Oslash" unicode="&#xd8;" horiz-adv-x="869" 
d="M613 684c118 -59 193 -177 193 -323c0 -211 -156 -364 -371 -364c-54 0 -105 10 -150 28l-40 -80l-26 12l39 79c-119 58 -195 177 -195 324c0 211 156 364 371 364c55 0 107 -10 153 -29l37 74l25 -12zM289 97l273 544c-47 37 -103 59 -166 59
c-143 0 -239 -114 -239 -283c0 -119 49 -243 132 -320zM584 622l-271 -543c46 -35 101 -56 162 -56c143 0 239 114 239 284c0 117 -48 239 -130 315z" />
    <glyph glyph-name="Ugrave" unicode="&#xd9;" horiz-adv-x="675" 
d="M405 742h-1c-65 41 -117 88 -155 128l-8 8h90l1 -3c19 -49 52 -89 81 -126l6 -8h-13zM7 689v11h216v-11h-4c-33 -3 -58 -30 -58 -63v-361c0 -153 80 -248 208 -248c127 0 206 95 206 248v327c-2 43 -29 81 -70 98l-3 1v10h161v-10l-3 -1c-42 -17 -69 -57 -69 -102v-307
c-1 -187 -91 -286 -261 -286c-171 0 -261 99 -261 286v345c0 33 -25 60 -58 63h-4z" />
    <glyph glyph-name="Uacute" unicode="&#xda;" horiz-adv-x="675" 
d="M317 742l-2 -1h-12l6 8c29 37 62 77 81 126l1 3h90l-8 -8c-38 -40 -91 -87 -156 -128zM7 689v11h216v-11h-4c-33 -3 -58 -30 -58 -63v-361c0 -153 80 -248 208 -248c127 0 206 95 206 248v327c-2 43 -29 81 -70 98l-3 1v10h161v-10l-3 -1c-42 -17 -69 -57 -69 -102v-307
c-1 -187 -91 -286 -261 -286c-171 0 -261 99 -261 286v345c0 33 -25 60 -58 63h-4z" />
    <glyph glyph-name="Ucircumflex" unicode="&#xdb;" horiz-adv-x="780" 
d="M388 847l-129 -78h-20l149 139l151 -139h-21zM61 692v11h216v-11h-4c-33 -3 -58 -30 -58 -63v-361c0 -153 80 -248 208 -248c127 0 206 95 206 248v326c-2 43 -29 81 -70 98l-3 1v10h161v-10l-3 -1c-42 -17 -69 -57 -69 -102v-306c-1 -187 -91 -286 -261 -286
c-171 0 -261 99 -261 286v345c0 33 -25 60 -58 63h-4z" />
    <glyph glyph-name="Udieresis" unicode="&#xdc;" horiz-adv-x="780" 
d="M321 769c-27 0 -48 19 -48 44s21 44 48 44c28 0 50 -19 50 -44s-22 -44 -50 -44zM456 769c-28 0 -50 19 -50 44s22 44 50 44s50 -19 50 -44s-22 -44 -50 -44zM61 692v11h216v-11h-4c-33 -3 -58 -30 -58 -63v-361c0 -153 80 -248 208 -248c127 0 206 95 206 248v326
c-2 43 -29 81 -70 98l-3 1v10h161v-10l-3 -1c-42 -17 -69 -57 -69 -102v-306c-1 -187 -91 -286 -261 -286c-171 0 -261 99 -261 286v345c0 33 -25 60 -58 63h-4z" />
    <glyph glyph-name="Yacute" unicode="&#xdd;" horiz-adv-x="683" 
d="M329 742l-2 -1h-12l6 8c29 37 62 77 81 126l1 3h90l-8 -8c-38 -40 -91 -87 -156 -128zM555 700l136 -2l-2 -10l-2 -1c-44 -17 -83 -48 -110 -88l-198 -295v-224c0 -33 25 -60 58 -63h4v-11h-216v11h4c33 3 58 30 58 63v201l-209 350c-20 34 -57 56 -93 56h-4l-2 11h243
l2 -11h-6c-16 0 -29 -7 -36 -19c-8 -14 -7 -32 3 -49l179 -299l199 296c10 15 14 32 11 47c-3 11 -9 20 -18 26l-3 2z" />
    <glyph glyph-name="Thorn" unicode="&#xde;" horiz-adv-x="715" 
d="M391 570l-1 -1c162 0 263 -74 263 -194c0 -143 -122 -243 -297 -243h-143v-46c0 -33 25 -60 58 -63h4v-11h-216v11h4c33 3 58 30 58 63v543c0 33 -25 60 -58 63h-4v11h216v-11h-4c-33 -3 -58 -30 -58 -63v-59h178zM339 550h-128v-380c49 -13 102 -20 150 -20
c125 0 194 68 194 191c0 103 -26 209 -216 209z" />
    <glyph glyph-name="germandbls" unicode="&#xdf;" horiz-adv-x="531" 
d="M310 417l2 -3c108 -21 167 -92 167 -203c0 -134 -89 -214 -238 -214h-5v13h5c93 0 153 79 153 201s-58 198 -152 198h-5v13h5c90 0 137 66 137 132c0 99 -40 149 -118 149c-109 0 -121 -114 -121 -163v-532h-86v490c0 139 73 219 201 219c127 0 200 -56 200 -153
c0 -75 -55 -129 -145 -147z" />
    <glyph glyph-name="agrave" unicode="&#xe0;" horiz-adv-x="567" 
d="M338 560h-1c-65 41 -117 88 -155 128l-8 8h90l1 -3c19 -49 52 -89 81 -126l6 -8h-13zM435 156l-1 -3v22l1 57c-77 -173 -167 -235 -227 -235c-71 0 -129 30 -159 81c-25 43 -27 95 -5 136c53 96 147 104 238 112c53 5 108 10 154 33c-1 78 -28 119 -105 119
s-170 -40 -226 -67l-3 -1l-79 72l8 3c65 23 137 36 208 38c34 1 68 -4 102 -14c89 -31 174 -83 174 -189v-236c0 -8 4 -15 10 -19s14 -5 21 -2l4 -9l-115 -61v163zM152 267c-34 -24 -36 -71 -27 -107c12 -43 46 -89 95 -94c101 -10 163 113 186 159c2 4 4 7 5 10
c16 30 24 57 25 82v14c-48 -18 -91 -20 -132 -22c-52 -3 -101 -6 -152 -42z" />
    <glyph glyph-name="aacute" unicode="&#xe1;" horiz-adv-x="567" 
d="M248 560l-2 -1h-12l6 8c29 37 62 77 81 126l1 3h90l-8 -8c-38 -40 -91 -87 -156 -128zM435 156l-1 -3v22l1 57c-77 -173 -167 -235 -227 -235c-71 0 -129 30 -159 81c-25 43 -27 95 -5 136c53 96 147 104 238 112c53 5 108 10 154 33c-1 78 -28 119 -105 119
s-170 -40 -226 -67l-3 -1l-79 72l8 3c65 23 137 36 208 38c34 1 68 -4 102 -14c89 -31 174 -83 174 -189v-236c0 -8 4 -15 10 -19s14 -5 21 -2l4 -9l-115 -61v163zM152 267c-34 -24 -36 -71 -27 -107c12 -43 46 -89 95 -94c101 -10 163 113 186 159c2 4 4 7 5 10
c16 30 24 57 25 82v14c-48 -18 -91 -20 -132 -22c-52 -3 -101 -6 -152 -42z" />
    <glyph glyph-name="acircumflex" unicode="&#xe2;" horiz-adv-x="567" 
d="M284 628l-136 -69h-13l149 139l151 -139h-13zM435 156l-1 -3v22l1 57c-77 -173 -167 -235 -227 -235c-71 0 -129 30 -159 81c-25 43 -27 95 -5 136c53 96 147 104 238 112c53 5 108 10 154 33c-1 78 -28 119 -105 119s-170 -40 -226 -67l-3 -1l-79 72l8 3
c65 23 137 36 208 38c34 1 68 -4 102 -14c89 -31 174 -83 174 -189v-236c0 -8 4 -15 10 -19s14 -5 21 -2l4 -9l-115 -61v163zM152 267c-34 -24 -36 -71 -27 -107c12 -43 46 -89 95 -94c101 -10 163 113 186 159c2 4 4 7 5 10c16 30 24 57 25 82v14c-48 -18 -91 -20 -132 -22
c-52 -3 -101 -6 -152 -42z" />
    <glyph glyph-name="atilde" unicode="&#xe3;" horiz-adv-x="567" 
d="M409 647c-10 -59 -34 -88 -75 -88c-27 0 -46 13 -64 26c-16 11 -32 22 -52 22c-27 0 -47 -12 -57 -38l-1 -3h-12l1 6c11 59 33 82 73 82c27 0 46 -13 65 -26c16 -11 32 -22 52 -22c27 0 48 18 58 44l1 3h12zM435 156l-1 -3v22l1 57c-77 -173 -167 -235 -227 -235
c-71 0 -129 30 -159 81c-25 43 -27 95 -5 136c53 96 147 104 238 112c53 5 108 10 154 33c-1 78 -28 119 -105 119s-170 -40 -226 -67l-3 -1l-79 72l8 3c65 23 137 36 208 38c34 1 68 -4 102 -14c89 -31 174 -83 174 -189v-236c0 -8 4 -15 10 -19s14 -5 21 -2l4 -9l-115 -61
v163zM152 267c-34 -24 -36 -71 -27 -107c12 -43 46 -89 95 -94c101 -10 163 113 186 159c2 4 4 7 5 10c16 30 24 57 25 82v14c-48 -18 -91 -20 -132 -22c-52 -3 -101 -6 -152 -42z" />
    <glyph glyph-name="adieresis" unicode="&#xe4;" horiz-adv-x="637" 
d="M252 551c-27 0 -48 19 -48 44s21 44 48 44c28 0 50 -19 50 -44s-22 -44 -50 -44zM387 551c-28 0 -50 19 -50 44s22 44 50 44s50 -19 50 -44s-22 -44 -50 -44zM466 156l-1 -3v22l1 57c-77 -173 -167 -235 -227 -235c-71 0 -129 30 -159 81c-25 43 -27 95 -5 136
c53 96 147 104 238 112c53 5 108 10 154 33c-1 78 -28 119 -105 119s-170 -40 -226 -67l-3 -1l-79 72l8 3c65 23 137 36 208 38c34 1 68 -4 102 -14c89 -31 174 -83 174 -189v-236c0 -8 4 -15 10 -19s14 -5 21 -2l4 -9l-115 -61v163zM183 267c-34 -24 -36 -71 -27 -107
c12 -43 46 -89 95 -94c101 -10 163 113 186 159c2 4 4 7 5 10c16 30 24 57 25 82v14c-48 -18 -91 -20 -132 -22c-52 -3 -101 -6 -152 -42z" />
    <glyph glyph-name="aring" unicode="&#xe5;" horiz-adv-x="637" 
d="M320 550c-59 0 -97 23 -97 59c0 35 38 58 97 58c58 0 97 -23 97 -58c0 -36 -38 -59 -97 -59zM320 566h2c26 0 42 17 42 44c0 26 -17 43 -43 43s-43 -17 -43 -43c0 -27 16 -44 42 -44zM466 156l-1 -3v22l1 57c-77 -173 -167 -235 -227 -235c-71 0 -129 30 -159 81
c-25 43 -27 95 -5 136c53 96 147 104 238 112c53 5 108 10 154 33c-1 78 -28 119 -105 119s-170 -40 -226 -67l-3 -1l-79 72l8 3c65 23 137 36 208 38c34 1 68 -4 102 -14c89 -31 174 -83 174 -189v-236c0 -8 4 -15 10 -19s14 -5 21 -2l4 -9l-115 -61v163zM183 267
c-34 -24 -36 -71 -27 -107c12 -43 46 -89 95 -94c101 -10 163 113 186 159c2 4 4 7 5 10c16 30 24 57 25 82v14c-48 -18 -91 -20 -132 -22c-52 -3 -101 -6 -152 -42z" />
    <glyph glyph-name="ae" unicode="&#xe6;" horiz-adv-x="1046" 
d="M983 375l-408 -194c33 -92 98 -152 174 -161c70 -8 125 29 150 101l1 3h66l-5 -8c-47 -75 -130 -118 -228 -118c-110 0 -201 55 -243 147l-3 9c-10 24 -16 49 -19 75c-76 -170 -165 -232 -225 -232c-71 0 -129 30 -159 81c-25 43 -27 95 -5 136c53 96 147 104 238 112
c53 5 108 10 154 33c-1 78 -28 119 -105 119s-170 -40 -226 -67l-3 -1l-79 72l8 3c65 23 137 36 208 38c34 1 68 -4 102 -14c53 -18 107 -45 142 -90c47 64 125 104 218 104c106 0 196 -52 240 -138l4 -4zM556 344l-1 -1c-5 -48 0 -98 15 -145l320 152
c-34 87 -98 144 -171 152c-6 1 -12 1 -18 1c-91 0 -136 -77 -145 -159zM446 237c16 30 24 57 25 82v14c-48 -18 -91 -20 -132 -22c-52 -3 -101 -6 -152 -42c-34 -24 -36 -71 -27 -107c12 -43 46 -89 95 -94c101 -10 163 113 186 159c2 4 4 7 5 10z" />
    <glyph glyph-name="ccedilla" unicode="&#xe7;" horiz-adv-x="595" 
d="M523 111l-2 5l14 -10l-4 -6c-44 -59 -118 -94 -203 -97l-27 -39h8c103 0 160 -33 160 -93c0 -68 -76 -99 -146 -99c-43 0 -74 11 -87 31c-8 13 -9 28 -2 43l1 3h96l-1 -5v-6c-1 -11 -3 -26 5 -35c6 -6 16 -9 30 -9c23 0 56 27 56 52c0 46 -64 56 -118 56
c-31 0 -48 -2 -67 -6l-12 -2l80 107c-148 8 -250 114 -250 261c0 150 106 255 264 261c90 4 161 -15 217 -59l5 -4l-78 -71l-3 5c-39 62 -112 105 -178 105c-85 0 -138 -67 -138 -175c0 -141 81 -293 212 -293c60 0 123 30 168 80z" />
    <glyph glyph-name="egrave" unicode="&#xe8;" horiz-adv-x="555" 
d="M320 560h-1c-65 41 -117 88 -155 128l-8 8h90l1 -3c19 -49 52 -89 81 -126l6 -8h-13zM538 375l-6 -4l-400 -190c33 -92 98 -152 174 -161c70 -8 125 29 150 101l1 3h66l-5 -8c-47 -75 -130 -118 -228 -118c-110 0 -201 55 -243 147l-3 9c-14 33 -21 69 -21 107
c0 152 113 262 268 262c106 0 196 -52 240 -138l4 -4zM113 344l-1 -1c-5 -48 0 -98 15 -145l320 152c-34 87 -98 144 -171 152c-6 1 -12 1 -18 1c-91 0 -136 -77 -145 -159z" />
    <glyph glyph-name="eacute" unicode="&#xe9;" horiz-adv-x="555" 
d="M220 560l-2 -1h-12l6 8c29 37 62 77 81 126l1 3h90l-8 -8c-38 -40 -91 -87 -156 -128zM538 375l-6 -4l-400 -190c33 -92 98 -152 174 -161c70 -8 125 29 150 101l1 3h66l-5 -8c-47 -75 -130 -118 -228 -118c-110 0 -201 55 -243 147l-3 9c-14 33 -21 69 -21 107
c0 152 113 262 268 262c106 0 196 -52 240 -138l4 -4zM113 344l-1 -1c-5 -48 0 -98 15 -145l320 152c-34 87 -98 144 -171 152c-6 1 -12 1 -18 1c-91 0 -136 -77 -145 -159z" />
    <glyph glyph-name="ecircumflex" unicode="&#xea;" horiz-adv-x="555" 
d="M278 628l-136 -69h-13l149 139l151 -139h-13zM538 375l-6 -4l-400 -190c33 -92 98 -152 174 -161c70 -8 125 29 150 101l1 3h66l-5 -8c-47 -75 -130 -118 -228 -118c-110 0 -201 55 -243 147l-3 9c-14 33 -21 69 -21 107c0 152 113 262 268 262c106 0 196 -52 240 -138
l4 -4zM113 344l-1 -1c-5 -48 0 -98 15 -145l320 152c-34 87 -98 144 -171 152c-6 1 -12 1 -18 1c-91 0 -136 -77 -145 -159z" />
    <glyph glyph-name="edieresis" unicode="&#xeb;" horiz-adv-x="623" 
d="M241 553c-27 0 -48 19 -48 44s21 44 48 44c28 0 50 -19 50 -44s-22 -44 -50 -44zM376 553c-28 0 -50 19 -50 44s22 44 50 44s50 -19 50 -44s-22 -44 -50 -44zM568 375l-406 -193c33 -92 98 -152 174 -161c70 -8 125 29 150 101l1 3h66l-5 -8c-47 -75 -130 -118 -228 -118
c-110 0 -201 55 -243 147l-3 9c-14 33 -21 69 -21 107c0 152 113 262 268 262c106 0 196 -52 240 -138l1 -2l3 -3zM143 345l-1 -1c-5 -48 0 -98 15 -145l320 152c-34 87 -98 144 -171 152c-6 1 -12 1 -18 1c-91 0 -136 -77 -145 -159z" />
    <glyph glyph-name="igrave" unicode="&#xec;" horiz-adv-x="221" 
d="M148 560h-1c-65 41 -117 88 -155 128l-8 8h90l1 -3c19 -49 52 -89 81 -126l6 -8h-13zM216 20h5v-11h-205v11h4c33 3 58 30 58 63v352c0 8 -4 15 -10 19s-14 5 -21 2l-37 -14v14l148 70v-443c0 -33 25 -60 58 -63z" />
    <glyph glyph-name="iacute" unicode="&#xed;" horiz-adv-x="221" 
d="M95 560l-2 -1h-12l6 8c29 37 62 77 81 126l1 3h90l-8 -8c-38 -40 -91 -87 -156 -128zM216 20h5v-11h-205v11h4c33 3 58 30 58 63v352c0 8 -4 15 -10 19s-14 5 -21 2l-37 -14v14l148 70v-443c0 -33 25 -60 58 -63z" />
    <glyph glyph-name="icircumflex" unicode="&#xee;" horiz-adv-x="403" 
d="M200 692l151 -139h-21l-130 78l-129 -78h-20zM243 84l1 -1c0 -33 25 -60 58 -63h4v-11h-205v11h4c33 3 58 30 58 63v353c0 8 -4 15 -10 19s-14 5 -21 2l-37 -14v14l148 70v-443z" />
    <glyph glyph-name="idieresis" unicode="&#xef;" horiz-adv-x="333" 
d="M99 554c-27 0 -48 19 -48 44s21 44 48 44c28 0 50 -19 50 -44s-22 -44 -50 -44zM234 554c-28 0 -50 19 -50 44s22 44 50 44s50 -19 50 -44s-22 -44 -50 -44zM209 84h1c0 -33 25 -60 58 -63h4v-11h-205v11h4c33 3 58 30 58 63v352c0 8 -4 15 -10 19s-14 5 -21 2l-37 -14
v14l148 70v-443z" />
    <glyph glyph-name="eth" unicode="&#xf0;" horiz-adv-x="658" 
d="M521 95c0 -28 8 -55 23 -79l5 -8h-108l-1 4c-3 13 -5 22 -6 27c-33 -33 -84 -37 -126 -37c-151 0 -253 98 -253 243c0 135 82 280 312 280c28 0 52 -2 74 -7v61l-77 -45l-9 15l86 51v66c0 8 -4 15 -10 19s-14 5 -21 2l-37 -14v14l148 70v-110l72 42l9 -15l-81 -48v-531z
M135 298l2 1c0 -150 93 -263 216 -263c47 0 89 19 89 74v334c-25 25 -68 54 -134 54c-110 0 -173 -73 -173 -200z" />
    <glyph glyph-name="ntilde" unicode="&#xf1;" horiz-adv-x="706" 
d="M304 552c-41 0 -65 29 -75 88l-1 6h15l1 -3c10 -26 26 -38 53 -38c20 0 36 11 52 22c19 13 38 26 65 26c40 0 64 -29 75 -88l1 -6h-16l-1 3c-10 26 -26 38 -53 38c-20 0 -36 -11 -52 -22c-18 -13 -37 -26 -64 -26zM644 20l10 -3v-11h-206v11h4c33 3 58 30 58 63v263
c0 118 -71 136 -113 136c-56 0 -101 -30 -153 -65l-12 -8v-326c0 -33 25 -60 58 -63h4v-11h-205v11h4c33 3 58 30 58 63v310c0 13 -3 37 -9 51c-9 19 -32 28 -51 20l-24 -10l-7 12l124 60l2 -3c23 -24 39 -49 43 -90c60 45 136 92 214 92c95 0 143 -62 143 -184v-255
c0 -33 25 -60 58 -63z" />
    <glyph glyph-name="ograve" unicode="&#xf2;" 
d="M362 560h-1c-65 41 -117 88 -155 128l-8 8h90l1 -3c19 -49 52 -89 81 -126l6 -8h-13zM294 524c155 0 268 -110 268 -262s-113 -262 -268 -262s-268 110 -268 262s113 262 268 262zM117 324c0 -142 89 -300 217 -300c85 0 138 68 138 177c0 141 -89 298 -217 298
c-85 0 -138 -67 -138 -175z" />
    <glyph glyph-name="oacute" unicode="&#xf3;" 
d="M226 560l-2 -1h-12l6 8c29 37 62 77 81 126l1 3h90l-8 -8c-38 -40 -91 -87 -156 -128zM294 524c155 0 268 -110 268 -262s-113 -262 -268 -262s-268 110 -268 262s113 262 268 262zM117 324c0 -142 89 -300 217 -300c85 0 138 68 138 177c0 141 -89 298 -217 298
c-85 0 -138 -67 -138 -175z" />
    <glyph glyph-name="ocircumflex" unicode="&#xf4;" 
d="M295 628l-136 -69h-13l149 139l151 -139h-13zM294 524c155 0 268 -110 268 -262s-113 -262 -268 -262s-268 110 -268 262s113 262 268 262zM117 324c0 -142 89 -300 217 -300c85 0 138 68 138 177c0 141 -89 298 -217 298c-85 0 -138 -67 -138 -175z" />
    <glyph glyph-name="otilde" unicode="&#xf5;" 
d="M420 647c-10 -59 -34 -88 -75 -88c-27 0 -46 13 -64 26c-16 11 -32 22 -52 22c-27 0 -47 -12 -57 -38l-1 -3h-12l1 6c11 59 33 82 73 82c27 0 46 -13 65 -26c16 -11 32 -22 52 -22c27 0 48 18 58 44l1 3h12zM294 524c155 0 268 -110 268 -262s-113 -262 -268 -262
s-268 110 -268 262s113 262 268 262zM117 324c0 -142 89 -300 217 -300c85 0 138 68 138 177c0 141 -89 298 -217 298c-85 0 -138 -67 -138 -175z" />
    <glyph glyph-name="odieresis" unicode="&#xf6;" horiz-adv-x="646" 
d="M255 553c-27 0 -48 19 -48 44s21 44 48 44c28 0 50 -19 50 -44s-22 -44 -50 -44zM390 553c-28 0 -50 19 -50 44s22 44 50 44s50 -19 50 -44s-22 -44 -50 -44zM323 524c155 0 268 -110 268 -262s-113 -262 -268 -262s-268 110 -268 262s113 262 268 262zM146 324
c0 -142 89 -300 217 -300c85 0 138 68 138 177c0 141 -89 298 -217 298c-85 0 -138 -67 -138 -175z" />
    <glyph glyph-name="divide" unicode="&#xf7;" horiz-adv-x="621" 
d="M340 414h-57v60h57v-60zM567 300h-513v28h513v-28zM340 143h-57v60h57v-60z" />
    <glyph glyph-name="oslash" unicode="&#xf8;" horiz-adv-x="646" 
d="M519 446c45 -46 72 -110 72 -184c0 -152 -113 -262 -268 -262c-73 0 -136 24 -183 65l-42 -42l-13 13l41 41c-45 46 -72 110 -72 184c0 152 113 262 268 262c73 0 136 -24 183 -65l42 42l13 -13zM444 397l1 -1c-39 61 -95 104 -162 104c-85 0 -138 -67 -138 -175
c0 -62 17 -127 47 -180zM202 128l-1 1c39 -61 95 -104 162 -104c85 0 138 68 138 177c0 61 -17 125 -47 178z" />
    <glyph glyph-name="ugrave" unicode="&#xf9;" horiz-adv-x="544" 
d="M315 560h-1c-65 41 -117 88 -155 128l-8 8h90l1 -3c19 -49 52 -89 81 -126l6 -8h-13zM517 58l-110 -51v103c-61 -46 -135 -99 -214 -99c-95 0 -143 62 -143 184v241c0 8 -9 24 -23 34l-7 5l110 52v-340c0 -118 71 -136 113 -136c49 0 88 28 133 60c10 7 20 14 31 21v304
c0 8 -9 24 -23 34l-7 5l110 52v-430c0 -8 9 -24 23 -34z" />
    <glyph glyph-name="uacute" unicode="&#xfa;" horiz-adv-x="544" 
d="M246 560l-2 -1h-12l6 8c29 37 62 77 81 126l1 3h90l-8 -8c-38 -40 -91 -87 -156 -128zM517 58l-110 -51v103c-61 -46 -135 -99 -214 -99c-95 0 -143 62 -143 184v241c0 8 -9 24 -23 34l-7 5l110 52v-340c0 -118 71 -136 113 -136c49 0 88 28 133 60c10 7 20 14 31 21v304
c0 8 -9 24 -23 34l-7 5l110 52v-430c0 -8 9 -24 23 -34z" />
    <glyph glyph-name="ucircumflex" unicode="&#xfb;" horiz-adv-x="607" 
d="M302 632l-129 -78h-20l149 139l151 -139h-21zM551 58l-110 -51v103c-61 -46 -135 -99 -214 -99c-95 0 -143 62 -143 184v241c0 8 -9 24 -23 34l-7 5l110 52v-340c0 -118 71 -136 113 -136c49 0 88 28 133 60c10 7 20 14 31 21v304c0 8 -9 24 -23 34l-7 5l110 52v-430
c0 -8 9 -24 23 -34z" />
    <glyph glyph-name="udieresis" unicode="&#xfc;" horiz-adv-x="607" 
d="M235 554c-27 0 -48 19 -48 44s21 44 48 44c28 0 50 -19 50 -44s-22 -44 -50 -44zM370 554c-28 0 -50 19 -50 44s22 44 50 44s50 -19 50 -44s-22 -44 -50 -44zM551 58l-110 -51v103c-61 -46 -135 -99 -214 -99c-95 0 -143 62 -143 184v241c0 8 -9 24 -23 34l-7 5l110 52
v-340c0 -118 71 -136 113 -136c49 0 88 28 133 60c10 7 20 14 31 21v304c0 8 -9 24 -23 34l-7 5l110 52v-430c0 -8 9 -24 23 -34z" />
    <glyph glyph-name="yacute" unicode="&#xfd;" horiz-adv-x="504" 
d="M247 560l-2 -1h-12l6 8c29 37 62 77 81 126l1 3h90l-8 -8c-38 -40 -91 -87 -156 -128zM350 514l-3 12h154v-10l-3 -1c-28 -11 -53 -26 -92 -118l-178 -411c-37 -86 -121 -141 -215 -141h-8v85l5 -1c87 -10 172 33 217 106l-189 416l-38 74h202v-11l-4 -1
c-31 -4 -50 -14 -59 -30c-10 -18 -7 -46 10 -83l89 -196l35 -72l121 279c11 30 13 52 6 68c-8 19 -28 27 -47 34z" />
    <glyph glyph-name="thorn" unicode="&#xfe;" horiz-adv-x="662" 
d="M350 522l-1 1c160 -11 263 -118 256 -266c-7 -154 -130 -259 -298 -255c-37 1 -72 7 -104 18v-162c0 -8 9 -24 23 -34l7 -5l-110 -52v898c0 8 -4 15 -10 19s-14 5 -21 2l-37 -14v14l148 70v-239c48 7 97 9 147 5zM203 103c29 -35 78 -76 148 -78c91 -2 156 68 161 175
c4 93 -27 187 -81 245c-34 37 -75 57 -119 58c-38 1 -75 -7 -109 -25v-375z" />
    <glyph glyph-name="ydieresis" unicode="&#xff;" horiz-adv-x="612" 
d="M239 554c-27 0 -48 19 -48 44s21 44 48 44c28 0 50 -19 50 -44s-22 -44 -50 -44zM374 554c-28 0 -50 19 -50 44s22 44 50 44s50 -19 50 -44s-22 -44 -50 -44zM402 524l151 1v-10l-3 -1c-28 -11 -53 -26 -92 -118l-177 -411c-37 -86 -121 -141 -215 -141h-8v85l5 -1
c87 -10 172 33 217 106l-189 416l-38 74h202v-11l-4 -1c-31 -4 -50 -14 -59 -30c-10 -18 -7 -46 10 -83l89 -196l35 -72l120 279c11 30 13 53 6 69c-8 19 -28 27 -47 34l-3 1v10z" />
    <glyph glyph-name="Lslash" unicode="&#x141;" horiz-adv-x="715" 
d="M655 195l-43 -210l-37 28h-464v11h4c33 3 58 30 58 63v169l-97 -65l-16 23l113 75v340c0 33 -25 60 -58 63h-4v11h216v-11h-4c-33 -3 -58 -30 -58 -63v-281l142 94l15 -23l-157 -105v-286h154c93 0 177 52 220 135z" />
    <glyph glyph-name="lslash" unicode="&#x142;" horiz-adv-x="347" 
d="M216 84h1c0 -33 25 -60 58 -63h4v-11h-205v11h4c33 3 58 30 58 63v265l-77 -45l-9 15l86 51v296c0 8 -4 15 -10 19s-14 5 -21 2l-37 -14v14l148 70v-340l72 42l9 -15l-81 -48v-312z" />
    <glyph glyph-name="OE" unicode="&#x152;" horiz-adv-x="1282" 
d="M1195 164l16 32l-43 -212l-37 28h-463v11h4c33 3 58 30 58 63v39c-66 -79 -168 -127 -288 -127c-215 0 -371 153 -371 364s156 364 371 364c120 0 222 -48 288 -127v31c0 33 -25 60 -58 63h-4v11h506l38 -185l-16 32c-43 83 -127 135 -220 135h-154v-319h155
c45 0 85 27 102 69l1 3h10v-163h-10l-1 3c-17 42 -58 69 -104 69h-154v-319h154c93 0 177 52 220 135zM402 700c-143 0 -239 -114 -239 -283c0 -190 127 -394 316 -394c143 0 239 114 239 284c0 190 -127 393 -316 393z" />
    <glyph glyph-name="oe" unicode="&#x153;" horiz-adv-x="1080" 
d="M1018 375l-4 -3l-400 -190c33 -92 98 -152 174 -161c70 -8 125 29 150 101l1 3h66l-5 -8c-47 -75 -130 -118 -228 -118c-94 0 -174 40 -222 108c-47 -67 -126 -108 -221 -108c-155 0 -268 110 -268 262s113 262 268 262c95 0 174 -41 221 -108c47 67 126 108 221 108
c106 0 196 -52 240 -138l4 -4zM593 322c5 -26 6 -51 6 -78c3 -15 6 -30 10 -44l320 152c-34 87 -98 144 -171 152c-6 1 -12 1 -18 1c-98 0 -147 -94 -147 -183zM507 241c-15 129 -99 258 -215 258c-85 0 -138 -67 -138 -174c0 -142 89 -300 217 -300c85 0 138 68 138 177
c0 8 0 16 -1 24c-1 5 -1 10 -1 15z" />
    <glyph glyph-name="Scaron" unicode="&#x160;" horiz-adv-x="636" 
d="M469 902l-151 -139l-149 139h20l129 -78l130 78h21zM354 403v-4c150 -34 223 -99 223 -199c0 -103 -82 -207 -265 -207c-97 0 -185 31 -248 87l-4 4l79 72l3 -6c35 -78 125 -135 215 -135c132 0 142 111 142 145c0 104 -77 130 -194 157c-153 37 -231 109 -231 215
c0 116 98 191 250 191c98 0 174 -29 239 -91l4 -4l-82 -74l-3 7c-30 81 -116 142 -200 142c-81 0 -127 -47 -127 -129c0 -116 103 -149 199 -171z" />
    <glyph glyph-name="scaron" unicode="&#x161;" horiz-adv-x="509" 
d="M404 690l-151 -139l-149 139h20l129 -78l130 78h21zM274 308l-2 -1c180 -29 182 -118 183 -147c-2 -96 -82 -158 -204 -158c-99 0 -163 39 -193 62l-5 4l76 70l3 -5c43 -65 106 -109 157 -110c62 0 90 33 90 94c0 62 -35 93 -120 107c-112 20 -176 65 -190 134
c-3 16 -3 33 1 49c16 72 90 119 188 119c69 0 145 -24 190 -59l5 -4l-74 -68l-3 5c-43 62 -104 104 -152 104c-76 0 -84 -63 -84 -90c0 -74 68 -95 134 -106z" />
    <glyph glyph-name="Zcaron" unicode="&#x17d;" horiz-adv-x="739" 
d="M525 909l-151 -139l-149 139h20l129 -78l130 78h21zM661 164l16 34l-38 -185h-579l22 10c31 13 66 61 120 146l326 518h-179c-93 0 -177 -52 -220 -135l-16 -32l38 185h518v-13l-4 -1c-4 -1 -8 -2 -12 -4v-1h-1c-21 -10 -41 -38 -87 -111l-341 -546h217
c93 0 177 52 220 135z" />
    <glyph glyph-name="zcaron" unicode="&#x17e;" horiz-adv-x="587" 
d="M454 690l-151 -139l-149 139h20l129 -78l130 78h21zM528 513l1 -1c-29 -6 -54 -35 -106 -123l-212 -364h104c69 0 147 39 203 101l10 11l-15 -130h-458l22 10c33 14 76 67 128 157l192 332h-101c-69 0 -147 -39 -203 -101l-10 -11l15 130h434v-10z" />
    <glyph glyph-name="quoteleft" unicode="&#x2018;" horiz-adv-x="148" 
d="M96 707l1 -3c25 -10 38 -29 38 -55c0 -32 -30 -58 -61 -58c-30 0 -58 28 -58 58c-1 9 0 20 2 36c1 13 9 34 23 62c13 27 32 50 59 71l1 1h18l-8 -8c-2 -2 -4 -4 -6 -5s-6 -5 -11 -10l-9 -9s-5 -6 -7 -8c-4 -5 -8 -11 -11 -18s-5 -13 -4 -19c0 -16 20 -30 33 -35z" />
    <glyph glyph-name="quoteright" unicode="&#x2019;" horiz-adv-x="158" 
d="M137 653l-1 -1c1 -9 0 -21 -1 -33v-2c-7 -48 -45 -104 -83 -133l-1 -1h-18l8 8c1 1 3 3 6 5c6 3 23 23 27 28c8 8 16 27 16 38c-3 17 -19 28 -33 35c-25 10 -38 29 -38 55c0 32 28 58 59 58s59 -26 59 -57z" />
    <glyph glyph-name="quotedblleft" unicode="&#x201c;" horiz-adv-x="305" 
d="M99 707v-4c25 -10 38 -29 38 -55c0 -32 -30 -58 -61 -58c-30 0 -58 28 -58 58c-1 9 0 20 2 36c1 13 9 34 23 62c13 27 32 50 59 71l1 1h19l-8 -8c-1 -1 -3 -3 -6 -4c-2 -1 -6 -5 -11 -10l-9 -9s-5 -6 -7 -8c-4 -5 -8 -11 -11 -18s-5 -13 -4 -19c0 -16 20 -30 33 -35z
M250 703v-4c25 -10 38 -29 38 -55c0 -32 -30 -58 -61 -58c-30 0 -58 28 -58 58c-1 9 0 20 2 36c1 13 9 34 23 62c13 27 32 50 59 71l1 1h19l-9 -8c-1 -1 -3 -3 -6 -4c-10 -5 -33 -35 -37 -45c-4 -8 -5 -14 -4 -19c0 -16 20 -30 33 -35z" />
    <glyph glyph-name="quotedblright" unicode="&#x201d;" horiz-adv-x="266" 
d="M258 755l-1 -2c1 -9 0 -21 -1 -33v-2c-7 -48 -45 -104 -83 -133l-1 -1h-19l8 8c1 1 3 3 6 5c17 8 44 50 44 67c-3 17 -19 28 -33 35c-25 10 -38 29 -38 55c0 32 28 58 59 58s59 -26 59 -57zM5 586l8 8c1 1 3 3 6 5c11 5 33 36 38 46c3 7 4 14 3 19c-3 17 -19 28 -33 35
c-24 9 -36 27 -36 54c0 32 28 58 59 58c30 0 58 -25 58 -56c1 -9 0 -21 -1 -33v-2c-7 -48 -45 -104 -83 -133l-1 -1h-18zM91 794v0l-1 1z" />
    <glyph glyph-name="Euro" unicode="&#x20ac;" horiz-adv-x="767" 
d="M711 129l3 2l14 -10l-2 -4c-48 -78 -141 -124 -249 -124c-189 0 -336 126 -364 301h-99v20h96c-1 13 -2 26 -2 40c0 13 1 26 2 38h-96v20h99c30 196 210 301 381 301c141 0 215 -65 246 -104l3 -4l-96 -88l-1 10c-11 93 -94 161 -197 161c-122 0 -245 -85 -247 -275h279
v-20h-278c1 -27 5 -53 11 -78h267v-20h-262c42 -143 159 -249 293 -249c76 0 160 35 199 83z" />
    <glyph glyph-name="uniF000" unicode="&#xf000;" horiz-adv-x="690" 
d="M703 20l5 -1v-11h-243v12h5c17 0 32 8 42 22s12 31 6 47l-36 91h-348l-37 -88c-11 -27 1 -59 27 -72l3 -1v-9h-134v10l3 1c40 16 71 47 88 87l25 58l193 471l-26 65h101l245 -627c13 -33 45 -55 81 -55zM311 612l-170 -414h333z" />
    <glyph glyph-name="uniF001" unicode="&#xf001;" horiz-adv-x="688" 
d="M703 20v-1h5v-11h-243v11h5c17 0 32 8 42 22s12 31 6 47l-36 92h-346l-38 -89c-11 -27 1 -59 27 -72l3 -1v-9h-134v10l3 1c40 16 71 47 88 87l220 517l-15 36c-10 21 -34 31 -55 23l-27 -10v14l145 69l269 -681c13 -33 45 -55 81 -55zM474 198l-3 5l-159 396l-170 -401
h332z" />
    <glyph glyph-name="uniF002" unicode="&#xf002;" horiz-adv-x="643" 
d="M14 9v11h4c33 3 58 30 58 63v542c0 33 -25 60 -58 63h-4v11h257c182 0 286 -51 286 -140c0 -69 -67 -123 -121 -148c118 -19 186 -80 186 -170c0 -132 -134 -232 -312 -232h-296zM457 519l-1 -1c0 108 -58 163 -173 163h-116v-270h197c46 0 93 13 93 108zM167 54l1 -1
c60 -15 128 -21 172 -21c132 0 179 46 179 176c0 92 -24 186 -202 186h-150v-340z" />
    <glyph glyph-name="uniF003" unicode="&#xf003;" horiz-adv-x="672" 
d="M629 129l3 2l14 -10l-2 -4c-48 -78 -141 -124 -249 -124c-210 0 -368 155 -368 361c0 233 198 359 385 359c141 0 215 -65 246 -104l3 -4l-96 -88l-1 10c-11 93 -94 161 -197 161c-123 0 -247 -86 -247 -279c0 -197 142 -363 310 -363c76 0 160 35 199 83z" />
    <glyph glyph-name="uniF004" unicode="&#xf004;" horiz-adv-x="670" 
d="M1112 19l1 6h102l-1 -6c-16 -89 -70 -162 -148 -208c-1 0 -2 -1 -3 -2c-58 -37 -141 -51 -209 -51c-143 0 -249 67 -330 185c-12 18 -60 97 -146 241c-90 152 -127 202 -139 217l-65 -65v-251c0 -33 25 -60 58 -63h4v-11h-215v11h4c33 3 58 30 58 63v542
c0 33 -25 60 -58 63h-4v11h216v-11h-4c-33 -3 -58 -30 -58 -63v-264l305 306c25 21 56 32 87 32c27 0 54 -8 77 -24c0 0 24 -17 25 -17l5 -4l-72 -65l-23 23c-17 17 -40 26 -63 26c-22 0 -45 -9 -62 -26l-155 -156c38 -51 120 -180 245 -384c6 -10 10 -17 11 -19
c37 -58 71 -110 110 -159c107 -132 231 -124 236 -124c106 8 146 65 165 92l2 3c31 43 44 95 44 147v5z" />
    <glyph glyph-name="uniF005" unicode="&#xf005;" horiz-adv-x="622" 
d="M12 9v11h4c33 3 58 30 58 63v543c0 33 -25 60 -58 63h-4v11h331c162 0 263 -74 263 -194c0 -143 -122 -243 -297 -243h-143v-180c0 -33 25 -60 58 -63h4v-11h-216zM165 680v-380c49 -13 102 -20 150 -20c125 0 194 68 194 191c0 103 -26 209 -216 209h-128z" />
    <glyph glyph-name="uniF006" unicode="&#xf006;" horiz-adv-x="801" 
d="M871 -105l71 -67l-30 -21c-23 -16 -50 -24 -77 -24c-31 0 -62 11 -87 32l-37 32c-22 22 -42 44 -62 68l-3 3l-84 107c-48 -21 -102 -32 -161 -32c-215 0 -371 153 -371 364s156 364 371 364s371 -153 371 -364c0 -146 -75 -264 -193 -323l81 -103c1 -2 2 -3 3 -4
c15 -18 30 -34 47 -51c8 -7 17 -15 27 -23l10 -7c11 -8 24 -12 37 -12c15 0 31 6 42 17zM362 309l203 -256c72 46 115 135 115 249c0 190 -127 393 -316 393c-143 0 -239 -114 -239 -283c0 -190 127 -394 316 -394c40 0 76 9 107 26l-199 253z" />
    <glyph glyph-name="uniF007" unicode="&#xf007;" horiz-adv-x="628" 
d="M1111 19l7 4h102l-1 -6c-16 -89 -70 -162 -148 -208c-1 0 -2 -1 -3 -2c-58 -37 -141 -51 -210 -51c-152 0 -277 77 -380 185c-17 18 -86 96 -211 239c-33 38 -63 72 -90 102v-197c0 -33 25 -60 58 -63h4v-11h-216v11h4c33 3 58 30 58 63v543c0 33 -25 60 -58 63h-4v11
h330c162 0 263 -74 263 -194c0 -63 -25 -122 -70 -165c-70 -67 -155 -79 -247 -79c70 -79 139 -159 169 -194c9 -10 15 -16 16 -18c51 -58 97 -110 148 -158c138 -130 263 -122 268 -122c106 8 146 65 165 92l2 3c31 43 44 95 44 147v5zM180 684v-381c32 -7 80 -14 83 -14
l9 -1c16 -2 32 -3 47 -3c128 0 205 57 205 191c0 102 -26 208 -216 208h-128z" />
    <glyph glyph-name="uniF008" unicode="&#xf008;" horiz-adv-x="655" 
d="M276 263h-120v-180c0 -33 25 -60 58 -63h4v-11h-216v11h4c33 3 58 30 58 63v543c0 33 -25 60 -58 63h-4v11h330c162 0 263 -74 263 -194c0 -118 -83 -207 -210 -234l108 -125c69 -83 96 -104 146 -129l19 -9h-167zM155 681v-379c49 -13 102 -20 150 -20
c125 0 194 68 194 191c0 102 -26 208 -216 208h-128z" />
    <glyph glyph-name="uniF009" unicode="&#xf009;" horiz-adv-x="648" 
d="M624 14l3 -5h-83l-1 3c-17 36 -63 61 -99 75c-25 10 -49 22 -71 36c-108 69 -132 152 -133 156l-2 7l22 -2c16 -2 32 -3 47 -3c128 0 205 57 205 191c0 103 -26 209 -216 209h-128v-598c0 -33 25 -60 58 -63h4v-11h-216v11h4c33 3 58 30 58 63v543c0 33 -25 60 -58 63h-4
v11h330c162 0 263 -74 263 -194c0 -63 -25 -122 -70 -165c-55 -53 -136 -81 -229 -78c-16 0 -31 2 -41 3c35 -37 93 -51 145 -64c13 -3 25 -6 37 -9c103 -28 168 -95 175 -179z" />
    <glyph glyph-name="uniF00A" unicode="&#xf00a;" horiz-adv-x="741" 
d="M612 701l136 1v-10l-3 -1c-40 -16 -71 -47 -88 -87l-242 -570c6 -4 13 -7 20 -8l10 -2l-99 -89l-277 701c-13 33 -45 55 -81 55h-5v11h243v-11h-5c-17 0 -32 -8 -42 -22s-12 -31 -6 -47l227 -569v-3l242 569c11 27 -1 59 -27 72l-3 1v9z" />
    <glyph glyph-name="uniF00B" unicode="&#xf00b;" horiz-adv-x="1149" 
d="M1011 701l137 -1v-10l-3 -1c-40 -16 -71 -47 -88 -87l-242 -570c6 -4 13 -7 20 -8l10 -2l-99 -89l-176 447l-147 -347c6 -4 13 -7 20 -8l10 -2l-99 -89l-277 701c-13 33 -45 55 -81 55h-5v11h243v-11h-5c-17 0 -32 -8 -42 -22s-12 -31 -6 -47l227 -569v-3l151 356
l-85 216c-11 28 -29 53 -53 72l-11 9h215v-11h-5c-17 0 -32 -8 -42 -22s-12 -31 -6 -47l227 -569v-3l242 569c11 27 -1 59 -27 72l-3 1v9z" />
    <glyph glyph-name="uniF00C" unicode="&#xf00c;" horiz-adv-x="610" 
d="M598 79l5 -13l-124 -60l-2 3c-27 28 -45 57 -45 110v112c-76 -171 -165 -233 -225 -233c-71 0 -129 30 -159 81c-25 43 -27 95 -5 136c53 96 147 104 238 112c53 5 108 10 154 33c-1 78 -28 119 -105 119s-170 -40 -226 -67l-3 -1l-79 72l8 3c65 23 137 36 208 38
c34 1 68 -4 102 -14c89 -31 174 -83 174 -189v-181c0 -13 3 -37 9 -51c9 -19 32 -28 51 -20zM150 268c-34 -24 -36 -71 -27 -107c12 -43 46 -89 95 -94c101 -10 163 113 186 159c2 4 4 7 5 10c16 30 24 57 25 82v14c-48 -18 -91 -20 -132 -22c-52 -3 -101 -6 -152 -42z" />
    <glyph glyph-name="uniF00D" unicode="&#xf00d;" horiz-adv-x="560" 
d="M537 55l-116 -63v53c-35 -39 -93 -44 -142 -44c-151 0 -253 98 -253 243c0 129 84 280 322 280c63 0 104 -11 152 -39l2 -1v-399c0 -8 4 -15 10 -19s14 -5 21 -2zM332 34l1 -1c47 0 89 19 89 74v334c-25 25 -68 54 -134 54c-112 0 -182 -76 -182 -199
c0 -147 99 -262 226 -262z" />
    <glyph glyph-name="uniF00E" unicode="&#xf00e;" horiz-adv-x="557" 
d="M523 16l5 -9h-108l-1 4c-3 13 -5 22 -6 27c-26 -25 -71 -37 -136 -37c-151 0 -253 98 -253 243c0 129 84 280 322 280c63 0 104 -11 152 -39l2 -1v-389c0 -28 8 -55 23 -79zM330 34l1 -1c47 0 89 19 89 74v334c-25 25 -68 54 -134 54c-112 0 -182 -76 -182 -199
c0 -147 99 -262 226 -262z" />
    <glyph glyph-name="uniF00F" unicode="&#xf00f;" horiz-adv-x="569" 
d="M470 464l1 -1c47 -43 70 -108 69 -193c-2 -155 -112 -270 -269 -270c-69 0 -111 14 -164 54l-59 -53v664c0 8 -4 15 -10 19s-14 5 -21 2l-37 -14v14l148 70v-313c56 56 113 85 169 85c71 0 128 -21 173 -64zM382 454l2 2c-32 27 -74 39 -120 33c-43 -5 -88 -28 -134 -68
v-194c0 -72 21 -128 62 -165c31 -27 65 -41 103 -41c13 0 27 2 41 5c40 9 73 62 90 109c18 48 25 105 21 170c-3 64 -26 117 -65 149z" />
    <glyph glyph-name="uniF010" unicode="&#xf010;" horiz-adv-x="512" 
d="M475 112l3 4l11 -8l-2 -4c-36 -65 -109 -102 -199 -102c-127 0 -264 78 -264 249c0 159 116 274 276 274c81 0 148 -22 195 -63l4 -4l-81 -74l-2 7c-19 56 -89 105 -149 105c-115 0 -152 -99 -152 -200c0 -141 86 -244 204 -244c54 0 126 19 156 60z" />
    <glyph glyph-name="uniF011" unicode="&#xf011;" horiz-adv-x="582" 
d="M465 143l1 3h70l-4 -7c-44 -86 -133 -138 -239 -138c-155 0 -268 110 -268 262s113 262 268 262c145 0 255 -97 267 -236v-5h-447c8 -121 77 -248 196 -261c76 -9 134 36 156 120zM113 301h354c-26 113 -99 192 -187 202c-43 5 -81 -7 -110 -34
c-43 -42 -57 -109 -57 -168z" />
    <glyph glyph-name="uniF012" unicode="&#xf012;" horiz-adv-x="529" 
d="M496 114l13 -7l-4 -6c-46 -62 -124 -98 -214 -98c-96 0 -182 42 -232 124l-6 12l-1 1c-2 4 -4 7 -6 10l-9 28l-3 9l-1 5l-3 9l-1 5c-1 3 -2 6 -2 9l-1 5v9l-1 5v52c0 5 1 10 2 15v8l3 12l7 21v3l1 3c34 109 131 176 254 176c64 0 122 -18 168 -52c31 -23 43 -62 31 -99
s-45 -61 -84 -61h-292v-9c7 -114 78 -272 210 -272c60 0 123 30 168 80zM382 440h-2c-38 41 -83 63 -130 63c-78 0 -129 -57 -136 -153v-16h221c26 0 48 15 58 38s6 49 -11 68z" />
    <glyph glyph-name="uniF013" unicode="&#xf013;" horiz-adv-x="552" 
d="M689 614l32 -14l-72 -65l-45 44c-11 11 -27 17 -42 17c-13 0 -26 -4 -37 -12l-11 -9c-25 -23 -49 -48 -71 -74l-3 -3l-9 -12c54 -36 89 -91 90 -153c1 -47 -18 -93 -53 -129c-45 -46 -112 -73 -183 -74c-39 0 -78 7 -114 23c-22 -28 -42 -53 -55 -69
c-42 -53 -60 -120 -45 -171c14 -50 61 -82 111 -82c61 0 121 47 150 123c23 60 66 94 121 96c26 1 48 -7 65 -24c37 -36 41 -100 41 -126c0 -84 -69 -153 -153 -153h-5v96h18c61 0 111 50 111 111v1c0 44 -32 75 -77 75c-41 0 -67 -21 -89 -73l-31 -76
c-37 -90 -98 -134 -185 -134c-49 0 -90 16 -119 46c-28 29 -42 69 -41 116c2 69 68 146 160 252c-63 35 -105 95 -106 163v1c-1 109 105 199 236 200c50 0 97 -13 136 -35l10 13l4 4c20 24 40 46 62 68l11 9l9 9l16 14c25 21 55 31 86 31c27 0 54 -8 77 -24zM268 314h1
c22 27 77 97 102 129c-29 41 -68 69 -109 73h-9c-71 0 -108 -66 -114 -130c-5 -61 16 -123 50 -168c25 30 52 62 79 96zM284 302l-2 1s-38 -49 -79 -102c26 -28 58 -47 91 -50c27 -2 53 6 74 24c28 23 45 61 49 107c4 51 -10 103 -35 145z" />
    <glyph glyph-name="uniF014" unicode="&#xf014;" horiz-adv-x="552" 
d="M688 614l34 -16l-72 -65l-45 44c-11 11 -27 17 -42 17c-13 0 -26 -4 -37 -12l-11 -9c-25 -23 -49 -48 -71 -74l-3 -3l-9 -12c54 -36 89 -91 90 -153c1 -47 -18 -93 -53 -129c-45 -46 -112 -73 -183 -74c-39 0 -78 7 -114 23c-22 -28 -42 -53 -55 -69
c-45 -56 -63 -132 -44 -184c15 -44 57 -64 101 -64c70 0 129 56 159 118c31 64 70 95 120 95c60 0 102 -43 102 -105c0 -27 -17 -96 -36 -176c-14 -57 -28 -116 -37 -164l-1 -4l-135 -1l117 190c27 40 66 118 66 168c0 44 -32 75 -77 75c-41 0 -67 -21 -89 -73l-31 -78
c-37 -90 -98 -134 -185 -134c-52 0 -97 18 -127 51c-27 30 -39 69 -34 113c7 70 62 135 153 242l9 9c-64 35 -107 95 -108 164v1c-1 109 105 199 236 200c51 0 98 -13 137 -35l10 13l4 4c20 24 40 46 62 68l11 9l9 9l16 14c25 21 55 31 86 31c27 0 54 -8 77 -24zM269 312h1
c22 28 77 98 102 130c-29 40 -68 68 -109 72h-9c-71 0 -108 -66 -114 -130c-5 -61 16 -124 51 -169c24 29 50 61 78 97zM285 300l-2 1s-38 -49 -79 -102c26 -28 58 -47 91 -50c27 -2 53 6 74 24c28 23 45 61 49 107c4 51 -10 103 -35 145z" />
    <glyph glyph-name="uniF015" unicode="&#xf015;" horiz-adv-x="539" 
d="M488 485l2 -4v-494c0 -114 -137 -226 -277 -226c-39 0 -79 8 -157 46l-7 3l79 71l3 -3c42 -42 109 -71 163 -71c77 0 115 67 115 204v35c-32 -40 -87 -45 -132 -45c-151 0 -253 98 -253 243c0 135 82 280 312 280c63 0 104 -11 152 -39zM410 439h2c-25 25 -68 55 -134 55
c-110 0 -173 -73 -173 -201c0 -151 93 -265 216 -265c47 0 89 19 89 74v337z" />
    <glyph glyph-name="uniF016" unicode="&#xf016;" horiz-adv-x="570" 
d="M561 20l6 4v-11h-205v11h4c33 3 58 30 58 63v263c0 51 -14 111 -64 135c-19 8 -41 10 -65 6c-60 -13 -118 -89 -146 -140v-266c0 -33 25 -60 58 -63h4v-11h-205v11h4c33 3 58 30 58 63v582c0 8 -4 15 -10 19s-14 5 -21 2l-37 -14v14l148 70v-375c37 63 97 127 173 139
c32 4 61 1 89 -9c66 -24 93 -94 93 -159v-271c0 -33 25 -60 58 -63z" />
    <glyph glyph-name="uniF017" unicode="&#xf017;" horiz-adv-x="222" 
d="M118 604c-29 0 -52 23 -52 52s23 52 52 52s52 -23 52 -52s-23 -52 -52 -52zM216 20h5v-11h-205v11h4c33 3 58 30 58 63v352c0 8 -4 15 -10 19s-14 5 -21 2l-37 -14v14l148 70v-443c0 -33 25 -60 58 -63z" />
    <glyph glyph-name="uniF018" unicode="&#xf018;" horiz-adv-x="200" 
d="M104 604c-29 0 -52 23 -52 52s23 52 52 52s52 -23 52 -52s-23 -52 -52 -52zM9 444v13l148 70v-468c0 -73 -30 -124 -80 -174l-53 -53l-12 -9c-6 -6 -12 -11 -18 -15c-34 -25 -77 -38 -119 -38h-61l90 81h31c41 0 75 6 110 28c20 33 30 71 30 110v447c0 8 -4 15 -10 19
s-14 5 -21 2z" />
    <glyph glyph-name="uniF019" unicode="&#xf019;" horiz-adv-x="615" 
d="M600 79l7 -9l-124 -60l-2 3c-24 25 -41 51 -44 94h-1v4c-61 -46 -135 -99 -214 -99c-95 0 -143 62 -143 184v241c0 4 -2 9 -6 15c-1 1 -2 2 -4 3c-6 4 -14 5 -21 2l-37 -14v14l148 70v-340c0 -118 71 -136 113 -136c49 0 88 28 133 60c10 7 20 14 31 21v304
c0 8 -4 15 -10 19s-14 5 -21 2l-37 -14v14l148 70v-387c0 -13 3 -37 9 -51c9 -19 32 -28 51 -20z" />
    <glyph glyph-name="uniF01A" unicode="&#xf01a;" horiz-adv-x="475" 
d="M478 -47h1c12 -59 4 -118 -24 -176c-26 -53 -67 -96 -121 -128c-1 0 -2 -1 -3 -2c-58 -37 -141 -51 -209 -51c-143 0 -249 67 -330 185c-32 48 -65 100 -106 170c-17 31 -36 57 -76 57h-5v10h145l5 -9c52 -94 110 -188 177 -272c100 -124 215 -125 237 -124
c32 2 81 9 130 35c62 38 97 94 108 166c10 69 -8 131 -55 188c-22 27 -47 52 -77 77l-57 45l-60 48c-29 24 -66 57 -94 99c-27 41 -39 84 -36 129c8 95 85 149 177 149c42 0 74 -13 93 -21l2 -1c5 -2 10 -4 15 -7c7 -3 14 -7 21 -11l12 -6s32 -15 49 -23l7 -3l-73 -66l-3 6
c-17 33 -39 67 -67 91c-31 23 -43 26 -81 26c-14 -2 -27 -6 -38 -13c-31 -18 -48 -51 -47 -91c2 -79 61 -135 117 -182c20 -17 42 -33 63 -49c22 -17 45 -35 67 -53c62 -51 119 -112 136 -193z" />
    <glyph glyph-name="uniF01B" unicode="&#xf01b;" horiz-adv-x="311" 
d="M278 65l-2 1l18 9l7 4v-17l-15 -10c-34 -21 -77 -48 -100 -49c-112 0 -143 84 -143 182v320h-23l103 124v-105h190l-23 -20h-2c-26 0 -133 1 -166 1v-336c0 -46 11 -80 33 -100c19 -17 46 -25 81 -22c14 1 28 10 42 18z" />
    <glyph glyph-name="uniF01C" unicode="&#xf01c;" horiz-adv-x="505" 
d="M350 514l-6 13h154v-10l-3 -1c-28 -11 -53 -26 -92 -118l-177 -411l-3 -6l-9 -21c-2 -4 -3 -7 -4 -9c-3 -5 -4 -7 -9 -16l-12 -21l-25 -38c-26 -37 -68 -58 -111 -58c-15 0 -30 3 -45 8l-29 14l73 66l30 -17c9 -5 19 -8 29 -8c19 0 36 9 48 24l7 9c6 9 13 19 20 30
s8 12 12 20l3 7l9 18c1 2 2 3 3 4l17 40l-191 418l-38 74h202v-11l-4 -1c-31 -4 -50 -14 -59 -30c-10 -18 -7 -46 10 -83l89 -196l35 -72l116 268c15 35 18 61 10 79c-8 19 -28 27 -47 34z" />
    <glyph glyph-name="uniF01D" unicode="&#xf01d;" horiz-adv-x="566" 
d="M435 156l-1 -3v22l1 57c-77 -173 -167 -235 -227 -235c-71 0 -129 30 -159 81c-25 43 -27 95 -5 136c53 96 147 104 238 112c53 5 108 10 154 33c-1 78 -28 119 -105 119s-170 -40 -226 -67l-3 -1l-79 72l8 3c65 23 137 36 208 38c34 1 68 -4 102 -14
c89 -31 174 -83 174 -189v-236c0 -8 4 -15 10 -19s14 -5 21 -2l4 -9l-115 -61v163zM152 267c-34 -24 -36 -71 -27 -107c12 -43 46 -89 95 -94c101 -10 163 113 186 159c2 4 4 7 5 10c16 30 24 57 25 82v14c-48 -18 -91 -20 -132 -22c-52 -3 -101 -6 -152 -42zM234 -125
l66 65l66 -65l-66 -65z" />
    <glyph glyph-name="uniF01E" unicode="&#xf01e;" horiz-adv-x="560" 
d="M537 55l-116 -63v53c-35 -39 -93 -44 -142 -44c-151 0 -253 98 -253 243c0 129 84 280 322 280c63 0 104 -11 152 -39l2 -1v-399c0 -8 4 -15 10 -19s14 -5 21 -2zM421 442c-25 25 -68 53 -133 53c-112 0 -182 -76 -182 -199c0 -147 99 -262 226 -262c47 0 89 19 89 74
v334zM216 -124l66 65l66 -65l-66 -65z" />
    <glyph glyph-name="uniF01F" unicode="&#xf01f;" horiz-adv-x="571" 
d="M292 523h1c154 0 250 -96 250 -251c0 -170 -118 -271 -316 -271c-76 0 -143 13 -200 38l-7 3l43 39v584c0 8 -4 15 -10 19s-14 5 -21 2l-37 -14v14l148 70v-274c39 27 90 41 149 41zM144 452v-380c37 -33 83 -49 140 -49c72 0 167 20 167 196c0 164 -81 278 -197 278
c-42 0 -81 -16 -110 -45zM220 -123l66 65l66 -65l-66 -65z" />
    <glyph glyph-name="uniF020" unicode="&#xf020;" horiz-adv-x="525" 
d="M492 111l3 3l14 -10l-4 -6c-46 -62 -124 -98 -214 -98c-155 0 -268 110 -268 262c0 150 106 255 264 261c90 4 161 -15 217 -59l5 -4l-78 -71l-3 5c-39 62 -112 105 -178 105c-85 0 -138 -67 -138 -175c0 -141 81 -293 212 -293c60 0 123 30 168 80zM235 -122l66 65
l66 -65l-66 -65z" />
    <glyph glyph-name="uniF021" unicode="&#xf021;" horiz-adv-x="548" 
d="M514 16l5 -9h-108l-1 4c-3 13 -5 22 -6 27c-33 -33 -84 -37 -126 -37c-151 0 -253 98 -253 243c0 135 82 280 312 280c28 0 52 -2 74 -7v149c0 8 -4 15 -10 19s-14 5 -21 2l-37 -14v14l148 70v-662c0 -28 8 -55 23 -79zM105 297l2 1c0 -150 93 -263 216 -263
c47 0 89 19 89 74v334c-25 25 -68 54 -134 54c-110 0 -173 -73 -173 -200zM215 -122l66 65l66 -65l-66 -65z" />
    <glyph glyph-name="uniF022" unicode="&#xf022;" horiz-adv-x="553" 
d="M538 375l-6 -4l-400 -190c33 -92 98 -152 174 -161c70 -8 125 29 150 101l1 3h66l-5 -8c-47 -75 -130 -118 -228 -118c-110 0 -201 55 -243 147l-3 9c-14 33 -21 69 -21 107c0 152 113 262 268 262c106 0 196 -52 240 -138l4 -4zM113 344l-1 -1c-5 -48 0 -98 15 -145
l320 152c-34 87 -98 144 -171 152c-6 1 -12 1 -18 1c-91 0 -136 -77 -145 -159zM238 -124l66 65l66 -65l-66 -65z" />
    <glyph glyph-name="uniF023" unicode="&#xf023;" horiz-adv-x="555" 
d="M542 18l19 -8h-144l-229 260l-7 -9v-3l-41 -55v-119c0 -33 25 -60 58 -63h4v-11h-205v11h4c33 3 58 30 58 63v582c0 8 -4 15 -10 19s-14 5 -21 2l-37 -14v14l148 70v-524l34 44c149 217 184 252 341 248h7l-37 -82h-3c-115 2 -185 -44 -243 -109l181 -206
c55 -63 76 -87 123 -110zM201 -121l66 65l66 -65l-66 -65z" />
    <glyph glyph-name="uniF024" unicode="&#xf024;" horiz-adv-x="602" 
d="M594 20l9 -3v-11h-205v11h4c33 3 58 30 58 63v263c0 118 -71 136 -113 136c-56 0 -101 -30 -153 -65l-12 -8v-326c0 -33 25 -60 58 -63h4v-11h-205v11h4c33 3 58 30 58 63v310c0 13 -3 37 -9 51c-9 19 -32 28 -51 20l-24 -10l-7 12l124 60l2 -3c23 -24 39 -49 43 -90
c60 45 136 92 214 92c95 0 143 -62 143 -184v-255c0 -33 25 -60 58 -63zM242 -124l66 65l66 -65l-66 -65z" />
    <glyph glyph-name="uniF025" unicode="&#xf025;" 
d="M294 524c155 0 268 -110 268 -262s-113 -262 -268 -262s-268 110 -268 262s113 262 268 262zM117 324c0 -142 89 -300 217 -300c85 0 138 68 138 177c0 141 -89 298 -217 298c-85 0 -138 -67 -138 -175zM227 -123l66 65l66 -65l-66 -65z" />
    <glyph glyph-name="uniF026" unicode="&#xf026;" horiz-adv-x="444" 
d="M239 308l-3 -1c180 -29 182 -118 183 -147c-2 -96 -82 -158 -204 -158c-99 0 -163 39 -193 62l-5 4l76 70l3 -5c43 -65 106 -109 157 -110c62 0 91 32 91 94s-35 93 -120 107c-112 20 -176 65 -190 134c-3 16 -3 33 1 49c16 72 90 119 188 119c69 0 145 -24 190 -59l5 -4
l-74 -68l-3 5c-43 62 -104 104 -152 104c-76 0 -84 -63 -84 -90c0 -74 68 -95 134 -106zM151 -123l66 65l66 -65l-66 -65z" />
    <glyph glyph-name="uniF027" unicode="&#xf027;" horiz-adv-x="615" 
d="M600 79l7 -9l-124 -60l-2 3c-24 25 -41 51 -44 94h-1v4c-61 -46 -135 -99 -214 -99c-95 0 -143 62 -143 184v241c0 4 -2 9 -6 15c-1 1 -2 2 -4 3c-6 4 -14 5 -21 2l-37 -14v14l148 70v-340c0 -118 71 -136 113 -136c49 0 88 28 133 60c10 7 20 14 31 21v304
c0 8 -4 15 -10 19s-14 5 -21 2l-37 -14v14l148 70v-387c0 -13 3 -37 9 -51c9 -19 32 -28 51 -20zM242 -120l66 65l66 -65l-66 -65z" />
    <glyph glyph-name="uniF028" unicode="&#xf028;" horiz-adv-x="550" 
d="M419 425l-107 -137l67 -91h1l77 -105c21 -28 48 -53 78 -72l14 -9h-216l-4 11h7c15 0 26 6 32 17c6 12 4 28 -5 43l-106 143l-109 -133c-13 -17 -19 -35 -17 -50c1 -9 6 -16 14 -21l3 -2l-3 -8h-132v10l3 1c47 17 92 49 124 89l107 130l-153 207c-21 27 -47 51 -76 69
l-14 9h215l4 -11h-7c-15 0 -26 -6 -32 -17c-7 -14 -4 -33 8 -50l105 -143l114 139c13 17 19 35 17 50c-1 9 -6 16 -14 21l-3 2l3 8h132v-10l-3 -1c-47 -17 -92 -49 -124 -89zM216 -123l66 65l66 -65l-66 -65z" />
    <glyph glyph-name="uniF029" unicode="&#xf029;" horiz-adv-x="804" 
d="M645 524l153 4v-10l-3 -1c-28 -11 -53 -26 -92 -118l-167 -387h-11l-138 301l-130 -301h-11l-202 442l-38 74h202v-11l-4 -1c-31 -4 -50 -14 -59 -30c-10 -18 -7 -46 10 -83l95 -209l35 -72l91 211l-54 119l-38 74h202v-11l-4 -1c-31 -4 -50 -14 -59 -30
c-10 -18 -7 -46 10 -83l95 -209l35 -72l122 280c15 35 18 61 10 79c-8 19 -28 27 -47 34l-3 1v10zM337 -119l66 65l66 -65l-66 -65z" />
    <glyph glyph-name="uniF02A" unicode="&#xf02a;" horiz-adv-x="478" 
d="M470 513l2 -1c-29 -6 -54 -35 -106 -123l-212 -364h104c69 0 147 39 203 101l10 11l-15 -130h-458l21 10c33 14 76 67 128 157l192 332h-101c-69 0 -147 -39 -203 -101l-10 -11l15 130h434v-10zM180 -123l66 65l66 -65l-66 -65z" />
    <glyph glyph-name="uniF02B" unicode="&#xf02b;" horiz-adv-x="570" 
d="M289 523l1 -3c154 0 250 -96 250 -251c0 -170 -118 -271 -316 -271c-76 0 -143 13 -200 38l-7 3l43 39v462c0 38 -10 75 -30 107c-35 21 -71 28 -111 28h-100l-35 78h75c52 0 97 -17 137 -50c3 -2 6 -5 9 -8c19 -17 48 -45 62 -59c45 -42 70 -88 73 -151v-3
c39 27 90 41 149 41zM141 449v-380c37 -33 83 -49 140 -49c72 0 167 20 167 196c0 164 -81 278 -197 278c-42 0 -81 -16 -110 -45z" />
    <glyph glyph-name="uniF02C" unicode="&#xf02c;" horiz-adv-x="572" 
d="M561 20l6 -7v-11h-205v11h4c33 3 58 30 58 63v263c0 118 -71 136 -113 136c-56 0 -101 -30 -153 -65l-12 -8v-326c0 -33 25 -60 58 -63h4v-11h-205v11h4c33 3 58 30 58 63v460c0 38 -10 75 -30 107c-35 21 -71 28 -111 28h-100l-35 78h75c52 0 97 -17 137 -50
c3 -2 6 -5 9 -8c19 -17 48 -45 62 -59c47 -43 74 -94 74 -159v-43c60 45 136 92 214 92c95 0 143 -62 143 -184v-255c0 -33 25 -60 58 -63z" />
    <glyph glyph-name="uniF02D" unicode="&#xf02d;" horiz-adv-x="557" 
d="M179 258l-42 -58v-119c0 -33 25 -60 58 -63h4v-11h-205v11h4c33 3 58 30 58 63v460c0 38 -10 75 -30 107c-35 21 -71 28 -111 28h-100l-35 78h75c52 0 97 -17 137 -50c3 -2 6 -5 9 -8c19 -17 48 -45 62 -59c45 -41 72 -89 74 -151v-251l34 44c149 217 184 252 341 248h7
l-37 -82h-3c-115 1 -185 -45 -243 -110l181 -206c55 -63 76 -87 123 -110l19 -9h-144l-229 260l-7 -9v-3z" />
    <glyph glyph-name="uniF02E" unicode="&#xf02e;" horiz-adv-x="204" 
d="M197 19l3 -4v-11h-205v11h4c33 3 58 30 58 63v460c0 38 -10 75 -30 107c-35 21 -71 28 -111 28h-100l-35 78h75c52 0 97 -17 137 -50c3 -2 6 -5 9 -8c19 -17 48 -45 62 -59c40 -37 67 -79 73 -135h2v-417c0 -33 25 -60 58 -63z" />
    <glyph glyph-name="uniF02F" unicode="&#xf02f;" horiz-adv-x="571" 
d="M284 523v-1c154 0 250 -96 250 -251c0 -170 -118 -271 -316 -271c-76 0 -143 13 -200 38l-7 3l43 39v201s2 304 2 305v3c-1 67 -22 116 -93 116c-105 0 -319 -75 -406 -123l-3 -2l-79 72l8 3c179 63 302 95 376 98c34 1 68 -4 102 -14c89 -31 174 -83 174 -189v-68
c39 27 90 41 149 41zM135 452v-380c37 -33 83 -49 140 -49c72 0 167 20 167 196c0 164 -81 278 -197 278c-42 0 -81 -16 -110 -45z" />
    <glyph glyph-name="uniF030" unicode="&#xf030;" horiz-adv-x="546" 
d="M512 16l5 -11h-108l-1 4c-3 13 -5 22 -6 27c-33 -33 -84 -37 -126 -37c-151 0 -253 98 -253 243c0 135 82 280 312 280c29 0 53 -2 75 -7v74c-1 67 -22 116 -93 116c-105 0 -319 -75 -406 -123l-3 -2l-79 72l8 3c179 63 302 95 376 98c34 1 68 -4 102 -14
c89 -31 174 -83 174 -189v-455c0 -28 8 -55 23 -79zM408 440l2 1c-25 25 -68 54 -134 54c-110 0 -173 -73 -173 -200c0 -150 93 -263 216 -263c47 0 89 19 89 74v334z" />
    <glyph glyph-name="uniF031" unicode="&#xf031;" horiz-adv-x="573" 
d="M556 20l7 -2v-11h-205v11h4c33 3 58 30 58 63v263c0 118 -71 136 -113 136c-56 0 -101 -30 -153 -65l-12 -8v-326c0 -33 25 -60 58 -63h4v-11h-205v11h4c33 3 58 30 58 63v400h1v106c-1 67 -22 116 -93 116c-105 0 -319 -75 -406 -123l-3 -2l-79 72l8 3
c179 63 302 95 376 98c34 1 68 -4 102 -14c89 -31 174 -83 174 -189v-118c60 45 136 92 214 92c95 0 143 -62 143 -184v-255c0 -33 25 -60 58 -63z" />
    <glyph glyph-name="uniF032" unicode="&#xf032;" horiz-adv-x="555" 
d="M133 203h-1v-119c0 -33 25 -60 58 -63h4v-11h-205v11h4c33 3 58 30 58 63v199s2 304 2 305v3c-1 67 -22 116 -93 116c-105 0 -319 -75 -406 -123l-3 -2l-79 72l8 3c179 63 302 95 376 98c34 1 68 -4 102 -14c89 -31 174 -83 174 -189v-318l34 44c149 217 184 252 341 248
h7l-37 -82h-3c-115 2 -185 -44 -243 -109l181 -206c55 -63 76 -87 123 -110l19 -9h-144l-229 260l-7 -9v-3z" />
    <glyph glyph-name="uniF033" unicode="&#xf033;" horiz-adv-x="204" 
d="M193 19l4 -1v-11h-205v11h4c33 3 58 30 58 63v199s2 304 2 305v3c-1 67 -22 116 -93 116c-105 0 -319 -75 -406 -123l-3 -2l-79 72l8 3c179 63 302 95 376 98c34 1 68 -4 102 -14c89 -31 174 -83 174 -189v-467c0 -33 25 -60 58 -63z" />
    <glyph glyph-name="uniF034" unicode="&#xf034;" horiz-adv-x="286" 
d="M651 -178l3 -2c13 -77 -27 -175 -145 -219c-35 -13 -75 -21 -115 -21c-95 0 -195 44 -255 169c-81 -73 -165 -147 -274 -165c-3 -1 -6 -2 -9 -2h-9c-7 -1 -14 -2 -21 -2c-103 0 -188 67 -210 169l-1 4l139 67v-15l-24 -12c-15 -8 -22 -26 -16 -42v-3l3 -3c1 -3 3 -6 5 -9
l6 -12l9 -12s6 -7 9 -10v-3l18 -18c25 -21 57 -35 93 -41c9 -1 18 -2 27 -2h9c87 -1 159 58 237 130c-73 135 -60 585 -59 604v119h-60v18h60c7 159 147 245 276 245c39 0 79 -8 157 -46l7 -3l-79 -71l-3 3c-42 42 -109 71 -163 71c-77 0 -115 -65 -116 -200h138v-18h-138
v-100c0 -4 -4 -417 43 -564c75 67 165 136 287 134c90 -2 157 -56 171 -138zM203 -196c45 -126 131 -201 223 -201c20 0 39 3 59 10c67 23 93 100 84 164c-8 58 -46 122 -130 127c-94 6 -169 -44 -236 -100z" />
    <glyph glyph-name="uniF035" unicode="&#xf035;" horiz-adv-x="549" 
d="M976 -178l4 -1c13 -77 -27 -175 -145 -219c-35 -13 -75 -21 -115 -21c-95 0 -194 44 -254 169c-90 -81 -184 -164 -312 -168c-103 0 -188 67 -210 169l-1 4l139 67v-15l-24 -12c-16 -8 -23 -27 -16 -43c28 -71 94 -113 180 -115c87 -2 159 57 237 129
c-45 84 -34 290 -26 441c2 42 4 79 4 107v30c0 118 -71 136 -113 136c-56 0 -101 -30 -153 -65l-12 -8v-326c0 -33 25 -60 58 -63h4v-11h-205v11h4c33 3 58 30 58 63v582c0 8 -4 15 -10 19s-14 5 -21 2l-37 -14v14l148 70v-324c60 45 136 92 214 92c95 0 143 -62 143 -184
v-25c0 -38 -3 -88 -6 -141c-6 -120 -14 -269 9 -346c75 67 165 136 287 134c90 -2 157 -56 171 -138zM529 -195c45 -126 131 -201 223 -201c20 0 39 3 59 10c67 23 93 100 84 164c-8 58 -46 122 -130 127c-94 6 -169 -44 -236 -100z" />
    <glyph glyph-name="uniF036" unicode="&#xf036;" horiz-adv-x="202" 
d="M182 645l-66 -65l-66 65l66 65zM657 -178l2 -5c13 -77 -27 -175 -145 -219c-35 -13 -75 -21 -115 -21c-95 0 -195 44 -255 169c-81 -73 -165 -147 -274 -165c-3 -1 -6 -2 -9 -2h-9c-7 -1 -14 -2 -21 -2c-105 0 -188 67 -210 170l-1 4l139 67v-15l-24 -12
c-15 -8 -22 -26 -16 -42v-3l3 -3c1 -3 2 -6 4 -9l6 -12l9 -12s6 -7 9 -10v-3l18 -18c25 -21 57 -35 93 -41c9 -1 18 -2 27 -2h9c87 -1 159 58 237 130c-72 134 -59 579 -58 604v65c0 8 -4 15 -10 19s-14 5 -21 2l-37 -14v14l148 70v-161c0 -93 3 -413 43 -539
c75 67 165 136 287 134c90 -2 157 -56 171 -138zM208 -199c45 -126 131 -201 223 -201c20 0 39 3 59 10c67 23 93 100 84 164c-8 58 -46 122 -130 127c-94 6 -169 -44 -236 -100z" />
    <glyph glyph-name="uniF037" unicode="&#xf037;" horiz-adv-x="934" 
d="M998 -181l-1 -1c13 -77 -27 -175 -145 -219c-35 -13 -75 -21 -115 -21c-95 0 -194 44 -254 169c-90 -81 -184 -164 -312 -168c-103 0 -188 67 -210 169l-1 4l139 67v-15l-24 -12c-16 -8 -23 -27 -16 -43c28 -71 94 -113 180 -115c87 -2 159 57 237 129
c-27 73 -35 118 -33 248v333c0 118 -67 136 -107 136c-52 0 -94 -30 -143 -65l-8 -5v-329c0 -33 25 -60 58 -63h4v-11h-205v11h4c33 3 58 30 58 63v310c0 13 -3 37 -9 51c-9 19 -32 28 -51 20l-24 -10l-7 12l124 60l2 -3c23 -24 39 -49 43 -90c59 44 127 92 204 92
c66 0 108 -33 126 -99l3 4l18 12c55 39 117 83 192 83c90 0 136 -62 136 -184v-255c0 -33 25 -60 58 -63h4v-11h-205v11h4c33 3 58 30 58 63v263c0 118 -67 136 -107 136c-53 0 -100 -34 -150 -70l-7 -5c4 -21 6 -44 6 -70v-325c1 -122 4 -141 18 -189
c75 66 165 135 287 133c90 -2 157 -56 171 -138zM828 -389c67 23 93 100 84 164c-8 58 -46 122 -130 127c-94 6 -169 -44 -236 -100c45 -126 131 -201 223 -201c20 0 39 3 59 10z" />
    <glyph glyph-name="uniF038" unicode="&#xf038;" horiz-adv-x="578" 
d="M1005 -178l5 -2c13 -77 -27 -175 -145 -219c-35 -13 -75 -21 -115 -21c-95 0 -194 44 -254 169c-90 -81 -184 -164 -312 -168c-103 0 -188 67 -210 169l-1 4l139 67v-15l-24 -12c-16 -8 -23 -27 -16 -43c28 -71 94 -113 180 -115c87 -2 159 57 237 129
c-45 84 -34 290 -26 441c2 42 4 79 4 107v30c0 118 -71 136 -113 136c-56 0 -101 -30 -153 -65l-12 -8v-326c0 -33 25 -60 58 -63h4v-11h-205v11h4c33 3 58 30 58 63v310c0 13 -3 37 -9 51c-9 19 -32 28 -51 20l-24 -10l-7 12l124 60l2 -3c23 -24 39 -49 43 -90
c60 45 136 92 214 92c95 0 143 -62 143 -184v-18c0 -38 -3 -89 -6 -142c-6 -123 -14 -275 10 -352c75 67 165 136 287 134c90 -2 157 -56 171 -138zM559 -196c45 -126 131 -201 223 -201c20 0 39 3 59 10c67 23 93 100 84 164c-8 58 -46 122 -130 127
c-94 6 -169 -44 -236 -100z" />
    <glyph glyph-name="uniF039" unicode="&#xf039;" horiz-adv-x="544" 
d="M968 -178h-1c13 -77 -27 -175 -145 -219c-35 -13 -75 -21 -115 -21c-95 0 -194 44 -254 169c-90 -81 -184 -164 -312 -168c-103 0 -188 67 -210 169l-1 4l139 67v-15l-24 -12c-16 -8 -23 -27 -16 -43c28 -71 94 -113 180 -115c87 -2 159 57 237 129
c-24 45 -34 128 -32 260c-34 -14 -71 -23 -110 -26c-76 -6 -145 16 -194 62s-76 113 -76 189c0 157 114 272 271 273c84 1 151 -13 200 -41l2 -1v-162c0 -38 -3 -89 -6 -143c-6 -123 -14 -275 9 -352c75 67 165 136 287 134c90 -2 157 -56 171 -138zM424 346l-1 2
c0 42 -17 83 -47 113c-34 33 -69 42 -115 42c-90 -7 -139 -70 -139 -178c0 -101 38 -201 96 -254c34 -31 73 -45 115 -41c31 3 58 18 80 44c2 47 5 94 7 135c2 42 4 79 4 107v30zM515 -192c45 -126 131 -201 223 -201c20 0 39 3 59 10c67 23 93 100 84 164
c-8 58 -46 122 -130 127c-94 6 -169 -44 -236 -100z" />
    <glyph glyph-name="uniF03A" unicode="&#xf03a;" horiz-adv-x="1254" 
d="M1106 411l-4 -3c68 -68 105 -160 104 -258c-2 -211 -182 -373 -390 -373c-167 0 -267 43 -398 138c-68 49 -127 92 -223 92h-135l4 7c1 1 68 117 92 156c35 56 83 88 151 100c-67 18 -109 57 -114 107c-3 34 8 67 31 92c32 35 84 54 147 54c42 0 105 -7 163 -65l4 -4
l-61 -55l-2 7c-19 61 -57 98 -104 101c-30 2 -61 -11 -82 -35s-29 -55 -23 -88c12 -64 67 -99 98 -110l14 -5l-6 -2l3 -1l-11 -2c-70 -17 -118 -78 -151 -138c-12 -22 -44 -82 -55 -103h64c165 0 246 -61 324 -120c72 -54 140 -105 268 -105c79 0 145 27 200 85
c67 70 104 173 101 283c-5 169 -114 344 -288 344c-78 0 -143 -25 -188 -72c-46 -48 -68 -115 -64 -194c4 -96 47 -208 155 -209c33 0 60 10 80 30c24 24 37 61 36 105c0 6 -3 11 -8 14s-11 3 -16 1l-27 -13l-1 16l124 60l2 -12c9 -62 -5 -118 -39 -157s-86 -60 -151 -60
c-142 0 -241 96 -241 233c0 148 155 273 339 273c105 0 206 -42 278 -114z" />
    <glyph glyph-name="circumflex" unicode="&#x2c6;" horiz-adv-x="0" 
d="M308 628l-136 -69h-13l149 139l151 -139h-13z" />
    <glyph glyph-name="breve" unicode="&#x2d8;" horiz-adv-x="337" 
d="M281 644c0 -46 -33 -84 -115 -85h-3c-83 1 -115 39 -116 85h57v-6c0 -38 22 -64 60 -65c38 1 60 27 60 65v6h57z" />
    <glyph glyph-name="gravecomb" unicode="&#x300;" horiz-adv-x="0" 
d="M302 560h-1c-65 41 -117 88 -155 128l-8 8h90l1 -3c19 -49 52 -89 81 -126l6 -8h-13z" />
    <glyph glyph-name="acutecomb" unicode="&#x301;" horiz-adv-x="0" 
d="M218 560l-2 -1h-12l6 8c29 37 62 77 81 126l1 3h90l-8 -8c-38 -40 -91 -87 -156 -128z" />
    <glyph glyph-name="tildecomb" unicode="&#x303;" horiz-adv-x="0" 
d="M440 647c-10 -59 -34 -88 -75 -88c-27 0 -46 13 -64 26c-16 11 -32 22 -52 22c-27 0 -47 -12 -57 -38l-1 -3h-12l1 6c11 59 33 82 73 82c27 0 46 -13 65 -26c16 -11 32 -22 52 -22c27 0 48 18 58 44l1 3h12z" />
    <glyph glyph-name="hookabovecomb" unicode="&#x309;" horiz-adv-x="0" 
d="M138 712c78 0 84 -67 61 -90c-10 -10 -29 -18 -38 -24c-14 -8 -25 -22 -24 -39c-3 4 -28 23 -7 46c12 13 21 18 25 41c2 12 0 51 -22 50c-23 0 -32 -26 -27 -55l-42 35c12 17 32 31 54 35c8 1 15 1 20 1z" />
    <glyph glyph-name="dotbelowcomb" unicode="&#x323;" horiz-adv-x="0" 
d="M226 -132c-27 0 -48 19 -48 44s21 44 48 44c28 0 50 -19 50 -44s-22 -44 -50 -44z" />
    <glyph glyph-name="uni1101" unicode="&#x1101;" horiz-adv-x="0" 
d="M441 629l-2 -1h-12l6 8c29 37 62 77 81 126l1 3h90l-8 -8c-38 -40 -91 -87 -156 -128zM308 628l-136 -69h-13l149 139l151 -139h-13z" />
    <glyph glyph-name="uni1102" unicode="&#x1102;" horiz-adv-x="0" 
d="M481 607h-1c-65 41 -117 88 -155 128l-8 8h90l1 -3c19 -49 52 -89 81 -126l6 -8h-13zM308 628l-136 -69h-13l149 139l151 -139h-13z" />
    <glyph glyph-name="uni1103" unicode="&#x1103;" horiz-adv-x="0" 
d="M420 788c78 0 84 -67 61 -90c-10 -10 -29 -18 -38 -24c-14 -8 -25 -22 -24 -39c-3 4 -28 23 -7 46c12 13 21 18 25 41c2 12 0 51 -22 50c-23 0 -32 -26 -27 -55l-42 35c12 17 32 31 54 35c8 1 15 1 20 1zM308 628l-136 -69h-13l149 139l151 -139h-13z" />
    <glyph glyph-name="uni1104" unicode="&#x1104;" horiz-adv-x="0" 
d="M437 803c-10 -59 -34 -88 -75 -88c-27 0 -46 13 -64 26c-16 11 -32 22 -52 22c-27 0 -47 -12 -57 -38l-1 -3h-12l1 6c11 59 33 82 73 82c27 0 46 -13 65 -26c16 -11 32 -22 52 -22c27 0 48 18 58 44l1 3h12zM308 628l-136 -69h-13l149 139l151 -139h-13z" />
    <glyph glyph-name="dotlessi" unicode="&#x131;" horiz-adv-x="222" 
d="M216 20h5v-11h-205v11h4c33 3 58 30 58 63v352c0 8 -4 15 -10 19s-14 5 -21 2l-37 -14v14l148 70v-443c0 -33 25 -60 58 -63z" />
    <glyph glyph-name="Dcroat" unicode="&#x110;" horiz-adv-x="712" 
d="M316 701v3c230 0 368 -123 368 -329c0 -214 -159 -364 -387 -364h-283v11h4c33 3 58 30 58 63v275h-139v24h139v243c0 33 -25 60 -58 63h-4v11h302zM167 67l-1 -1c28 -14 74 -30 140 -30c194 0 277 88 277 293c0 230 -109 357 -306 357h-110v-302h136v-24h-136v-293z" />
    <glyph glyph-name="dcroat" unicode="&#x111;" horiz-adv-x="548" 
d="M600 594h-109v-499c0 -28 8 -55 23 -79l5 -9h-108l-7 31c-33 -33 -84 -37 -126 -37c-151 0 -253 98 -253 243c0 135 82 280 312 280c28 0 52 -2 74 -7v77h-177v24h177v48c0 8 -4 15 -10 19s-14 5 -21 2l-37 -14v14l148 70v-139h109v-24zM105 297l2 1
c0 -150 93 -263 216 -263c47 0 89 19 89 74v334c-25 25 -68 54 -134 54c-110 0 -173 -73 -173 -200z" />
    <glyph glyph-name="Ohorn" unicode="&#x1a0;" horiz-adv-x="802" 
d="M541 698c139 -50 231 -178 231 -340c0 -211 -156 -364 -371 -364s-371 153 -371 364s156 364 371 364c44 0 86 -6 124 -18c25 6 30 24 28 50l-4 45l77 12l-4 -21c-4 -46 -37 -83 -81 -92zM440 20c143 0 239 114 239 284c0 190 -127 393 -316 393
c-143 0 -239 -114 -239 -283c0 -190 127 -394 316 -394z" />
    <glyph glyph-name="ohorn" unicode="&#x1a1;" 
d="M449 481c70 -46 113 -124 113 -219c0 -152 -113 -262 -268 -262s-268 110 -268 262s113 262 268 262c54 0 103 -13 144 -37c20 8 25 25 23 49l-4 46l77 12l-4 -22c-4 -46 -37 -83 -81 -91zM334 24c85 0 138 68 138 177c0 141 -89 298 -217 298c-85 0 -138 -67 -138 -175
c0 -142 89 -300 217 -300z" />
    <glyph glyph-name="uhorn" unicode="&#x1b0;" horiz-adv-x="543" 
d="M509 587l77 12l-4 -22c-4 -47 -38 -84 -84 -92l-11 -2v-386c0 -8 9 -24 23 -34l7 -5l-110 -51v103l-25 -18c-54 -38 -116 -81 -189 -81c-95 0 -143 62 -143 184v241c0 8 -9 24 -23 34l-7 5l110 52v-340c0 -118 71 -136 113 -136c49 0 88 28 133 60l31 21v304
c0 8 -9 24 -23 34l-7 5l110 52v-35c23 6 28 24 26 49z" />
    <glyph glyph-name="Uhorn" unicode="&#x1af;" horiz-adv-x="674" 
d="M668 789l76 12l-4 -21c-4 -47 -38 -84 -84 -92h-2c-39 -19 -63 -57 -63 -100v-307c-1 -187 -91 -286 -261 -286c-171 0 -261 99 -261 286v345c0 33 -25 60 -58 63h-4v11h216v-11h-4c-33 -3 -58 -30 -58 -63v-361c0 -153 80 -248 208 -248c127 0 206 95 206 248v327
c-2 43 -29 81 -70 98l-3 1v10h157c11 9 14 24 12 43z" />
    <glyph glyph-name="Itilde" unicode="&#x128;" horiz-adv-x="227" 
d="M239 829c-10 -59 -34 -88 -75 -88c-27 0 -46 13 -64 26c-16 11 -32 22 -52 22c-27 0 -47 -12 -57 -38l-1 -3h-12l1 6c11 59 33 82 73 82c27 0 46 -13 65 -26c16 -11 32 -22 52 -22c27 0 48 18 58 44l1 3h12zM216 689l-1 1c-33 -3 -58 -30 -58 -63v-543
c0 -33 25 -60 58 -63h4v-11h-215v11h4c33 3 58 30 58 63v542c0 33 -25 60 -58 63h-4v11h216v-11h-4z" />
    <glyph glyph-name="itilde" unicode="&#x129;" horiz-adv-x="221" 
d="M236 647c-10 -59 -34 -88 -75 -88c-27 0 -46 13 -64 26c-16 11 -32 22 -52 22c-27 0 -47 -12 -57 -38l-1 -3h-12l1 6c11 59 33 82 73 82c27 0 46 -13 65 -26c16 -11 32 -22 52 -22c27 0 48 18 58 44l1 3h12zM216 20h5v-11h-205v11h4c33 3 58 30 58 63v352
c0 8 -4 15 -10 19s-14 5 -21 2l-37 -14v14l148 70v-443c0 -33 25 -60 58 -63z" />
    <glyph glyph-name="Utilde" unicode="&#x168;" horiz-adv-x="675" 
d="M462 829c-10 -59 -34 -88 -75 -88c-27 0 -46 13 -64 26c-16 11 -32 22 -52 22c-27 0 -47 -12 -57 -38l-1 -3h-12l1 6c11 59 33 82 73 82c27 0 46 -13 65 -26c16 -11 32 -22 52 -22c27 0 48 18 58 44l1 3h12zM7 689v11h216v-11h-4c-33 -3 -58 -30 -58 -63v-361
c0 -153 80 -248 208 -248c127 0 206 95 206 248v327c-2 43 -29 81 -70 98l-3 1v10h161v-10l-3 -1c-42 -17 -69 -57 -69 -102v-307c-1 -187 -91 -286 -261 -286c-171 0 -261 99 -261 286v345c0 33 -25 60 -58 63h-4z" />
    <glyph glyph-name="utilde" unicode="&#x169;" horiz-adv-x="544" 
d="M397 647c-10 -59 -34 -88 -75 -88c-27 0 -46 13 -64 26c-16 11 -32 22 -52 22c-27 0 -47 -12 -57 -38l-1 -3h-12l1 6c11 59 33 82 73 82c27 0 46 -13 65 -26c16 -11 32 -22 52 -22c27 0 48 18 58 44l1 3h12zM517 58l-110 -51v103c-61 -46 -135 -99 -214 -99
c-95 0 -143 62 -143 184v241c0 8 -9 24 -23 34l-7 5l110 52v-340c0 -118 71 -136 113 -136c49 0 88 28 133 60c10 7 20 14 31 21v304c0 8 -9 24 -23 34l-7 5l110 52v-430c0 -8 9 -24 23 -34z" />
    <glyph glyph-name="Abreve" unicode="&#x102;" horiz-adv-x="690" 
d="M461 826c0 -46 -33 -84 -115 -85h-3c-83 1 -115 39 -116 85h57v-6c0 -38 22 -64 60 -65c38 1 60 27 60 65v6h57zM703 20l5 -1v-11h-243v12h5c17 0 32 8 42 22s12 31 6 47l-36 91h-348l-37 -88c-11 -27 1 -59 27 -72l3 -1v-9h-134v10l3 1c40 16 71 47 88 87l25 58l193 471
l-26 65h101l245 -627c13 -33 45 -55 81 -55zM311 612l-170 -414h333z" />
    <glyph glyph-name="abreve" unicode="&#x103;" horiz-adv-x="567" 
d="M400 644c0 -46 -33 -84 -115 -85h-3c-83 1 -115 39 -116 85h57v-6c0 -38 22 -64 60 -65c38 1 60 27 60 65v6h57zM435 156l-1 -3v22l1 57c-77 -173 -167 -235 -227 -235c-71 0 -129 30 -159 81c-25 43 -27 95 -5 136c53 96 147 104 238 112c53 5 108 10 154 33
c-1 78 -28 119 -105 119s-170 -40 -226 -67l-3 -1l-79 72l8 3c65 23 137 36 208 38c34 1 68 -4 102 -14c89 -31 174 -83 174 -189v-236c0 -8 4 -15 10 -19s14 -5 21 -2l4 -9l-115 -61v163zM152 267c-34 -24 -36 -71 -27 -107c12 -43 46 -89 95 -94c101 -10 163 113 186 159
c2 4 4 7 5 10c16 30 24 57 25 82v14c-48 -18 -91 -20 -132 -22c-52 -3 -101 -6 -152 -42z" />
    <glyph glyph-name="Agrave" unicode="&#xc0;" horiz-adv-x="690" 
d="M369 742h-1c-65 41 -117 88 -155 128l-8 8h90l1 -3c19 -49 52 -89 81 -126l6 -8h-13zM703 20l5 -1v-11h-243v12h5c17 0 32 8 42 22s12 31 6 47l-36 91h-348l-37 -88c-11 -27 1 -59 27 -72l3 -1v-9h-134v10l3 1c40 16 71 47 88 87l25 58l193 471l-26 65h101l245 -627
c13 -33 45 -55 81 -55zM311 612l-170 -414h333z" />
    <glyph glyph-name="Aacute" unicode="&#xc1;" horiz-adv-x="690" 
d="M331 742l-2 -1h-12l6 8c29 37 62 77 81 126l1 3h90l-8 -8c-38 -40 -91 -87 -156 -128zM703 20l5 -1v-11h-243v12h5c17 0 32 8 42 22s12 31 6 47l-36 91h-348l-37 -88c-11 -27 1 -59 27 -72l3 -1v-9h-134v10l3 1c40 16 71 47 88 87l25 58l193 471l-26 65h101l245 -627
c13 -33 45 -55 81 -55zM311 612l-170 -414h333z" />
    <glyph glyph-name="Acircumflex" unicode="&#xc2;" horiz-adv-x="690" 
d="M344 810l-136 -69h-13l149 139l151 -139h-13zM703 20l5 -1v-11h-243v12h5c17 0 32 8 42 22s12 31 6 47l-36 91h-348l-37 -88c-11 -27 1 -59 27 -72l3 -1v-9h-134v10l3 1c40 16 71 47 88 87l25 58l193 471l-26 65h101l245 -627c13 -33 45 -55 81 -55zM311 612l-170 -414
h333z" />
    <glyph glyph-name="Atilde" unicode="&#xc3;" horiz-adv-x="690" 
d="M470 829c-10 -59 -34 -88 -75 -88c-27 0 -46 13 -64 26c-16 11 -32 22 -52 22c-27 0 -47 -12 -57 -38l-1 -3h-12l1 6c11 59 33 82 73 82c27 0 46 -13 65 -26c16 -11 32 -22 52 -22c27 0 48 18 58 44l1 3h12zM703 20l5 -1v-11h-243v12h5c17 0 32 8 42 22s12 31 6 47
l-36 91h-348l-37 -88c-11 -27 1 -59 27 -72l3 -1v-9h-134v10l3 1c40 16 71 47 88 87l25 58l193 471l-26 65h101l245 -627c13 -33 45 -55 81 -55zM311 612l-170 -414h333z" />
    <glyph glyph-name="uni1EA0" unicode="&#x1ea0;" horiz-adv-x="691" 
d="M703 20l5 -1v-11h-243v12h5c17 0 32 8 42 22s12 31 6 47l-36 91h-348l-37 -88c-11 -27 1 -59 27 -72l3 -1v-9h-134v10l3 1c40 16 71 47 88 87l25 58l193 471l-26 65h101l245 -627c13 -33 45 -55 81 -55zM311 612l-170 -414h333zM318 -132c-27 0 -48 19 -48 44
s21 44 48 44c28 0 50 -19 50 -44s-22 -44 -50 -44z" />
    <glyph glyph-name="uni1EA1" unicode="&#x1ea1;" horiz-adv-x="567" 
d="M435 156l-1 -3v22l1 57c-77 -173 -167 -235 -227 -235c-71 0 -129 30 -159 81c-25 43 -27 95 -5 136c53 96 147 104 238 112c53 5 108 10 154 33c-1 78 -28 119 -105 119s-170 -40 -226 -67l-3 -1l-79 72l8 3c65 23 137 36 208 38c34 1 68 -4 102 -14
c89 -31 174 -83 174 -189v-236c0 -8 4 -15 10 -19s14 -5 21 -2l4 -9l-115 -61v163zM152 267c-34 -24 -36 -71 -27 -107c12 -43 46 -89 95 -94c101 -10 163 113 186 159c2 4 4 7 5 10c16 30 24 57 25 82v14c-48 -18 -91 -20 -132 -22c-52 -3 -101 -6 -152 -42zM282 -132
c-27 0 -48 19 -48 44s21 44 48 44c28 0 50 -19 50 -44s-22 -44 -50 -44z" />
    <glyph glyph-name="uni1EA2" unicode="&#x1ea2;" horiz-adv-x="691" 
d="M345 894c78 0 84 -67 61 -90c-10 -10 -29 -18 -38 -24c-14 -8 -25 -22 -24 -39c-3 4 -28 23 -7 46c12 13 21 18 25 41c2 12 0 51 -22 50c-23 0 -32 -26 -27 -55l-42 35c12 17 32 31 54 35c8 1 15 1 20 1zM703 20l5 -1v-11h-243v12h5c17 0 32 8 42 22s12 31 6 47l-36 91
h-348l-37 -88c-11 -27 1 -59 27 -72l3 -1v-9h-134v10l3 1c40 16 71 47 88 87l25 58l193 471l-26 65h101l245 -627c13 -33 45 -55 81 -55zM311 612l-170 -414h333z" />
    <glyph glyph-name="uni1EA3" unicode="&#x1ea3;" horiz-adv-x="567" 
d="M279 712c78 0 84 -67 61 -90c-10 -10 -29 -18 -38 -24c-14 -8 -25 -22 -24 -39c-3 4 -28 23 -7 46c12 13 21 18 25 41c2 12 0 51 -22 50c-23 0 -32 -26 -27 -55l-42 35c12 17 32 31 54 35c8 1 15 1 20 1zM435 156l-1 -3v22l1 57c-77 -173 -167 -235 -227 -235
c-71 0 -129 30 -159 81c-25 43 -27 95 -5 136c53 96 147 104 238 112c53 5 108 10 154 33c-1 78 -28 119 -105 119s-170 -40 -226 -67l-3 -1l-79 72l8 3c65 23 137 36 208 38c34 1 68 -4 102 -14c89 -31 174 -83 174 -189v-236c0 -8 4 -15 10 -19s14 -5 21 -2l4 -9l-115 -61
v163zM152 267c-34 -24 -36 -71 -27 -107c12 -43 46 -89 95 -94c101 -10 163 113 186 159c2 4 4 7 5 10c16 30 24 57 25 82v14c-48 -18 -91 -20 -132 -22c-52 -3 -101 -6 -152 -42z" />
    <glyph glyph-name="uni1EA4" unicode="&#x1ea4;" horiz-adv-x="690" 
d="M477 811l-2 -1h-12l6 8c29 37 62 77 81 126l1 3h90l-8 -8c-38 -40 -91 -87 -156 -128zM344 810l-136 -69h-13l149 139l151 -139h-13zM703 20l5 -1v-11h-243v12h5c17 0 32 8 42 22s12 31 6 47l-36 91h-348l-37 -88c-11 -27 1 -59 27 -72l3 -1v-9h-134v10l3 1
c40 16 71 47 88 87l25 58l193 471l-26 65h101l245 -627c13 -33 45 -55 81 -55zM311 612l-170 -414h333z" />
    <glyph glyph-name="uni1EA5" unicode="&#x1ea5;" horiz-adv-x="567" 
d="M417 629l-2 -1h-12l6 8c29 37 62 77 81 126l1 3h90l-8 -8c-38 -40 -91 -87 -156 -128zM284 628l-136 -69h-13l149 139l151 -139h-13zM435 156l-1 -3v22l1 57c-77 -173 -167 -235 -227 -235c-71 0 -129 30 -159 81c-25 43 -27 95 -5 136c53 96 147 104 238 112
c53 5 108 10 154 33c-1 78 -28 119 -105 119s-170 -40 -226 -67l-3 -1l-79 72l8 3c65 23 137 36 208 38c34 1 68 -4 102 -14c89 -31 174 -83 174 -189v-236c0 -8 4 -15 10 -19s14 -5 21 -2l4 -9l-115 -61v163zM152 267c-34 -24 -36 -71 -27 -107c12 -43 46 -89 95 -94
c101 -10 163 113 186 159c2 4 4 7 5 10c16 30 24 57 25 82v14c-48 -18 -91 -20 -132 -22c-52 -3 -101 -6 -152 -42z" />
    <glyph glyph-name="uni1EA6" unicode="&#x1ea6;" horiz-adv-x="690" 
d="M517 789h-1c-65 41 -117 88 -155 128l-8 8h90l1 -3c19 -49 52 -89 81 -126l6 -8h-13zM344 810l-136 -69h-13l149 139l151 -139h-13zM703 20l5 -1v-11h-243v12h5c17 0 32 8 42 22s12 31 6 47l-36 91h-348l-37 -88c-11 -27 1 -59 27 -72l3 -1v-9h-134v10l3 1
c40 16 71 47 88 87l25 58l193 471l-26 65h101l245 -627c13 -33 45 -55 81 -55zM311 612l-170 -414h333z" />
    <glyph glyph-name="uni1EA7" unicode="&#x1ea7;" horiz-adv-x="567" 
d="M457 607h-1c-65 41 -117 88 -155 128l-8 8h90l1 -3c19 -49 52 -89 81 -126l6 -8h-13zM284 628l-136 -69h-13l149 139l151 -139h-13zM435 156l-1 -3v22l1 57c-77 -173 -167 -235 -227 -235c-71 0 -129 30 -159 81c-25 43 -27 95 -5 136c53 96 147 104 238 112
c53 5 108 10 154 33c-1 78 -28 119 -105 119s-170 -40 -226 -67l-3 -1l-79 72l8 3c65 23 137 36 208 38c34 1 68 -4 102 -14c89 -31 174 -83 174 -189v-236c0 -8 4 -15 10 -19s14 -5 21 -2l4 -9l-115 -61v163zM152 267c-34 -24 -36 -71 -27 -107c12 -43 46 -89 95 -94
c101 -10 163 113 186 159c2 4 4 7 5 10c16 30 24 57 25 82v14c-48 -18 -91 -20 -132 -22c-52 -3 -101 -6 -152 -42z" />
    <glyph glyph-name="uni1EA8" unicode="&#x1ea8;" horiz-adv-x="690" 
d="M456 970c78 0 84 -67 61 -90c-10 -10 -29 -18 -38 -24c-14 -8 -25 -22 -24 -39c-3 4 -28 23 -7 46c12 13 21 18 25 41c2 12 0 51 -22 50c-23 0 -32 -26 -27 -55l-42 35c12 17 32 31 54 35c8 1 15 1 20 1zM344 810l-136 -69h-13l149 139l151 -139h-13zM703 20l5 -1v-11
h-243v12h5c17 0 32 8 42 22s12 31 6 47l-36 91h-348l-37 -88c-11 -27 1 -59 27 -72l3 -1v-9h-134v10l3 1c40 16 71 47 88 87l25 58l193 471l-26 65h101l245 -627c13 -33 45 -55 81 -55zM311 612l-170 -414h333z" />
    <glyph glyph-name="uni1EA9" unicode="&#x1ea9;" horiz-adv-x="567" 
d="M396 788c78 0 84 -67 61 -90c-10 -10 -29 -18 -38 -24c-14 -8 -25 -22 -24 -39c-3 4 -28 23 -7 46c12 13 21 18 25 41c2 12 0 51 -22 50c-23 0 -32 -26 -27 -55l-42 35c12 17 32 31 54 35c8 1 15 1 20 1zM284 628l-136 -69h-13l149 139l151 -139h-13zM435 156l-1 -3v22
l1 57c-77 -173 -167 -235 -227 -235c-71 0 -129 30 -159 81c-25 43 -27 95 -5 136c53 96 147 104 238 112c53 5 108 10 154 33c-1 78 -28 119 -105 119s-170 -40 -226 -67l-3 -1l-79 72l8 3c65 23 137 36 208 38c34 1 68 -4 102 -14c89 -31 174 -83 174 -189v-236
c0 -8 4 -15 10 -19s14 -5 21 -2l4 -9l-115 -61v163zM152 267c-34 -24 -36 -71 -27 -107c12 -43 46 -89 95 -94c101 -10 163 113 186 159c2 4 4 7 5 10c16 30 24 57 25 82v14c-48 -18 -91 -20 -132 -22c-52 -3 -101 -6 -152 -42z" />
    <glyph glyph-name="uni1EAA" unicode="&#x1eaa;" horiz-adv-x="690" 
d="M473 985c-10 -59 -34 -88 -75 -88c-27 0 -46 13 -64 26c-16 11 -32 22 -52 22c-27 0 -47 -12 -57 -38l-1 -3h-12l1 6c11 59 33 82 73 82c27 0 46 -13 65 -26c16 -11 32 -22 52 -22c27 0 48 18 58 44l1 3h12zM344 810l-136 -69h-13l149 139l151 -139h-13zM703 20l5 -1v-11
h-243v12h5c17 0 32 8 42 22s12 31 6 47l-36 91h-348l-37 -88c-11 -27 1 -59 27 -72l3 -1v-9h-134v10l3 1c40 16 71 47 88 87l25 58l193 471l-26 65h101l245 -627c13 -33 45 -55 81 -55zM311 612l-170 -414h333z" />
    <glyph glyph-name="uni1EAB" unicode="&#x1eab;" horiz-adv-x="567" 
d="M413 803c-10 -59 -34 -88 -75 -88c-27 0 -46 13 -64 26c-16 11 -32 22 -52 22c-27 0 -47 -12 -57 -38l-1 -3h-12l1 6c11 59 33 82 73 82c27 0 46 -13 65 -26c16 -11 32 -22 52 -22c27 0 48 18 58 44l1 3h12zM284 628l-136 -69h-13l149 139l151 -139h-13zM435 156l-1 -3
v22l1 57c-77 -173 -167 -235 -227 -235c-71 0 -129 30 -159 81c-25 43 -27 95 -5 136c53 96 147 104 238 112c53 5 108 10 154 33c-1 78 -28 119 -105 119s-170 -40 -226 -67l-3 -1l-79 72l8 3c65 23 137 36 208 38c34 1 68 -4 102 -14c89 -31 174 -83 174 -189v-236
c0 -8 4 -15 10 -19s14 -5 21 -2l4 -9l-115 -61v163zM152 267c-34 -24 -36 -71 -27 -107c12 -43 46 -89 95 -94c101 -10 163 113 186 159c2 4 4 7 5 10c16 30 24 57 25 82v14c-48 -18 -91 -20 -132 -22c-52 -3 -101 -6 -152 -42z" />
    <glyph glyph-name="uni1EAC" unicode="&#x1eac;" horiz-adv-x="691" 
d="M344 810l-136 -69h-13l149 139l151 -139h-13zM703 20l5 -1v-11h-243v12h5c17 0 32 8 42 22s12 31 6 47l-36 91h-348l-37 -88c-11 -27 1 -59 27 -72l3 -1v-9h-134v10l3 1c40 16 71 47 88 87l25 58l193 471l-26 65h101l245 -627c13 -33 45 -55 81 -55zM311 612l-170 -414
h333zM318 -132c-27 0 -48 19 -48 44s21 44 48 44c28 0 50 -19 50 -44s-22 -44 -50 -44z" />
    <glyph glyph-name="uni1EAD" unicode="&#x1ead;" horiz-adv-x="567" 
d="M284 628l-136 -69h-13l149 139l151 -139h-13zM435 156l-1 -3v22l1 57c-77 -173 -167 -235 -227 -235c-71 0 -129 30 -159 81c-25 43 -27 95 -5 136c53 96 147 104 238 112c53 5 108 10 154 33c-1 78 -28 119 -105 119s-170 -40 -226 -67l-3 -1l-79 72l8 3
c65 23 137 36 208 38c34 1 68 -4 102 -14c89 -31 174 -83 174 -189v-236c0 -8 4 -15 10 -19s14 -5 21 -2l4 -9l-115 -61v163zM152 267c-34 -24 -36 -71 -27 -107c12 -43 46 -89 95 -94c101 -10 163 113 186 159c2 4 4 7 5 10c16 30 24 57 25 82v14c-48 -18 -91 -20 -132 -22
c-52 -3 -101 -6 -152 -42zM282 -132c-27 0 -48 19 -48 44s21 44 48 44c28 0 50 -19 50 -44s-22 -44 -50 -44z" />
    <glyph glyph-name="uni1EAE" unicode="&#x1eae;" horiz-adv-x="690" 
d="M341 847l-2 -1h-12l6 8c29 37 62 77 81 126l1 3h90l-8 -8c-38 -40 -91 -87 -156 -128zM461 826c0 -46 -33 -84 -115 -85h-3c-83 1 -115 39 -116 85h57v-6c0 -38 22 -64 60 -65c38 1 60 27 60 65v6h57zM703 20l5 -1v-11h-243v12h5c17 0 32 8 42 22s12 31 6 47l-36 91h-348
l-37 -88c-11 -27 1 -59 27 -72l3 -1v-9h-134v10l3 1c40 16 71 47 88 87l25 58l193 471l-26 65h101l245 -627c13 -33 45 -55 81 -55zM311 612l-170 -414h333z" />
    <glyph glyph-name="uni1EAF" unicode="&#x1eaf;" horiz-adv-x="567" 
d="M280 665l-2 -1h-12l6 8c29 37 62 77 81 126l1 3h90l-8 -8c-38 -40 -91 -87 -156 -128zM400 644c0 -46 -33 -84 -115 -85h-3c-83 1 -115 39 -116 85h57v-6c0 -38 22 -64 60 -65c38 1 60 27 60 65v6h57zM435 156l-1 -3v22l1 57c-77 -173 -167 -235 -227 -235
c-71 0 -129 30 -159 81c-25 43 -27 95 -5 136c53 96 147 104 238 112c53 5 108 10 154 33c-1 78 -28 119 -105 119s-170 -40 -226 -67l-3 -1l-79 72l8 3c65 23 137 36 208 38c34 1 68 -4 102 -14c89 -31 174 -83 174 -189v-236c0 -8 4 -15 10 -19s14 -5 21 -2l4 -9l-115 -61
v163zM152 267c-34 -24 -36 -71 -27 -107c12 -43 46 -89 95 -94c101 -10 163 113 186 159c2 4 4 7 5 10c16 30 24 57 25 82v14c-48 -18 -91 -20 -132 -22c-52 -3 -101 -6 -152 -42z" />
    <glyph glyph-name="uni1EB0" unicode="&#x1eb0;" horiz-adv-x="690" 
d="M355 848h-1c-65 41 -117 88 -155 128l-8 8h90l1 -3c19 -49 52 -89 81 -126l6 -8h-13zM461 826c0 -46 -33 -84 -115 -85h-3c-83 1 -115 39 -116 85h57v-6c0 -38 22 -64 60 -65c38 1 60 27 60 65v6h57zM703 20l5 -1v-11h-243v12h5c17 0 32 8 42 22s12 31 6 47l-36 91h-348
l-37 -88c-11 -27 1 -59 27 -72l3 -1v-9h-134v10l3 1c40 16 71 47 88 87l25 58l193 471l-26 65h101l245 -627c13 -33 45 -55 81 -55zM311 612l-170 -414h333z" />
    <glyph glyph-name="uni1EB1" unicode="&#x1eb1;" horiz-adv-x="567" 
d="M294 666h-1c-65 41 -117 88 -155 128l-8 8h90l1 -3c19 -49 52 -89 81 -126l6 -8h-13zM400 644c0 -46 -33 -84 -115 -85h-3c-83 1 -115 39 -116 85h57v-6c0 -38 22 -64 60 -65c38 1 60 27 60 65v6h57zM435 156l-1 -3v22l1 57c-77 -173 -167 -235 -227 -235
c-71 0 -129 30 -159 81c-25 43 -27 95 -5 136c53 96 147 104 238 112c53 5 108 10 154 33c-1 78 -28 119 -105 119s-170 -40 -226 -67l-3 -1l-79 72l8 3c65 23 137 36 208 38c34 1 68 -4 102 -14c89 -31 174 -83 174 -189v-236c0 -8 4 -15 10 -19s14 -5 21 -2l4 -9l-115 -61
v163zM152 267c-34 -24 -36 -71 -27 -107c12 -43 46 -89 95 -94c101 -10 163 113 186 159c2 4 4 7 5 10c16 30 24 57 25 82v14c-48 -18 -91 -20 -132 -22c-52 -3 -101 -6 -152 -42z" />
    <glyph glyph-name="uni1EB2" unicode="&#x1eb2;" horiz-adv-x="690" 
d="M344 999c78 0 84 -67 61 -90c-10 -10 -29 -18 -38 -24c-14 -8 -25 -22 -24 -39c-3 4 -28 23 -7 46c12 13 21 18 25 41c2 12 0 51 -22 50c-23 0 -32 -26 -27 -55l-42 35c12 17 32 31 54 35c8 1 15 1 20 1zM461 826c0 -46 -33 -84 -115 -85h-3c-83 1 -115 39 -116 85h57v-6
c0 -38 22 -64 60 -65c38 1 60 27 60 65v6h57zM703 20l5 -1v-11h-243v12h5c17 0 32 8 42 22s12 31 6 47l-36 91h-348l-37 -88c-11 -27 1 -59 27 -72l3 -1v-9h-134v10l3 1c40 16 71 47 88 87l25 58l193 471l-26 65h101l245 -627c13 -33 45 -55 81 -55zM311 612l-170 -414h333z
" />
    <glyph glyph-name="uni1EB3" unicode="&#x1eb3;" horiz-adv-x="567" 
d="M283 817c78 0 84 -67 61 -90c-10 -10 -29 -18 -38 -24c-14 -8 -25 -22 -24 -39c-3 4 -28 23 -7 46c12 13 21 18 25 41c2 12 0 51 -22 50c-23 0 -32 -26 -27 -55l-42 35c12 17 32 31 54 35c8 1 15 1 20 1zM400 644c0 -46 -33 -84 -115 -85h-3c-83 1 -115 39 -116 85h57v-6
c0 -38 22 -64 60 -65c38 1 60 27 60 65v6h57zM435 156l-1 -3v22l1 57c-77 -173 -167 -235 -227 -235c-71 0 -129 30 -159 81c-25 43 -27 95 -5 136c53 96 147 104 238 112c53 5 108 10 154 33c-1 78 -28 119 -105 119s-170 -40 -226 -67l-3 -1l-79 72l8 3
c65 23 137 36 208 38c34 1 68 -4 102 -14c89 -31 174 -83 174 -189v-236c0 -8 4 -15 10 -19s14 -5 21 -2l4 -9l-115 -61v163zM152 267c-34 -24 -36 -71 -27 -107c12 -43 46 -89 95 -94c101 -10 163 113 186 159c2 4 4 7 5 10c16 30 24 57 25 82v14c-48 -18 -91 -20 -132 -22
c-52 -3 -101 -6 -152 -42z" />
    <glyph glyph-name="uni1EB4" unicode="&#x1eb4;" horiz-adv-x="690" 
d="M470 939c-10 -59 -34 -88 -75 -88c-27 0 -46 13 -64 26c-16 11 -32 22 -52 22c-27 0 -47 -12 -57 -38l-1 -3h-12l1 6c11 59 33 82 73 82c27 0 46 -13 65 -26c16 -11 32 -22 52 -22c27 0 48 18 58 44l1 3h12zM461 826c0 -46 -33 -84 -115 -85h-3c-83 1 -115 39 -116 85h57
v-6c0 -38 22 -64 60 -65c38 1 60 27 60 65v6h57zM703 20l5 -1v-11h-243v12h5c17 0 32 8 42 22s12 31 6 47l-36 91h-348l-37 -88c-11 -27 1 -59 27 -72l3 -1v-9h-134v10l3 1c40 16 71 47 88 87l25 58l193 471l-26 65h101l245 -627c13 -33 45 -55 81 -55zM311 612l-170 -414
h333z" />
    <glyph glyph-name="uni1EB5" unicode="&#x1eb5;" horiz-adv-x="567" 
d="M409 761c-10 -59 -34 -88 -75 -88c-27 0 -46 13 -64 26c-16 11 -32 22 -52 22c-27 0 -47 -12 -57 -38l-1 -3h-12l1 6c11 59 33 82 73 82c27 0 46 -13 65 -26c16 -11 32 -22 52 -22c27 0 48 18 58 44l1 3h12zM400 644c0 -46 -33 -84 -115 -85h-3c-83 1 -115 39 -116 85h57
v-6c0 -38 22 -64 60 -65c38 1 60 27 60 65v6h57zM435 156l-1 -3v22l1 57c-77 -173 -167 -235 -227 -235c-71 0 -129 30 -159 81c-25 43 -27 95 -5 136c53 96 147 104 238 112c53 5 108 10 154 33c-1 78 -28 119 -105 119s-170 -40 -226 -67l-3 -1l-79 72l8 3
c65 23 137 36 208 38c34 1 68 -4 102 -14c89 -31 174 -83 174 -189v-236c0 -8 4 -15 10 -19s14 -5 21 -2l4 -9l-115 -61v163zM152 267c-34 -24 -36 -71 -27 -107c12 -43 46 -89 95 -94c101 -10 163 113 186 159c2 4 4 7 5 10c16 30 24 57 25 82v14c-48 -18 -91 -20 -132 -22
c-52 -3 -101 -6 -152 -42z" />
    <glyph glyph-name="uni1EB6" unicode="&#x1eb6;" horiz-adv-x="691" 
d="M461 826c0 -46 -33 -84 -115 -85h-3c-83 1 -115 39 -116 85h57v-6c0 -38 22 -64 60 -65c38 1 60 27 60 65v6h57zM703 20l5 -1v-11h-243v12h5c17 0 32 8 42 22s12 31 6 47l-36 91h-348l-37 -88c-11 -27 1 -59 27 -72l3 -1v-9h-134v10l3 1c40 16 71 47 88 87l25 58l193 471
l-26 65h101l245 -627c13 -33 45 -55 81 -55zM311 612l-170 -414h333zM318 -132c-27 0 -48 19 -48 44s21 44 48 44c28 0 50 -19 50 -44s-22 -44 -50 -44z" />
    <glyph glyph-name="uni1EB7" unicode="&#x1eb7;" horiz-adv-x="567" 
d="M400 644c0 -46 -33 -84 -115 -85h-3c-83 1 -115 39 -116 85h57v-6c0 -38 22 -64 60 -65c38 1 60 27 60 65v6h57zM435 156l-1 -3v22l1 57c-77 -173 -167 -235 -227 -235c-71 0 -129 30 -159 81c-25 43 -27 95 -5 136c53 96 147 104 238 112c53 5 108 10 154 33
c-1 78 -28 119 -105 119s-170 -40 -226 -67l-3 -1l-79 72l8 3c65 23 137 36 208 38c34 1 68 -4 102 -14c89 -31 174 -83 174 -189v-236c0 -8 4 -15 10 -19s14 -5 21 -2l4 -9l-115 -61v163zM152 267c-34 -24 -36 -71 -27 -107c12 -43 46 -89 95 -94c101 -10 163 113 186 159
c2 4 4 7 5 10c16 30 24 57 25 82v14c-48 -18 -91 -20 -132 -22c-52 -3 -101 -6 -152 -42zM282 -132c-27 0 -48 19 -48 44s21 44 48 44c28 0 50 -19 50 -44s-22 -44 -50 -44z" />
    <glyph glyph-name="uni1EB8" unicode="&#x1eb8;" horiz-adv-x="572" 
d="M535 161l16 33l-43 -212l-37 28h-463v11h4c33 3 58 30 58 63v543c0 33 -25 60 -58 63h-4v11h506l38 -185l-16 32c-43 83 -127 135 -220 135h-154v-319h155c45 0 85 27 102 69l1 3h10v-163h-10l-1 3c-17 42 -58 69 -104 69h-154v-319h154c93 0 177 52 220 135zM285 -132
c-27 0 -48 19 -48 44s21 44 48 44c28 0 50 -19 50 -44s-22 -44 -50 -44z" />
    <glyph glyph-name="uni1EB9" unicode="&#x1eb9;" horiz-adv-x="555" 
d="M538 375l-6 -4l-400 -190c33 -92 98 -152 174 -161c70 -8 125 29 150 101l1 3h66l-5 -8c-47 -75 -130 -118 -228 -118c-110 0 -201 55 -243 147l-3 9c-14 33 -21 69 -21 107c0 152 113 262 268 262c106 0 196 -52 240 -138l4 -4zM113 344l-1 -1c-5 -48 0 -98 15 -145
l320 152c-34 87 -98 144 -171 152c-6 1 -12 1 -18 1c-91 0 -136 -77 -145 -159zM276 -132c-27 0 -48 19 -48 44s21 44 48 44c28 0 50 -19 50 -44s-22 -44 -50 -44z" />
    <glyph glyph-name="uni1EBA" unicode="&#x1eba;" horiz-adv-x="572" 
d="M281 894c78 0 84 -67 61 -90c-10 -10 -29 -18 -38 -24c-14 -8 -25 -22 -24 -39c-3 4 -28 23 -7 46c12 13 21 18 25 41c2 12 0 51 -22 50c-23 0 -32 -26 -27 -55l-42 35c12 17 32 31 54 35c8 1 15 1 20 1zM535 161l16 33l-43 -212l-37 28h-463v11h4c33 3 58 30 58 63v543
c0 33 -25 60 -58 63h-4v11h506l38 -185l-16 32c-43 83 -127 135 -220 135h-154v-319h155c45 0 85 27 102 69l1 3h10v-163h-10l-1 3c-17 42 -58 69 -104 69h-154v-319h154c93 0 177 52 220 135z" />
    <glyph glyph-name="uni1EBB" unicode="&#x1ebb;" horiz-adv-x="555" 
d="M273 712c78 0 84 -67 61 -90c-10 -10 -29 -18 -38 -24c-14 -8 -25 -22 -24 -39c-3 4 -28 23 -7 46c12 13 21 18 25 41c2 12 0 51 -22 50c-23 0 -32 -26 -27 -55l-42 35c12 17 32 31 54 35c8 1 15 1 20 1zM538 375l-6 -4l-400 -190c33 -92 98 -152 174 -161
c70 -8 125 29 150 101l1 3h66l-5 -8c-47 -75 -130 -118 -228 -118c-110 0 -201 55 -243 147l-3 9c-14 33 -21 69 -21 107c0 152 113 262 268 262c106 0 196 -52 240 -138l4 -4zM113 344l-1 -1c-5 -48 0 -98 15 -145l320 152c-34 87 -98 144 -171 152c-6 1 -12 1 -18 1
c-91 0 -136 -77 -145 -159z" />
    <glyph glyph-name="uni1EBC" unicode="&#x1ebc;" horiz-adv-x="572" 
d="M411 829c-10 -59 -34 -88 -75 -88c-27 0 -46 13 -64 26c-16 11 -32 22 -52 22c-27 0 -47 -12 -57 -38l-1 -3h-12l1 6c11 59 33 82 73 82c27 0 46 -13 65 -26c16 -11 32 -22 52 -22c27 0 48 18 58 44l1 3h12zM535 161l16 33l-43 -212l-37 28h-463v11h4c33 3 58 30 58 63
v543c0 33 -25 60 -58 63h-4v11h506l38 -185l-16 32c-43 83 -127 135 -220 135h-154v-319h155c45 0 85 27 102 69l1 3h10v-163h-10l-1 3c-17 42 -58 69 -104 69h-154v-319h154c93 0 177 52 220 135z" />
    <glyph glyph-name="uni1EBD" unicode="&#x1ebd;" horiz-adv-x="555" 
d="M403 647c-10 -59 -34 -88 -75 -88c-27 0 -46 13 -64 26c-16 11 -32 22 -52 22c-27 0 -47 -12 -57 -38l-1 -3h-12l1 6c11 59 33 82 73 82c27 0 46 -13 65 -26c16 -11 32 -22 52 -22c27 0 48 18 58 44l1 3h12zM538 375l-6 -4l-400 -190c33 -92 98 -152 174 -161
c70 -8 125 29 150 101l1 3h66l-5 -8c-47 -75 -130 -118 -228 -118c-110 0 -201 55 -243 147l-3 9c-14 33 -21 69 -21 107c0 152 113 262 268 262c106 0 196 -52 240 -138l4 -4zM113 344l-1 -1c-5 -48 0 -98 15 -145l320 152c-34 87 -98 144 -171 152c-6 1 -12 1 -18 1
c-91 0 -136 -77 -145 -159z" />
    <glyph glyph-name="uni1EBE" unicode="&#x1ebe;" horiz-adv-x="572" 
d="M419 811l-2 -1h-12l6 8c29 37 62 77 81 126l1 3h90l-8 -8c-38 -40 -91 -87 -156 -128zM286 810l-136 -69h-13l149 139l151 -139h-13zM535 161l16 33l-43 -212l-37 28h-463v11h4c33 3 58 30 58 63v543c0 33 -25 60 -58 63h-4v11h506l38 -185l-16 32
c-43 83 -127 135 -220 135h-154v-319h155c45 0 85 27 102 69l1 3h10v-163h-10l-1 3c-17 42 -58 69 -104 69h-154v-319h154c93 0 177 52 220 135z" />
    <glyph glyph-name="uni1EBF" unicode="&#x1ebf;" horiz-adv-x="555" 
d="M411 629l-2 -1h-12l6 8c29 37 62 77 81 126l1 3h90l-8 -8c-38 -40 -91 -87 -156 -128zM278 628l-136 -69h-13l149 139l151 -139h-13zM538 375l-6 -4l-400 -190c33 -92 98 -152 174 -161c70 -8 125 29 150 101l1 3h66l-5 -8c-47 -75 -130 -118 -228 -118
c-110 0 -201 55 -243 147l-3 9c-14 33 -21 69 -21 107c0 152 113 262 268 262c106 0 196 -52 240 -138l4 -4zM113 344l-1 -1c-5 -48 0 -98 15 -145l320 152c-34 87 -98 144 -171 152c-6 1 -12 1 -18 1c-91 0 -136 -77 -145 -159z" />
    <glyph glyph-name="uni1EC0" unicode="&#x1ec0;" horiz-adv-x="572" 
d="M459 789h-1c-65 41 -117 88 -155 128l-8 8h90l1 -3c19 -49 52 -89 81 -126l6 -8h-13zM286 810l-136 -69h-13l149 139l151 -139h-13zM535 161l16 33l-43 -212l-37 28h-463v11h4c33 3 58 30 58 63v543c0 33 -25 60 -58 63h-4v11h506l38 -185l-16 32
c-43 83 -127 135 -220 135h-154v-319h155c45 0 85 27 102 69l1 3h10v-163h-10l-1 3c-17 42 -58 69 -104 69h-154v-319h154c93 0 177 52 220 135z" />
    <glyph glyph-name="uni1EC1" unicode="&#x1ec1;" horiz-adv-x="555" 
d="M451 607h-1c-65 41 -117 88 -155 128l-8 8h90l1 -3c19 -49 52 -89 81 -126l6 -8h-13zM278 628l-136 -69h-13l149 139l151 -139h-13zM538 375l-6 -4l-400 -190c33 -92 98 -152 174 -161c70 -8 125 29 150 101l1 3h66l-5 -8c-47 -75 -130 -118 -228 -118
c-110 0 -201 55 -243 147l-3 9c-14 33 -21 69 -21 107c0 152 113 262 268 262c106 0 196 -52 240 -138l4 -4zM113 344l-1 -1c-5 -48 0 -98 15 -145l320 152c-34 87 -98 144 -171 152c-6 1 -12 1 -18 1c-91 0 -136 -77 -145 -159z" />
    <glyph glyph-name="uni1EC2" unicode="&#x1ec2;" horiz-adv-x="572" 
d="M398 970c78 0 84 -67 61 -90c-10 -10 -29 -18 -38 -24c-14 -8 -25 -22 -24 -39c-3 4 -28 23 -7 46c12 13 21 18 25 41c2 12 0 51 -22 50c-23 0 -32 -26 -27 -55l-42 35c12 17 32 31 54 35c8 1 15 1 20 1zM286 810l-136 -69h-13l149 139l151 -139h-13zM535 161l16 33
l-43 -212l-37 28h-463v11h4c33 3 58 30 58 63v543c0 33 -25 60 -58 63h-4v11h506l38 -185l-16 32c-43 83 -127 135 -220 135h-154v-319h155c45 0 85 27 102 69l1 3h10v-163h-10l-1 3c-17 42 -58 69 -104 69h-154v-319h154c93 0 177 52 220 135z" />
    <glyph glyph-name="uni1EC3" unicode="&#x1ec3;" horiz-adv-x="555" 
d="M390 788c78 0 84 -67 61 -90c-10 -10 -29 -18 -38 -24c-14 -8 -25 -22 -24 -39c-3 4 -28 23 -7 46c12 13 21 18 25 41c2 12 0 51 -22 50c-23 0 -32 -26 -27 -55l-42 35c12 17 32 31 54 35c8 1 15 1 20 1zM278 628l-136 -69h-13l149 139l151 -139h-13zM538 375l-6 -4
l-400 -190c33 -92 98 -152 174 -161c70 -8 125 29 150 101l1 3h66l-5 -8c-47 -75 -130 -118 -228 -118c-110 0 -201 55 -243 147l-3 9c-14 33 -21 69 -21 107c0 152 113 262 268 262c106 0 196 -52 240 -138l4 -4zM113 344l-1 -1c-5 -48 0 -98 15 -145l320 152
c-34 87 -98 144 -171 152c-6 1 -12 1 -18 1c-91 0 -136 -77 -145 -159z" />
    <glyph glyph-name="uni1EC4" unicode="&#x1ec4;" horiz-adv-x="572" 
d="M415 985c-10 -59 -34 -88 -75 -88c-27 0 -46 13 -64 26c-16 11 -32 22 -52 22c-27 0 -47 -12 -57 -38l-1 -3h-12l1 6c11 59 33 82 73 82c27 0 46 -13 65 -26c16 -11 32 -22 52 -22c27 0 48 18 58 44l1 3h12zM286 810l-136 -69h-13l149 139l151 -139h-13zM535 161l16 33
l-43 -212l-37 28h-463v11h4c33 3 58 30 58 63v543c0 33 -25 60 -58 63h-4v11h506l38 -185l-16 32c-43 83 -127 135 -220 135h-154v-319h155c45 0 85 27 102 69l1 3h10v-163h-10l-1 3c-17 42 -58 69 -104 69h-154v-319h154c93 0 177 52 220 135z" />
    <glyph glyph-name="uni1EC5" unicode="&#x1ec5;" horiz-adv-x="555" 
d="M407 803c-10 -59 -34 -88 -75 -88c-27 0 -46 13 -64 26c-16 11 -32 22 -52 22c-27 0 -47 -12 -57 -38l-1 -3h-12l1 6c11 59 33 82 73 82c27 0 46 -13 65 -26c16 -11 32 -22 52 -22c27 0 48 18 58 44l1 3h12zM278 628l-136 -69h-13l149 139l151 -139h-13zM538 375l-6 -4
l-400 -190c33 -92 98 -152 174 -161c70 -8 125 29 150 101l1 3h66l-5 -8c-47 -75 -130 -118 -228 -118c-110 0 -201 55 -243 147l-3 9c-14 33 -21 69 -21 107c0 152 113 262 268 262c106 0 196 -52 240 -138l4 -4zM113 344l-1 -1c-5 -48 0 -98 15 -145l320 152
c-34 87 -98 144 -171 152c-6 1 -12 1 -18 1c-91 0 -136 -77 -145 -159z" />
    <glyph glyph-name="uni1EC6" unicode="&#x1ec6;" horiz-adv-x="572" 
d="M286 810l-136 -69h-13l149 139l151 -139h-13zM535 161l16 33l-43 -212l-37 28h-463v11h4c33 3 58 30 58 63v543c0 33 -25 60 -58 63h-4v11h506l38 -185l-16 32c-43 83 -127 135 -220 135h-154v-319h155c45 0 85 27 102 69l1 3h10v-163h-10l-1 3c-17 42 -58 69 -104 69
h-154v-319h154c93 0 177 52 220 135zM285 -132c-27 0 -48 19 -48 44s21 44 48 44c28 0 50 -19 50 -44s-22 -44 -50 -44z" />
    <glyph glyph-name="uni1EC7" unicode="&#x1ec7;" horiz-adv-x="555" 
d="M278 628l-136 -69h-13l149 139l151 -139h-13zM538 375l-6 -4l-400 -190c33 -92 98 -152 174 -161c70 -8 125 29 150 101l1 3h66l-5 -8c-47 -75 -130 -118 -228 -118c-110 0 -201 55 -243 147l-3 9c-14 33 -21 69 -21 107c0 152 113 262 268 262c106 0 196 -52 240 -138
l4 -4zM113 344l-1 -1c-5 -48 0 -98 15 -145l320 152c-34 87 -98 144 -171 152c-6 1 -12 1 -18 1c-91 0 -136 -77 -145 -159zM276 -132c-27 0 -48 19 -48 44s21 44 48 44c28 0 50 -19 50 -44s-22 -44 -50 -44z" />
    <glyph glyph-name="uni1EC8" unicode="&#x1ec8;" horiz-adv-x="227" 
d="M109 894c78 0 84 -67 61 -90c-10 -10 -29 -18 -38 -24c-14 -8 -25 -22 -24 -39c-3 4 -28 23 -7 46c12 13 21 18 25 41c2 12 0 51 -22 50c-23 0 -32 -26 -27 -55l-42 35c12 17 32 31 54 35c8 1 15 1 20 1zM216 689l-1 1c-33 -3 -58 -30 -58 -63v-543c0 -33 25 -60 58 -63
h4v-11h-215v11h4c33 3 58 30 58 63v542c0 33 -25 60 -58 63h-4v11h216v-11h-4z" />
    <glyph glyph-name="uni1EC9" unicode="&#x1ec9;" horiz-adv-x="221" 
d="M106 712c78 0 84 -67 61 -90c-10 -10 -29 -18 -38 -24c-14 -8 -25 -22 -24 -39c-3 4 -28 23 -7 46c12 13 21 18 25 41c2 12 0 51 -22 50c-23 0 -32 -26 -27 -55l-42 35c12 17 32 31 54 35c8 1 15 1 20 1zM216 20h5v-11h-205v11h4c33 3 58 30 58 63v352c0 8 -4 15 -10 19
s-14 5 -21 2l-37 -14v14l148 70v-443c0 -33 25 -60 58 -63z" />
    <glyph glyph-name="uni1ECA" unicode="&#x1eca;" horiz-adv-x="227" 
d="M216 689l-1 1c-33 -3 -58 -30 -58 -63v-543c0 -33 25 -60 58 -63h4v-11h-215v11h4c33 3 58 30 58 63v542c0 33 -25 60 -58 63h-4v11h216v-11h-4zM113 -132c-27 0 -48 19 -48 44s21 44 48 44c28 0 50 -19 50 -44s-22 -44 -50 -44z" />
    <glyph glyph-name="uni1ECB" unicode="&#x1ecb;" horiz-adv-x="221" 
d="M185 645l-66 -65l-66 65l66 65zM216 20h5v-11h-205v11h4c33 3 58 30 58 63v352c0 8 -4 15 -10 19s-14 5 -21 2l-37 -14v14l148 70v-443c0 -33 25 -60 58 -63zM110 -132c-27 0 -48 19 -48 44s21 44 48 44c28 0 50 -19 50 -44s-22 -44 -50 -44z" />
    <glyph glyph-name="uni1ECC" unicode="&#x1ecc;" horiz-adv-x="801" 
d="M401 722c215 0 371 -153 371 -364s-156 -364 -371 -364s-371 153 -371 364s156 364 371 364zM440 20c143 0 239 114 239 284c0 190 -127 393 -316 393c-143 0 -239 -114 -239 -283c0 -190 127 -394 316 -394zM399 -132c-27 0 -48 19 -48 44s21 44 48 44
c28 0 50 -19 50 -44s-22 -44 -50 -44z" />
    <glyph glyph-name="uni1ECD" unicode="&#x1ecd;" 
d="M294 524c155 0 268 -110 268 -262s-113 -262 -268 -262s-268 110 -268 262s113 262 268 262zM117 324c0 -142 89 -300 217 -300c85 0 138 68 138 177c0 141 -89 298 -217 298c-85 0 -138 -67 -138 -175zM293 -132c-27 0 -48 19 -48 44s21 44 48 44c28 0 50 -19 50 -44
s-22 -44 -50 -44z" />
    <glyph glyph-name="uni1ECE" unicode="&#x1ece;" horiz-adv-x="801" 
d="M396 915c78 0 84 -67 61 -90c-10 -10 -29 -18 -38 -24c-14 -8 -25 -22 -24 -39c-3 4 -28 23 -7 46c12 13 21 18 25 41c2 12 0 51 -22 50c-23 0 -32 -26 -27 -55l-42 35c12 17 32 31 54 35c8 1 15 1 20 1zM401 722c215 0 371 -153 371 -364s-156 -364 -371 -364
s-371 153 -371 364s156 364 371 364zM440 20c143 0 239 114 239 284c0 190 -127 393 -316 393c-143 0 -239 -114 -239 -283c0 -190 127 -394 316 -394z" />
    <glyph glyph-name="uni1ECF" unicode="&#x1ecf;" 
d="M290 712c78 0 84 -67 61 -90c-10 -10 -29 -18 -38 -24c-14 -8 -25 -22 -24 -39c-3 4 -28 23 -7 46c12 13 21 18 25 41c2 12 0 51 -22 50c-23 0 -32 -26 -27 -55l-42 35c12 17 32 31 54 35c8 1 15 1 20 1zM294 524c155 0 268 -110 268 -262s-113 -262 -268 -262
s-268 110 -268 262s113 262 268 262zM117 324c0 -142 89 -300 217 -300c85 0 138 68 138 177c0 141 -89 298 -217 298c-85 0 -138 -67 -138 -175z" />
    <glyph glyph-name="uni1ED0" unicode="&#x1ed0;" horiz-adv-x="801" 
d="M533 832l-2 -1h-12l6 8c29 37 62 77 81 126l1 3h90l-8 -8c-38 -40 -91 -87 -156 -128zM400 831l-136 -69h-13l149 139l151 -139h-13zM401 722c215 0 371 -153 371 -364s-156 -364 -371 -364s-371 153 -371 364s156 364 371 364zM440 20c143 0 239 114 239 284
c0 190 -127 393 -316 393c-143 0 -239 -114 -239 -283c0 -190 127 -394 316 -394z" />
    <glyph glyph-name="uni1ED1" unicode="&#x1ed1;" 
d="M428 629l-2 -1h-12l6 8c29 37 62 77 81 126l1 3h90l-8 -8c-38 -40 -91 -87 -156 -128zM295 628l-136 -69h-13l149 139l151 -139h-13zM294 524c155 0 268 -110 268 -262s-113 -262 -268 -262s-268 110 -268 262s113 262 268 262zM117 324c0 -142 89 -300 217 -300
c85 0 138 68 138 177c0 141 -89 298 -217 298c-85 0 -138 -67 -138 -175z" />
    <glyph glyph-name="uni1ED2" unicode="&#x1ed2;" horiz-adv-x="801" 
d="M573 810h-1c-65 41 -117 88 -155 128l-8 8h90l1 -3c19 -49 52 -89 81 -126l6 -8h-13zM400 831l-136 -69h-13l149 139l151 -139h-13zM401 722c215 0 371 -153 371 -364s-156 -364 -371 -364s-371 153 -371 364s156 364 371 364zM440 20c143 0 239 114 239 284
c0 190 -127 393 -316 393c-143 0 -239 -114 -239 -283c0 -190 127 -394 316 -394z" />
    <glyph glyph-name="uni1ED3" unicode="&#x1ed3;" 
d="M468 607h-1c-65 41 -117 88 -155 128l-8 8h90l1 -3c19 -49 52 -89 81 -126l6 -8h-13zM295 628l-136 -69h-13l149 139l151 -139h-13zM294 524c155 0 268 -110 268 -262s-113 -262 -268 -262s-268 110 -268 262s113 262 268 262zM117 324c0 -142 89 -300 217 -300
c85 0 138 68 138 177c0 141 -89 298 -217 298c-85 0 -138 -67 -138 -175z" />
    <glyph glyph-name="uni1ED4" unicode="&#x1ed4;" horiz-adv-x="801" 
d="M512 991c78 0 84 -67 61 -90c-10 -10 -29 -18 -38 -24c-14 -8 -25 -22 -24 -39c-3 4 -28 23 -7 46c12 13 21 18 25 41c2 12 0 51 -22 50c-23 0 -32 -26 -27 -55l-42 35c12 17 32 31 54 35c8 1 15 1 20 1zM400 831l-136 -69h-13l149 139l151 -139h-13zM401 722
c215 0 371 -153 371 -364s-156 -364 -371 -364s-371 153 -371 364s156 364 371 364zM440 20c143 0 239 114 239 284c0 190 -127 393 -316 393c-143 0 -239 -114 -239 -283c0 -190 127 -394 316 -394z" />
    <glyph glyph-name="uni1ED5" unicode="&#x1ed5;" 
d="M407 788c78 0 84 -67 61 -90c-10 -10 -29 -18 -38 -24c-14 -8 -25 -22 -24 -39c-3 4 -28 23 -7 46c12 13 21 18 25 41c2 12 0 51 -22 50c-23 0 -32 -26 -27 -55l-42 35c12 17 32 31 54 35c8 1 15 1 20 1zM295 628l-136 -69h-13l149 139l151 -139h-13zM294 524
c155 0 268 -110 268 -262s-113 -262 -268 -262s-268 110 -268 262s113 262 268 262zM117 324c0 -142 89 -300 217 -300c85 0 138 68 138 177c0 141 -89 298 -217 298c-85 0 -138 -67 -138 -175z" />
    <glyph glyph-name="uni1ED6" unicode="&#x1ed6;" horiz-adv-x="801" 
d="M529 1006c-10 -59 -34 -88 -75 -88c-27 0 -46 13 -64 26c-16 11 -32 22 -52 22c-27 0 -47 -12 -57 -38l-1 -3h-12l1 6c11 59 33 82 73 82c27 0 46 -13 65 -26c16 -11 32 -22 52 -22c27 0 48 18 58 44l1 3h12zM400 831l-136 -69h-13l149 139l151 -139h-13zM401 722
c215 0 371 -153 371 -364s-156 -364 -371 -364s-371 153 -371 364s156 364 371 364zM440 20c143 0 239 114 239 284c0 190 -127 393 -316 393c-143 0 -239 -114 -239 -283c0 -190 127 -394 316 -394z" />
    <glyph glyph-name="uni1ED7" unicode="&#x1ed7;" 
d="M424 803c-10 -59 -34 -88 -75 -88c-27 0 -46 13 -64 26c-16 11 -32 22 -52 22c-27 0 -47 -12 -57 -38l-1 -3h-12l1 6c11 59 33 82 73 82c27 0 46 -13 65 -26c16 -11 32 -22 52 -22c27 0 48 18 58 44l1 3h12zM295 628l-136 -69h-13l149 139l151 -139h-13zM294 524
c155 0 268 -110 268 -262s-113 -262 -268 -262s-268 110 -268 262s113 262 268 262zM117 324c0 -142 89 -300 217 -300c85 0 138 68 138 177c0 141 -89 298 -217 298c-85 0 -138 -67 -138 -175z" />
    <glyph glyph-name="uni1ED8" unicode="&#x1ed8;" horiz-adv-x="801" 
d="M400 831l-136 -69h-13l149 139l151 -139h-13zM401 722c215 0 371 -153 371 -364s-156 -364 -371 -364s-371 153 -371 364s156 364 371 364zM440 20c143 0 239 114 239 284c0 190 -127 393 -316 393c-143 0 -239 -114 -239 -283c0 -190 127 -394 316 -394zM399 -132
c-27 0 -48 19 -48 44s21 44 48 44c28 0 50 -19 50 -44s-22 -44 -50 -44z" />
    <glyph glyph-name="uni1ED9" unicode="&#x1ed9;" 
d="M295 628l-136 -69h-13l149 139l151 -139h-13zM294 524c155 0 268 -110 268 -262s-113 -262 -268 -262s-268 110 -268 262s113 262 268 262zM117 324c0 -142 89 -300 217 -300c85 0 138 68 138 177c0 141 -89 298 -217 298c-85 0 -138 -67 -138 -175zM293 -132
c-27 0 -48 19 -48 44s21 44 48 44c28 0 50 -19 50 -44s-22 -44 -50 -44z" />
    <glyph glyph-name="uni1EDA" unicode="&#x1eda;" horiz-adv-x="801" 
d="M343 763l-2 -1h-12l6 8c29 37 62 77 81 126l1 3h90l-8 -8c-38 -40 -91 -87 -156 -128zM541 698c139 -50 231 -178 231 -340c0 -211 -156 -364 -371 -364s-371 153 -371 364s156 364 371 364c44 0 86 -6 124 -18c25 6 30 24 28 50l-4 45l77 12l-4 -21
c-4 -46 -37 -83 -81 -92zM440 20c143 0 239 114 239 284c0 190 -127 393 -316 393c-143 0 -239 -114 -239 -283c0 -190 127 -394 316 -394z" />
    <glyph glyph-name="uni1EDB" unicode="&#x1edb;" 
d="M259 560l-2 -1h-12l6 8c29 37 62 77 81 126l1 3h90l-8 -8c-38 -40 -91 -87 -156 -128zM449 481c70 -46 113 -124 113 -219c0 -152 -113 -262 -268 -262s-268 110 -268 262s113 262 268 262c54 0 103 -13 144 -37c20 8 25 25 23 49l-4 46l77 12l-4 -22
c-4 -46 -37 -83 -81 -91zM334 24c85 0 138 68 138 177c0 141 -89 298 -217 298c-85 0 -138 -67 -138 -175c0 -142 89 -300 217 -300z" />
    <glyph glyph-name="uni1EDC" unicode="&#x1edc;" horiz-adv-x="801" 
d="M427 763h-1c-65 41 -117 88 -155 128l-8 8h90l1 -3c19 -49 52 -89 81 -126l6 -8h-13zM541 698c139 -50 231 -178 231 -340c0 -211 -156 -364 -371 -364s-371 153 -371 364s156 364 371 364c44 0 86 -6 124 -18c25 6 30 24 28 50l-4 45l77 12l-4 -21
c-4 -46 -37 -83 -81 -92zM440 20c143 0 239 114 239 284c0 190 -127 393 -316 393c-143 0 -239 -114 -239 -283c0 -190 127 -394 316 -394z" />
    <glyph glyph-name="uni1EDD" unicode="&#x1edd;" 
d="M328 560h-1c-65 41 -117 88 -155 128l-8 8h90l1 -3c19 -49 52 -89 81 -126l6 -8h-13zM449 481c70 -46 113 -124 113 -219c0 -152 -113 -262 -268 -262s-268 110 -268 262s113 262 268 262c54 0 103 -13 144 -37c20 8 25 25 23 49l-4 46l77 12l-4 -22
c-4 -46 -37 -83 -81 -91zM334 24c85 0 138 68 138 177c0 141 -89 298 -217 298c-85 0 -138 -67 -138 -175c0 -142 89 -300 217 -300z" />
    <glyph glyph-name="uni1EDE" unicode="&#x1ede;" horiz-adv-x="801" 
d="M396 914c78 0 84 -67 61 -90c-10 -10 -29 -18 -38 -24c-14 -8 -25 -22 -24 -39c-3 4 -28 23 -7 46c12 13 21 18 25 41c2 12 0 51 -22 50c-23 0 -32 -26 -27 -55l-42 35c12 17 32 31 54 35c8 1 15 1 20 1zM541 698c139 -50 231 -178 231 -340c0 -211 -156 -364 -371 -364
s-371 153 -371 364s156 364 371 364c44 0 86 -6 124 -18c25 6 30 24 28 50l-4 45l77 12l-4 -21c-4 -46 -37 -83 -81 -92zM440 20c143 0 239 114 239 284c0 190 -127 393 -316 393c-143 0 -239 -114 -239 -283c0 -190 127 -394 316 -394z" />
    <glyph glyph-name="uni1EDF" unicode="&#x1edf;" 
d="M290 712c78 0 84 -67 61 -90c-10 -10 -29 -18 -38 -24c-14 -8 -25 -22 -24 -39c-3 4 -28 23 -7 46c12 13 21 18 25 41c2 12 0 51 -22 50c-23 0 -32 -26 -27 -55l-42 35c12 17 32 31 54 35c8 1 15 1 20 1zM449 481c70 -46 113 -124 113 -219c0 -152 -113 -262 -268 -262
s-268 110 -268 262s113 262 268 262c54 0 103 -13 144 -37c20 8 25 25 23 49l-4 46l77 12l-4 -22c-4 -46 -37 -83 -81 -91zM334 24c85 0 138 68 138 177c0 141 -89 298 -217 298c-85 0 -138 -67 -138 -175c0 -142 89 -300 217 -300z" />
    <glyph glyph-name="uni1EE0" unicode="&#x1ee0;" horiz-adv-x="801" 
d="M525 850c-10 -59 -34 -88 -75 -88c-27 0 -46 13 -64 26c-16 11 -32 22 -52 22c-27 0 -47 -12 -57 -38l-1 -3h-12l1 6c11 59 33 82 73 82c27 0 46 -13 65 -26c16 -11 32 -22 52 -22c27 0 48 18 58 44l1 3h12zM541 698c139 -50 231 -178 231 -340
c0 -211 -156 -364 -371 -364s-371 153 -371 364s156 364 371 364c44 0 86 -6 124 -18c25 6 30 24 28 50l-4 45l77 12l-4 -21c-4 -46 -37 -83 -81 -92zM440 20c143 0 239 114 239 284c0 190 -127 393 -316 393c-143 0 -239 -114 -239 -283c0 -190 127 -394 316 -394z" />
    <glyph glyph-name="uni1EE1" unicode="&#x1ee1;" 
d="M420 647c-10 -59 -34 -88 -75 -88c-27 0 -46 13 -64 26c-16 11 -32 22 -52 22c-27 0 -47 -12 -57 -38l-1 -3h-12l1 6c11 59 33 82 73 82c27 0 46 -13 65 -26c16 -11 32 -22 52 -22c27 0 48 18 58 44l1 3h12zM449 481c70 -46 113 -124 113 -219
c0 -152 -113 -262 -268 -262s-268 110 -268 262s113 262 268 262c54 0 103 -13 144 -37c20 8 25 25 23 49l-4 46l77 12l-4 -22c-4 -46 -37 -83 -81 -91zM334 24c85 0 138 68 138 177c0 141 -89 298 -217 298c-85 0 -138 -67 -138 -175c0 -142 89 -300 217 -300z" />
    <glyph glyph-name="uni1EE2" unicode="&#x1ee2;" horiz-adv-x="801" 
d="M541 698c139 -50 231 -178 231 -340c0 -211 -156 -364 -371 -364s-371 153 -371 364s156 364 371 364c44 0 86 -6 124 -18c25 6 30 24 28 50l-4 45l77 12l-4 -21c-4 -46 -37 -83 -81 -92zM440 20c143 0 239 114 239 284c0 190 -127 393 -316 393
c-143 0 -239 -114 -239 -283c0 -190 127 -394 316 -394zM399 -132c-27 0 -48 19 -48 44s21 44 48 44c28 0 50 -19 50 -44s-22 -44 -50 -44z" />
    <glyph glyph-name="uni1EE3" unicode="&#x1ee3;" 
d="M449 481c70 -46 113 -124 113 -219c0 -152 -113 -262 -268 -262s-268 110 -268 262s113 262 268 262c54 0 103 -13 144 -37c20 8 25 25 23 49l-4 46l77 12l-4 -22c-4 -46 -37 -83 -81 -91zM334 24c85 0 138 68 138 177c0 141 -89 298 -217 298c-85 0 -138 -67 -138 -175
c0 -142 89 -300 217 -300zM293 -132c-27 0 -48 19 -48 44s21 44 48 44c28 0 50 -19 50 -44s-22 -44 -50 -44z" />
    <glyph glyph-name="uni1EE4" unicode="&#x1ee4;" horiz-adv-x="675" 
d="M7 689v11h216v-11h-4c-33 -3 -58 -30 -58 -63v-361c0 -153 80 -248 208 -248c127 0 206 95 206 248v327c-2 43 -29 81 -70 98l-3 1v10h161v-10l-3 -1c-42 -17 -69 -57 -69 -102v-307c-1 -187 -91 -286 -261 -286c-171 0 -261 99 -261 286v345c0 33 -25 60 -58 63h-4z
M336 -132c-27 0 -48 19 -48 44s21 44 48 44c28 0 50 -19 50 -44s-22 -44 -50 -44z" />
    <glyph glyph-name="uni1EE5" unicode="&#x1ee5;" horiz-adv-x="544" 
d="M517 58l-110 -51v103c-61 -46 -135 -99 -214 -99c-95 0 -143 62 -143 184v241c0 8 -9 24 -23 34l-7 5l110 52v-340c0 -118 71 -136 113 -136c49 0 88 28 133 60c10 7 20 14 31 21v304c0 8 -9 24 -23 34l-7 5l110 52v-430c0 -8 9 -24 23 -34zM271 -132
c-27 0 -48 19 -48 44s21 44 48 44c28 0 50 -19 50 -44s-22 -44 -50 -44z" />
    <glyph glyph-name="uni1EE6" unicode="&#x1ee6;" horiz-adv-x="675" 
d="M333 894c78 0 84 -67 61 -90c-10 -10 -29 -18 -38 -24c-14 -8 -25 -22 -24 -39c-3 4 -28 23 -7 46c12 13 21 18 25 41c2 12 0 51 -22 50c-23 0 -32 -26 -27 -55l-42 35c12 17 32 31 54 35c8 1 15 1 20 1zM7 689v11h216v-11h-4c-33 -3 -58 -30 -58 -63v-361
c0 -153 80 -248 208 -248c127 0 206 95 206 248v327c-2 43 -29 81 -70 98l-3 1v10h161v-10l-3 -1c-42 -17 -69 -57 -69 -102v-307c-1 -187 -91 -286 -261 -286c-171 0 -261 99 -261 286v345c0 33 -25 60 -58 63h-4z" />
    <glyph glyph-name="uni1EE7" unicode="&#x1ee7;" horiz-adv-x="544" 
d="M267 712c78 0 84 -67 61 -90c-10 -10 -29 -18 -38 -24c-14 -8 -25 -22 -24 -39c-3 4 -28 23 -7 46c12 13 21 18 25 41c2 12 0 51 -22 50c-23 0 -32 -26 -27 -55l-42 35c12 17 32 31 54 35c8 1 15 1 20 1zM517 58l-110 -51v103c-61 -46 -135 -99 -214 -99
c-95 0 -143 62 -143 184v241c0 8 -9 24 -23 34l-7 5l110 52v-340c0 -118 71 -136 113 -136c49 0 88 28 133 60c10 7 20 14 31 21v304c0 8 -9 24 -23 34l-7 5l110 52v-430c0 -8 9 -24 23 -34z" />
    <glyph glyph-name="uni1EE8" unicode="&#x1ee8;" horiz-adv-x="675" 
d="M317 742l-2 -1h-12l6 8c29 37 62 77 81 126l1 3h90l-8 -8c-38 -40 -91 -87 -156 -128zM668 789l76 12l-4 -21c-4 -47 -38 -84 -84 -92h-2c-39 -19 -63 -57 -63 -100v-307c-1 -187 -91 -286 -261 -286c-171 0 -261 99 -261 286v345c0 33 -25 60 -58 63h-4v11h216v-11h-4
c-33 -3 -58 -30 -58 -63v-361c0 -153 80 -248 208 -248c127 0 206 95 206 248v327c-2 43 -29 81 -70 98l-3 1v10h157c11 9 14 24 12 43z" />
    <glyph glyph-name="uni1EE9" unicode="&#x1ee9;" horiz-adv-x="544" 
d="M256 560l-2 -1h-12l6 8c29 37 62 77 81 126l1 3h90l-8 -8c-38 -40 -91 -87 -156 -128zM509 587l77 12l-4 -22c-4 -47 -38 -84 -84 -92l-11 -2v-386c0 -8 9 -24 23 -34l7 -5l-110 -51v103l-25 -18c-54 -38 -116 -81 -189 -81c-95 0 -143 62 -143 184v241c0 8 -9 24 -23 34
l-7 5l110 52v-340c0 -118 71 -136 113 -136c49 0 88 28 133 60l31 21v304c0 8 -9 24 -23 34l-7 5l110 52v-35c23 6 28 24 26 49z" />
    <glyph glyph-name="uni1EEA" unicode="&#x1eea;" horiz-adv-x="675" 
d="M405 742h-1c-65 41 -117 88 -155 128l-8 8h90l1 -3c19 -49 52 -89 81 -126l6 -8h-13zM668 789l76 12l-4 -21c-4 -47 -38 -84 -84 -92h-2c-39 -19 -63 -57 -63 -100v-307c-1 -187 -91 -286 -261 -286c-171 0 -261 99 -261 286v345c0 33 -25 60 -58 63h-4v11h216v-11h-4
c-33 -3 -58 -30 -58 -63v-361c0 -153 80 -248 208 -248c127 0 206 95 206 248v327c-2 43 -29 81 -70 98l-3 1v10h157c11 9 14 24 12 43z" />
    <glyph glyph-name="uni1EEB" unicode="&#x1eeb;" horiz-adv-x="544" 
d="M326 560h-1c-65 41 -117 88 -155 128l-8 8h90l1 -3c19 -49 52 -89 81 -126l6 -8h-13zM509 587l77 12l-4 -22c-4 -47 -38 -84 -84 -92l-11 -2v-386c0 -8 9 -24 23 -34l7 -5l-110 -51v103l-25 -18c-54 -38 -116 -81 -189 -81c-95 0 -143 62 -143 184v241c0 8 -9 24 -23 34
l-7 5l110 52v-340c0 -118 71 -136 113 -136c49 0 88 28 133 60l31 21v304c0 8 -9 24 -23 34l-7 5l110 52v-35c23 6 28 24 26 49z" />
    <glyph glyph-name="uni1EEC" unicode="&#x1eec;" horiz-adv-x="675" 
d="M364 894c78 0 84 -67 61 -90c-10 -10 -29 -18 -38 -24c-14 -8 -25 -22 -24 -39c-3 4 -28 23 -7 46c12 13 21 18 25 41c2 12 0 51 -22 50c-23 0 -32 -26 -27 -55l-42 35c12 17 32 31 54 35c8 1 15 1 20 1zM668 789l76 12l-4 -21c-4 -47 -38 -84 -84 -92h-2
c-39 -19 -63 -57 -63 -100v-307c-1 -187 -91 -286 -261 -286c-171 0 -261 99 -261 286v345c0 33 -25 60 -58 63h-4v11h216v-11h-4c-33 -3 -58 -30 -58 -63v-361c0 -153 80 -248 208 -248c127 0 206 95 206 248v327c-2 43 -29 81 -70 98l-3 1v10h157c11 9 14 24 12 43z" />
    <glyph glyph-name="uni1EED" unicode="&#x1eed;" horiz-adv-x="544" 
d="M267 712c78 0 84 -67 61 -90c-10 -10 -29 -18 -38 -24c-14 -8 -25 -22 -24 -39c-3 4 -28 23 -7 46c12 13 21 18 25 41c2 12 0 51 -22 50c-23 0 -32 -26 -27 -55l-42 35c12 17 32 31 54 35c8 1 15 1 20 1zM509 587l77 12l-4 -22c-4 -47 -38 -84 -84 -92l-11 -2v-386
c0 -8 9 -24 23 -34l7 -5l-110 -51v103l-25 -18c-54 -38 -116 -81 -189 -81c-95 0 -143 62 -143 184v241c0 8 -9 24 -23 34l-7 5l110 52v-340c0 -118 71 -136 113 -136c49 0 88 28 133 60l31 21v304c0 8 -9 24 -23 34l-7 5l110 52v-35c23 6 28 24 26 49z" />
    <glyph glyph-name="uni1EEE" unicode="&#x1eee;" horiz-adv-x="675" 
d="M485 829c-10 -59 -34 -88 -75 -88c-27 0 -46 13 -64 26c-16 11 -32 22 -52 22c-27 0 -47 -12 -57 -38l-1 -3h-12l1 6c11 59 33 82 73 82c27 0 46 -13 65 -26c16 -11 32 -22 52 -22c27 0 48 18 58 44l1 3h12zM668 789l76 12l-4 -21c-4 -47 -38 -84 -84 -92h-2
c-39 -19 -63 -57 -63 -100v-307c-1 -187 -91 -286 -261 -286c-171 0 -261 99 -261 286v345c0 33 -25 60 -58 63h-4v11h216v-11h-4c-33 -3 -58 -30 -58 -63v-361c0 -153 80 -248 208 -248c127 0 206 95 206 248v327c-2 43 -29 81 -70 98l-3 1v10h157c11 9 14 24 12 43z" />
    <glyph glyph-name="uni1EEF" unicode="&#x1eef;" horiz-adv-x="544" 
d="M397 647c-10 -59 -34 -88 -75 -88c-27 0 -46 13 -64 26c-16 11 -32 22 -52 22c-27 0 -47 -12 -57 -38l-1 -3h-12l1 6c11 59 33 82 73 82c27 0 46 -13 65 -26c16 -11 32 -22 52 -22c27 0 48 18 58 44l1 3h12zM509 587l77 12l-4 -22c-4 -47 -38 -84 -84 -92l-11 -2v-386
c0 -8 9 -24 23 -34l7 -5l-110 -51v103l-25 -18c-54 -38 -116 -81 -189 -81c-95 0 -143 62 -143 184v241c0 8 -9 24 -23 34l-7 5l110 52v-340c0 -118 71 -136 113 -136c49 0 88 28 133 60l31 21v304c0 8 -9 24 -23 34l-7 5l110 52v-35c23 6 28 24 26 49z" />
    <glyph glyph-name="uni1EF0" unicode="&#x1ef0;" horiz-adv-x="675" 
d="M668 789l76 12l-4 -21c-4 -47 -38 -84 -84 -92h-2c-39 -19 -63 -57 -63 -100v-307c-1 -187 -91 -286 -261 -286c-171 0 -261 99 -261 286v345c0 33 -25 60 -58 63h-4v11h216v-11h-4c-33 -3 -58 -30 -58 -63v-361c0 -153 80 -248 208 -248c127 0 206 95 206 248v327
c-2 43 -29 81 -70 98l-3 1v10h157c11 9 14 24 12 43zM336 -132c-27 0 -48 19 -48 44s21 44 48 44c28 0 50 -19 50 -44s-22 -44 -50 -44z" />
    <glyph glyph-name="uni1EF1" unicode="&#x1ef1;" horiz-adv-x="544" 
d="M509 587l77 12l-4 -22c-4 -47 -38 -84 -84 -92l-11 -2v-386c0 -8 9 -24 23 -34l7 -5l-110 -51v103l-25 -18c-54 -38 -116 -81 -189 -81c-95 0 -143 62 -143 184v241c0 8 -9 24 -23 34l-7 5l110 52v-340c0 -118 71 -136 113 -136c49 0 88 28 133 60l31 21v304
c0 8 -9 24 -23 34l-7 5l110 52v-35c23 6 28 24 26 49zM271 -132c-27 0 -48 19 -48 44s21 44 48 44c28 0 50 -19 50 -44s-22 -44 -50 -44z" />
    <glyph glyph-name="Ygrave" unicode="&#x1ef2;" horiz-adv-x="683" 
d="M409 742h-1c-65 41 -117 88 -155 128l-8 8h90l1 -3c19 -49 52 -89 81 -126l6 -8h-13zM555 700l136 -2l-2 -10l-2 -1c-44 -17 -83 -48 -110 -88l-198 -295v-224c0 -33 25 -60 58 -63h4v-11h-216v11h4c33 3 58 30 58 63v201l-209 350c-20 34 -57 56 -93 56h-4l-2 11h243
l2 -11h-6c-16 0 -29 -7 -36 -19c-8 -14 -7 -32 3 -49l179 -299l199 296c10 15 14 32 11 47c-3 11 -9 20 -18 26l-3 2z" />
    <glyph glyph-name="ygrave" unicode="&#x1ef3;" horiz-adv-x="504" 
d="M312 560h-1c-65 41 -117 88 -155 128l-8 8h90l1 -3c19 -49 52 -89 81 -126l6 -8h-13zM350 514l-3 12h154v-10l-3 -1c-28 -11 -53 -26 -92 -118l-178 -411c-37 -86 -121 -141 -215 -141h-8v85l5 -1c87 -10 172 33 217 106l-189 416l-38 74h202v-11l-4 -1
c-31 -4 -50 -14 -59 -30c-10 -18 -7 -46 10 -83l89 -196l35 -72l121 279c11 30 13 52 6 68c-8 19 -28 27 -47 34z" />
    <glyph glyph-name="uni1EF4" unicode="&#x1ef4;" horiz-adv-x="683" 
d="M555 700l136 -2l-2 -10l-2 -1c-44 -17 -83 -48 -110 -88l-198 -295v-224c0 -33 25 -60 58 -63h4v-11h-216v11h4c33 3 58 30 58 63v201l-209 350c-20 34 -57 56 -93 56h-4l-2 11h243l2 -11h-6c-16 0 -29 -7 -36 -19c-8 -14 -7 -32 3 -49l179 -299l199 296
c10 15 14 32 11 47c-3 11 -9 20 -18 26l-3 2zM340 -132c-27 0 -48 19 -48 44s21 44 48 44c28 0 50 -19 50 -44s-22 -44 -50 -44z" />
    <glyph glyph-name="uni1EF5" unicode="&#x1ef5;" horiz-adv-x="504" 
d="M350 514l-3 12h154v-10l-3 -1c-28 -11 -53 -26 -92 -118l-178 -411c-37 -86 -121 -141 -215 -141h-8v85l5 -1c87 -10 172 33 217 106l-189 416l-38 74h202v-11l-4 -1c-31 -4 -50 -14 -59 -30c-10 -18 -7 -46 10 -83l89 -196l35 -72l121 279c11 30 13 52 6 68
c-8 19 -28 27 -47 34zM285 -132c-27 0 -48 19 -48 44s21 44 48 44c28 0 50 -19 50 -44s-22 -44 -50 -44z" />
    <glyph glyph-name="uni1EF6" unicode="&#x1ef6;" horiz-adv-x="683" 
d="M337 894c78 0 84 -67 61 -90c-10 -10 -29 -18 -38 -24c-14 -8 -25 -22 -24 -39c-3 4 -28 23 -7 46c12 13 21 18 25 41c2 12 0 51 -22 50c-23 0 -32 -26 -27 -55l-42 35c12 17 32 31 54 35c8 1 15 1 20 1zM555 700l136 -2l-2 -10l-2 -1c-44 -17 -83 -48 -110 -88
l-198 -295v-224c0 -33 25 -60 58 -63h4v-11h-216v11h4c33 3 58 30 58 63v201l-209 350c-20 34 -57 56 -93 56h-4l-2 11h243l2 -11h-6c-16 0 -29 -7 -36 -19c-8 -14 -7 -32 3 -49l179 -299l199 296c10 15 14 32 11 47c-3 11 -9 20 -18 26l-3 2z" />
    <glyph glyph-name="uni1EF7" unicode="&#x1ef7;" horiz-adv-x="504" 
d="M247 712c78 0 84 -67 61 -90c-10 -10 -29 -18 -38 -24c-14 -8 -25 -22 -24 -39c-3 4 -28 23 -7 46c12 13 21 18 25 41c2 12 0 51 -22 50c-23 0 -32 -26 -27 -55l-42 35c12 17 32 31 54 35c8 1 15 1 20 1zM350 514l-3 12h154v-10l-3 -1c-28 -11 -53 -26 -92 -118
l-178 -411c-37 -86 -121 -141 -215 -141h-8v85l5 -1c87 -10 172 33 217 106l-189 416l-38 74h202v-11l-4 -1c-31 -4 -50 -14 -59 -30c-10 -18 -7 -46 10 -83l89 -196l35 -72l121 279c11 30 13 52 6 68c-8 19 -28 27 -47 34z" />
    <glyph glyph-name="uni1EF8" unicode="&#x1ef8;" horiz-adv-x="683" 
d="M466 829c-10 -59 -34 -88 -75 -88c-27 0 -46 13 -64 26c-16 11 -32 22 -52 22c-27 0 -47 -12 -57 -38l-1 -3h-12l1 6c11 59 33 82 73 82c27 0 46 -13 65 -26c16 -11 32 -22 52 -22c27 0 48 18 58 44l1 3h12zM555 700l136 -2l-2 -10l-2 -1c-44 -17 -83 -48 -110 -88
l-198 -295v-224c0 -33 25 -60 58 -63h4v-11h-216v11h4c33 3 58 30 58 63v201l-209 350c-20 34 -57 56 -93 56h-4l-2 11h243l2 -11h-6c-16 0 -29 -7 -36 -19c-8 -14 -7 -32 3 -49l179 -299l199 296c10 15 14 32 11 47c-3 11 -9 20 -18 26l-3 2z" />
    <glyph glyph-name="uni1EF9" unicode="&#x1ef9;" horiz-adv-x="504" 
d="M377 647c-10 -59 -34 -88 -75 -88c-27 0 -46 13 -64 26c-16 11 -32 22 -52 22c-27 0 -47 -12 -57 -38l-1 -3h-12l1 6c11 59 33 82 73 82c27 0 46 -13 65 -26c16 -11 32 -22 52 -22c27 0 48 18 58 44l1 3h12zM350 514l-3 12h154v-10l-3 -1c-28 -11 -53 -26 -92 -118
l-178 -411c-37 -86 -121 -141 -215 -141h-8v85l5 -1c87 -10 172 33 217 106l-189 416l-38 74h202v-11l-4 -1c-31 -4 -50 -14 -59 -30c-10 -18 -7 -46 10 -83l89 -196l35 -72l121 279c11 30 13 52 6 68c-8 19 -28 27 -47 34z" />
    </font>
</defs>
</svg>
