<?xml version="1.0" encoding="UTF-8"?><svg id="Layer_1" xmlns="http://www.w3.org/2000/svg" width="371" height="30" xmlns:xlink="http://www.w3.org/1999/xlink" viewBox="0 0 371 30"><defs><style>.cls-1{fill:url(#linear-gradient);}.cls-2{fill:#00447c;}.cls-3{fill:#00a7d7;}.cls-4{fill:#007b84;}.cls-5,.cls-6,.cls-7{fill:#fff;}.cls-8{fill:#fefefe;}.cls-9{fill:#e21836;}.cls-10{fill:#1d559f;}.cls-11{fill:#0e2bcf;}.cls-12{fill:url(#linear-gradient-3);}.cls-13{fill:url(#linear-gradient-4);}.cls-14{fill:url(#linear-gradient-2);}.cls-15{fill:url(#linear-gradient-5);}.cls-6,.cls-16{fill-rule:evenodd;}.cls-16,.cls-17{fill:#016fd0;}.cls-18{fill:#e81f27;}.cls-18,.cls-19,.cls-7,.cls-20,.cls-21,.cls-17{isolation:isolate;}.cls-19{fill:#ececec;}.cls-20{fill:#ee4b22;}.cls-21{fill:#f2931f;}</style><linearGradient id="linear-gradient" x1="101.8" y1="422.65" x2="105.36" y2="422.65" gradientTransform="translate(13.23 -850.28) scale(2.05)" gradientUnits="userSpaceOnUse"><stop offset="0" stop-color="#007940"/><stop offset=".23" stop-color="#00873f"/><stop offset=".74" stop-color="#40a737"/><stop offset="1" stop-color="#5cb531"/></linearGradient><linearGradient id="linear-gradient-2" x1="101.8" y1="422.1" x2="105.36" y2="422.1" xlink:href="#linear-gradient"/><linearGradient id="linear-gradient-3" x1="101.8" y1="421.49" x2="105.36" y2="421.49" xlink:href="#linear-gradient"/><linearGradient id="linear-gradient-4" x1="93.82" y1="422.09" x2="97.44" y2="422.09" gradientTransform="translate(13.23 -850.28) scale(2.05)" gradientUnits="userSpaceOnUse"><stop offset="0" stop-color="#1f286f"/><stop offset=".48" stop-color="#004e94"/><stop offset=".83" stop-color="#0066b1"/><stop offset="1" stop-color="#006fbc"/></linearGradient><linearGradient id="linear-gradient-5" x1="97.79" y1="422.1" x2="101.3" y2="422.1" gradientTransform="translate(13.23 -850.28) scale(2.05)" gradientUnits="userSpaceOnUse"><stop offset="0" stop-color="#6c2c2f"/><stop offset=".17" stop-color="#882730"/><stop offset=".57" stop-color="#be1833"/><stop offset=".86" stop-color="#dc0436"/><stop offset="1" stop-color="#e60039"/></linearGradient></defs><g><g><path class="cls-7" d="M131.2,0h44c1.1,0,2,.9,2,2V28c0,1.1-.9,2-2,2h-44c-1.1,0-2-.9-2-2V2c0-1.1,.9-2,2-2Z"/><path class="cls-19" d="M175.2,30h-44c-1.1,0-2-.9-2-2V2c0-1.1,.9-2,2-2h44c1.1,0,2,.9,2,2V28c0,1.1-.89,2-2,2Zm0-1c.55,0,1-.45,1-1V2c0-.55-.45-1-1-1h-44c-.55,0-1,.45-1,1V28c0,.55,.45,1,1,1h44"/></g><g><polygon class="cls-11" points="148.42 20.16 151.03 20.16 152.66 9.46 150.05 9.46 148.42 20.16"/><path class="cls-11" d="M146.22,9.46l-2.49,7.36-.29-1.58-.88-4.81s-.11-.96-1.24-.96h-4.11l-.05,.18s1.26,.28,2.73,1.22l2.27,9.29h2.72l4.15-10.7h-2.81Z"/><path class="cls-11" d="M167.14,9.46h-2.1c-.97,0-1.2,.8-1.2,.8l-3.89,9.9h2.72l.54-1.59h3.32l.31,1.59h2.4l-2.09-10.7h0Zm-3.18,6.91l1.37-4,.77,4h-2.14Z"/><path class="cls-11" d="M156.48,12.62c0-1.21,2.54-1.05,3.66-.4l.37-2.3s-1.15-.47-2.35-.47c-1.29,0-4.37,.6-4.37,3.54,0,2.76,3.61,2.8,3.61,4.25s-3.24,1.19-4.3,.28l-.39,2.4s1.16,.6,2.94,.6,4.47-.98,4.47-3.66-3.64-3.04-3.64-4.25h0Z"/></g></g><g><path class="cls-7" d="M66.6,0h44c1.1,0,2,.9,2,2V28c0,1.1-.9,2-2,2h-44c-1.1,0-2-.9-2-2V2c0-1.1,.9-2,2-2Z"/><path class="cls-19" d="M110.6,30h-44c-1.1,0-2-.9-2-2V2c0-1.1,.9-2,2-2h44c1.1,0,2,.9,2,2V28c0,1.1-.89,2-2,2Zm0-1c.55,0,1-.45,1-1V2c0-.55-.45-1-1-1h-44c-.55,0-1,.45-1,1V28c0,.55,.45,1,1,1h44"/></g><g><path class="cls-17" d="M2,0H46c1.1,0,2,.9,2,2V28c0,1.1-.9,2-2,2H2c-1.1,0-2-.9-2-2V2C0,.9,.9,0,2,0Z"/><g><g><g><polygon class="cls-6" points="24.37 19.55 24.37 10.43 40.6 10.44 43.01 10.43 38.73 14.97 43.14 19.57 40.6 19.56 37.61 19.56 36.01 17.81 34.43 19.57 24.37 19.55 24.37 19.55"/><polygon class="cls-16" points="25.45 18.55 25.45 11.43 31.49 11.43 31.49 13.07 27.4 13.07 27.4 14.18 31.39 14.18 31.39 15.8 27.4 15.8 27.4 16.89 31.49 16.89 31.49 18.55 25.45 18.55 25.45 18.55"/></g><polyline class="cls-16" points="37.33 14.99 40.6 18.45 40.6 18.55 38.1 18.55 36.03 16.27 33.97 18.55 31.46 18.55 31.46 18.55 34.8 14.99 31.46 11.43 34.04 11.43 36.08 13.69 38.13 11.43 40.6 11.43 40.6 11.49 37.33 14.99"/></g><polygon class="cls-6" points="8.88 10.45 12.8 10.45 14.17 13.57 14.17 10.45 19.01 10.45 19.84 12.79 20.68 10.45 24.37 10.45 24.37 19.57 4.86 19.57 8.88 10.45 8.88 10.45"/><path class="cls-16" d="M9.63,11.44l-3.16,7.11h2.17l.6-1.42h3.23l.6,1.42h2.22l-3.15-7.11h-2.51Zm.27,4.09l.95-2.26,.95,2.26h-1.9Z"/><polygon class="cls-16" points="15.24 18.55 15.24 11.44 18.29 11.45 19.86 15.82 21.43 11.44 24.37 11.44 24.37 18.55 22.48 18.57 22.48 13.68 20.7 18.55 18.98 18.55 17.16 13.67 17.16 18.55 15.24 18.55 15.24 18.55"/></g></g><g><g><path class="cls-7" d="M325,0h44c1.1,0,2,.9,2,2V28c0,1.1-.9,2-2,2h-44c-1.1,0-2-.9-2-2V2c0-1.1,.9-2,2-2Z"/><path class="cls-19" d="M369,30h-44c-1.1,0-2-.9-2-2V2c0-1.1,.9-2,2-2h44c1.1,0,2,.9,2,2V28c0,1.1-.89,2-2,2Zm0-1c.55,0,1-.45,1-1V2c0-.55-.45-1-1-1h-44c-.55,0-1,.45-1,1V28c0,.55,.45,1,1,1h44"/></g><g><path class="cls-10" d="M331.66,12.44c1.48,0,2.68,1.28,2.68,2.85s-1.21,2.85-2.68,2.85-2.68-1.28-2.68-2.85,1.2-2.85,2.68-2.85m0-1.24c-2.17,0-3.92,1.83-3.92,4.1s1.76,4.1,3.92,4.1,3.92-1.83,3.92-4.1-1.76-4.1-3.93-4.1h0Z"/><path class="cls-10" d="M347.64,15.91c-.25-1.36-1.4-2.39-2.78-2.39-1.56,0-2.83,1.32-2.83,2.94s1.27,2.94,2.83,2.94c1.06-.01,2.03-.62,2.51-1.57l-1.13-.27c-.33,.43-.78,.74-1.38,.74-.77,0-1.5-.58-1.64-1.36h4.43c.02-.14,.03-.29,.03-.43,0-.2-.01-.39-.04-.59h0Zm-4.42,0c.22-.74,.87-1.28,1.64-1.28s1.42,.54,1.64,1.29h-3.28Z"/><path class="cls-10" d="M351.77,11.19h-3.18v8.19h1.34v-3.1h1.85c1.41,0,2.55-1.14,2.55-2.55s-1.14-2.55-2.55-2.55h-.01Zm0,3.9h-1.85v-2.7h1.85c.74,0,1.35,.6,1.35,1.35s-.6,1.35-1.35,1.35Z"/><path class="cls-10" d="M358.65,13.54v.75c-.41-.47-1-.75-1.62-.76-1.54,0-2.79,1.31-2.79,2.93s1.25,2.93,2.79,2.93c.6,0,1.23-.3,1.62-.71v.71h1.2v-5.85s-1.2,0-1.2,0Zm-1.62,4.65c-.88,0-1.59-.78-1.59-1.73s.71-1.73,1.59-1.73,1.67,.62,1.67,1.73-.79,1.73-1.67,1.73h0Z"/><polygon class="cls-10" points="362.91 16.38 361.7 13.53 360.4 13.53 362.23 17.84 362.91 16.38"/><polygon class="cls-3" points="364.06 13.53 364.45 14.47 363.22 17.11 363.22 17.11 362.54 18.57 362.54 18.57 360.8 22.31 362.17 22.31 366.26 13.53 364.06 13.53"/><path class="cls-10" d="M339.2,13.5c-.89,0-1.47,.36-1.82,.69v-.65h-1.2v5.85h1.2v-3.22c0-.71,.5-1.47,1.59-1.47,1.18,0,1.31,1.04,1.31,1.48v3.21h1.2v-3.36c0-1.33-.8-2.53-2.28-2.53Z"/></g></g><g><g><path class="cls-7" d="M195.8,0h44c1.1,0,2,.9,2,2V28c0,1.1-.9,2-2,2h-44c-1.1,0-2-.9-2-2V2c0-1.1,.9-2,2-2Z"/><path class="cls-19" d="M239.8,30h-44c-1.1,0-2-.9-2-2V2c0-1.1,.9-2,2-2h44c1.1,0,2,.9,2,2V28c0,1.1-.89,2-2,2Zm0-1c.55,0,1-.45,1-1V2c0-.55-.45-1-1-1h-44c-.55,0-1,.45-1,1V28c0,.55,.45,1,1,1h44"/></g><g id="g6321"><g id="g6323"><path id="path6325" class="cls-5" d="M230.59,21.11c0,2.27-1.85,4.13-4.13,4.13h-22.45V8.89c0-2.27,1.85-4.13,4.13-4.13h22.45V21.11h0Z"/><g id="g6327"><path id="path6338" class="cls-1" d="M223.28,16.92h1.71s.16-.02,.21-.02c.32-.06,.6-.36,.6-.76s-.28-.68-.6-.76c-.05-.02-.15-.02-.21-.02h-1.71v1.56h0Z"/><path id="path6349" class="cls-14" d="M224.79,6.15c-1.62,0-2.96,1.32-2.96,2.96v3.07h4.17c.1,0,.21,0,.29,.02,.94,.05,1.64,.54,1.64,1.38,0,.67-.47,1.23-1.35,1.35v.03c.96,.06,1.69,.6,1.69,1.43,0,.89-.81,1.48-1.88,1.48h-4.58v6.01h4.34c1.62,0,2.96-1.32,2.96-2.96V6.15h-4.32Z"/><path id="path6360" class="cls-12" d="M225.59,13.77c0-.39-.28-.65-.6-.7-.03,0-.11-.02-.16-.02h-1.54v1.43h1.54s.15,0,.16-.02c.32-.05,.6-.31,.6-.7h0Z"/></g><path id="path6371" class="cls-13" d="M208.45,6.15c-1.62,0-2.96,1.32-2.96,2.96v7.29c.83,.41,1.69,.67,2.55,.67,1.02,0,1.58-.62,1.58-1.46v-3.44h2.53v3.43c0,1.33-.83,2.42-3.64,2.42-1.71,0-3.04-.37-3.04-.37v6.22h4.34c1.62,0,2.96-1.32,2.96-2.96V6.15h-4.32Z"/><path id="path6384" class="cls-15" d="M216.62,6.15c-1.62,0-2.96,1.32-2.96,2.96v3.87c.75-.63,2.05-1.04,4.14-.94,1.12,.05,2.32,.36,2.32,.36v1.25c-.6-.31-1.32-.58-2.24-.65-1.59-.11-2.55,.67-2.55,2.03s.96,2.16,2.55,2.03c.93-.06,1.64-.36,2.24-.65v1.25s-1.19,.31-2.32,.36c-2.1,.1-3.39-.31-4.14-.94v6.82h4.34c1.62,0,2.96-1.32,2.96-2.96V6.15h-4.34Z"/></g></g></g><g><g><path class="cls-7" d="M260.4,0h44c1.1,0,2,.9,2,2V28c0,1.1-.9,2-2,2h-44c-1.1,0-2-.9-2-2V2c0-1.1,.9-2,2-2Z"/><path class="cls-19" d="M304.4,30h-44c-1.1,0-2-.9-2-2V2c0-1.1,.9-2,2-2h44c1.1,0,2,.9,2,2V28c0,1.1-.89,2-2,2Zm0-1c.55,0,1-.45,1-1V2c0-.55-.45-1-1-1h-44c-.55,0-1,.45-1,1V28c0,.55,.45,1,1,1h44"/></g><g><path class="cls-9" d="M273.95,6.58h6.94c.97,0,1.57,.79,1.34,1.76l-3.23,13.87c-.23,.97-1.2,1.76-2.17,1.76h-6.94c-.97,0-1.57-.79-1.34-1.76l3.23-13.87c.23-.97,1.2-1.76,2.16-1.76"/><path class="cls-2" d="M280.31,6.58h7.98c.97,0,.53,.79,.3,1.76l-3.23,13.87c-.23,.97-.16,1.76-1.13,1.76h-7.98c-.97,0-1.57-.79-1.34-1.76l3.23-13.87c.23-.97,1.2-1.76,2.17-1.76"/><path class="cls-4" d="M287.97,6.58h6.94c.97,0,1.57,.79,1.34,1.76l-3.23,13.87c-.23,.97-1.2,1.76-2.17,1.76h-6.94c-.97,0-1.57-.79-1.34-1.76l3.23-13.87c.23-.97,1.19-1.76,2.16-1.76"/><path class="cls-8" d="M275.76,11.02c-.71,0-.92,0-.99-.02-.03,.12-.51,2.34-.51,2.35-.1,.45-.18,.77-.44,.98-.15,.12-.32,.18-.51,.18-.32,0-.5-.16-.53-.46v-.1s.09-.6,.09-.61c0,0,.51-2.02,.6-2.29v-.03c-.98,0-1.16,0-1.17-.02,0,.02-.03,.15-.03,.15l-.52,2.28-.04,.19-.09,.63c0,.19,.04,.34,.11,.47,.24,.41,.91,.47,1.28,.47,.49,0,.95-.1,1.26-.29,.54-.32,.68-.81,.8-1.26l.06-.23s.52-2.1,.61-2.38v-.03l.02,.02Zm1.77,1.7c-.13,0-.35,.03-.56,.13-.07,.04-.15,.08-.22,.13l.07-.24-.04-.04c-.44,.09-.53,.1-.94,.16l-.03,.02c-.05,.39-.09,.68-.26,1.44-.07,.28-.13,.57-.2,.85l.02,.04c.41-.02,.54-.02,.9-.02l.03-.03c.05-.23,.05-.29,.15-.76,.05-.22,.15-.72,.2-.89,.09-.04,.18-.08,.26-.08,.2,0,.18,.18,.17,.25,0,.12-.08,.5-.16,.83l-.05,.21c-.04,.16-.07,.31-.11,.47l.02,.03c.41-.02,.53-.02,.88-.02l.04-.03c.06-.37,.08-.46,.19-.99l.06-.24c.11-.48,.16-.72,.08-.92-.09-.22-.3-.27-.49-.27v-.03Zm1.97,.5c-.22,.04-.35,.07-.49,.09-.14,.02-.27,.04-.48,.07l-.02,.02h-.02c-.02,.17-.04,.3-.07,.46-.02,.16-.06,.35-.12,.62-.05,.2-.07,.28-.1,.35-.03,.07-.06,.14-.11,.34v.02l.02,.02c.2,0,.32-.02,.46-.02h.48l.02-.02,.02-.02c.03-.18,.04-.23,.05-.32,.02-.1,.05-.23,.13-.58,.04-.17,.08-.33,.12-.5s.08-.33,.12-.5v-.04s0,.01,0,.01Zm0-.68c-.2-.12-.54-.08-.77,.08-.23,.16-.26,.38-.06,.5,.19,.11,.54,.08,.77-.08,.23-.16,.26-.38,.07-.5h-.01Zm1.19,2.69c.4,0,.81-.11,1.11-.44,.24-.26,.34-.66,.38-.82,.12-.54,.03-.79-.09-.94-.18-.23-.5-.31-.84-.31-.2,0-.68,.02-1.05,.36-.27,.25-.39,.58-.47,.91s-.16,.92,.38,1.14c.17,.07,.41,.09,.57,.09h0Zm-.03-1.2c.09-.41,.2-.75,.48-.75,.22,0,.23,.25,.14,.66-.02,.09-.1,.43-.2,.57-.07,.11-.16,.17-.26,.17-.03,0-.2,0-.2-.26,0-.13,.02-.26,.06-.4h-.02Zm2.52,1.16l.03-.03c.04-.23,.05-.29,.15-.76,.05-.22,.15-.72,.2-.89,.09-.04,.18-.08,.26-.08,.2,0,.18,.18,.17,.25,0,.12-.08,.5-.16,.83l-.05,.21c-.04,.16-.08,.31-.11,.47l.02,.03c.41-.02,.53-.02,.88-.02l.04-.03c.06-.37,.08-.46,.19-.99l.05-.24c.11-.48,.17-.72,.08-.92-.09-.22-.3-.27-.49-.27-.13,0-.36,.03-.56,.13-.07,.04-.15,.08-.22,.13l.06-.24-.03-.04c-.44,.09-.54,.1-.94,.16l-.03,.02c-.05,.39-.09,.68-.26,1.44-.07,.28-.13,.57-.2,.85l.02,.04c.41-.02,.54-.02,.9-.02v-.03Zm3,.02c.03-.13,.18-.87,.18-.87,0,0,.13-.55,.14-.57,0,0,.04-.06,.08-.08h.06c.57,0,1.21,0,1.71-.37,.34-.25,.58-.63,.68-1.08,.03-.11,.05-.24,.05-.38,0-.17-.04-.35-.14-.48-.26-.36-.77-.37-1.36-.37h-1.47c-.01,.05-.03,.15-.03,.15l-.27,1.25s-.65,2.66-.68,2.79h1.05Zm.5-2.21l.29-1.25v-.11h.12s.59,.06,.61,.06c.23,.09,.33,.32,.26,.63-.06,.28-.24,.51-.47,.63-.19,.1-.42,.1-.67,.1h-.16v-.06h.02Zm1.8,1.08c-.08,.32-.16,.91,.38,1.13,.17,.07,.33,.1,.48,.09,.17,0,.32-.09,.46-.21-.01,.05-.03,.1-.04,.15l.02,.03c.39-.02,.51-.02,.93-.01l.04-.03c.06-.36,.12-.71,.28-1.41,.08-.33,.16-.66,.24-.99v-.04c-.45,.08-.56,.1-.98,.16l-.03,.03s0,.07-.01,.1c-.07-.11-.16-.19-.31-.25-.19-.07-.62,.02-1,.36-.26,.24-.39,.58-.46,.9h0Zm.91,.01c.09-.4,.2-.74,.48-.74,.18,0,.27,.16,.25,.44-.01,.07-.03,.14-.05,.22-.03,.12-.06,.24-.09,.35-.03,.08-.06,.16-.1,.21-.07,.1-.24,.16-.34,.16-.03,0-.2,0-.2-.25,0-.13,.02-.26,.06-.4h-.01Zm4.77-1.31l-.03-.04c-.43,.09-.51,.1-.9,.15l-.03,.03v.02h0c-.29,.67-.29,.53-.53,1.06v-.07l-.06-1.16-.04-.04c-.45,.09-.46,.1-.88,.15l-.03,.03v.05h0c.05,.27,.04,.21,.09,.63,.02,.21,.06,.41,.08,.62,.04,.34,.06,.51,.11,1.03-.28,.46-.35,.64-.62,1.05h0l-.19,.31s-.04,.05-.07,.06c-.03,.02-.07,.02-.12,.02h-.11l-.16,.52h.54c.32,0,.52-.14,.62-.34l.34-.58h0l.04-.04c.23-.49,1.96-3.47,1.96-3.47h0Zm-5.69,6.87h-.23l.85-2.8h.28l.09-.29v.32c0,.2,.15,.37,.56,.34h.47l.16-.54h-.18c-.1,0-.15-.03-.14-.08v-.33h-.89c-.28,0-1.13,.03-1.3,.07-.21,.05-.43,.21-.43,.21l.09-.29h-.82l-.17,.57-.86,2.84h-.17l-.16,.54h1.63l-.05,.18h.81l.05-.18h.23l.18-.58v.02Zm-.67-2.23c-.13,.04-.38,.15-.38,.15l.22-.72h.65l-.16,.52s-.2,.01-.34,.05h.01Zm.01,1.02s-.2,.03-.34,.06c-.13,.04-.38,.17-.38,.17l.22-.74h.66l-.16,.52h0Zm-.37,1.2h-.65l.19-.63h.65l-.19,.63Zm1.57-1.74h.94l-.14,.44h-.96l-.14,.48h.84l-.63,.89c-.04,.07-.08,.09-.13,.11-.04,.02-.1,.05-.17,.05h-.23l-.16,.53h.61c.32,0,.5-.14,.64-.33l.43-.59,.09,.6c.02,.11,.1,.18,.16,.2,.06,.03,.12,.08,.21,.09h.51l.18-.59h-.12c-.07,0-.18-.01-.2-.03-.02-.03-.02-.07-.03-.13l-.09-.6h-.39l.17-.2h.95l.15-.48h-.88l.14-.44h.88l.16-.54h-2.62l-.16,.54h0Zm-7.96,1.86l.22-.73h.9l.17-.54h-.91l.14-.45h.88l.16-.53h-2.21l-.16,.53h.5l-.13,.45h-.5l-.17,.55h.5l-.29,.97c-.04,.13,.02,.18,.06,.24s.08,.1,.16,.12c.09,.02,.15,.03,.23,.03h1.02l.18-.6-.45,.06c-.09,0-.33-.01-.3-.09h0Zm.1-3.51l-.23,.41c-.05,.09-.09,.15-.13,.17s-.1,.03-.2,.03h-.12l-.16,.53h.4c.19,0,.34-.07,.41-.11,.08-.04,.1-.02,.15-.07l.13-.12h1.24l.16-.55h-.91l.16-.3h-.9Zm1.83,3.52s0-.08,.03-.2l.34-1.12h1.21c.18,0,.3,0,.39-.01,.09,0,.19-.04,.29-.1,.11-.06,.16-.12,.21-.19s.14-.23,.21-.47l.43-1.42h-1.25s-.39,.06-.55,.13c-.17,.07-.42,.27-.42,.27l.11-.39h-.77l-1.08,3.59c-.04,.14-.06,.24-.07,.3,0,.07,.08,.13,.14,.18,.06,.05,.16,.04,.25,.05,.1,0,.23,.01,.42,.01h.59l.18-.62-.53,.05c-.06,0-.1-.03-.11-.06h-.02Zm.58-2.08h1.27l-.08,.25s-.04-.01-.17,0h-1.1l.08-.26h0Zm.25-.84h1.28l-.09,.3s-.6,0-.7,.01c-.42,.07-.67,.3-.67,.3l.19-.62h0Zm.96,1.95s-.03,.06-.05,.08c-.03,.02-.07,.02-.13,.02h-.18v-.31h-.74l-.03,1.5c0,.11,0,.17,.09,.22,.08,.06,.32,.07,.65,.07h.47l.17-.56-.41,.02h-.14s-.04,0-.06-.03c-.02-.02-.05,0-.04-.11v-.39l.43-.02c.23,0,.33-.08,.42-.15,.08-.07,.11-.15,.14-.26l.07-.34h-.59l-.08,.24v.02Z"/></g></g><g><path class="cls-21" d="M93.54,21.33c-4.42,0-8-3.65-8-8.15s3.58-8.15,8-8.15,8,3.65,8,8.15-3.58,8.15-8,8.15h0Zm-4.94-1.73c-1.87-1.49-3.06-3.81-3.06-6.42s1.2-4.92,3.06-6.41c1.87,1.49,3.06,3.81,3.06,6.41s-1.2,4.92-3.06,6.42h0Zm12.88-2.1v-.22l-.08,.19h-.06l-.08-.19v.22h-.06v-.29h.08l.08,.2,.08-.2h.08v.29h-.04Zm-.43,0h-.05v-.24h-.1v-.05h.25v.05h-.1v.24h0Z"/><path class="cls-18" d="M83.66,21.33c-4.42,0-8-3.65-8-8.15s3.58-8.15,8-8.15,8,3.65,8,8.15-3.58,8.15-8,8.15h0Zm4.94-1.73c-1.87-1.49-3.06-3.81-3.06-6.42s1.2-4.92,3.06-6.41c1.87,1.49,3.06,3.81,3.06,6.41s-1.2,4.92-3.06,6.42h0Z"/><path d="M79.89,25.36v-1.33s0-.41-.47-.41-.53,.41-.53,.41v1.33h-.46v-1.35s-.04-.43-.45-.43c-.53,0-.55,.43-.55,.43v1.36h-.46v-2.15h.45v.26s.39-.32,.62-.32c.45,0,.72,.4,.72,.4,0,0,.22-.4,.71-.4,.73,0,.84,.67,.84,.67v1.52h-.42Zm11.52-1.7c-.06-.04-.14-.06-.24-.06-.54,0-.54,.43-.54,.43v1.35h-.45v-2.14h.45v.26s.39-.33,.62-.32c.11,0,.22,.03,.31,.06l-.15,.42h0Zm6.4,0c-.06-.04-.14-.06-.24-.06-.54,0-.55,.43-.55,.43v1.35h-.45v-2.14h.45v.26s.39-.33,.62-.32c.11,0,.21,.03,.31,.06l-.15,.42h.01Zm-15.31,1.73v-.22s-.31,.28-.69,.28c-.65,0-1.06-.61-1.06-1.14s.36-1.14,1.04-1.14c.42,0,.71,.33,.71,.33v-.27h.45v2.15h-.45Zm-.62-1.77c-.36,0-.66,.33-.66,.72s.29,.72,.66,.72,.66-.32,.66-.72-.3-.72-.66-.72h0Zm13.67,1.78v-.22s-.31,.28-.69,.28c-.65,0-1.06-.61-1.06-1.14s.36-1.14,1.04-1.14c.41,0,.71,.33,.71,.33v-.27h.45v2.15h-.45Zm-.63-1.77c-.36,0-.66,.33-.66,.72s.29,.72,.66,.72,.66-.32,.66-.72-.3-.72-.66-.72h0Zm4.92,1.78v-.22s-.31,.28-.69,.28c-.65,0-1.06-.61-1.06-1.14s.36-1.14,1.04-1.14c.42,0,.71,.33,.71,.33v-1.12h.45v3.01s-.45,0-.45,0Zm-.62-1.78c-.36,0-.66,.33-.66,.72s.29,.72,.66,.72,.66-.32,.66-.72-.3-.72-.66-.72h0Zm-14.84,0c-.19,0-.42,.09-.42,.26,0,.45,1.33-.04,1.33,.89,0,.6-.54,.71-.97,.71-.46,0-.89-.29-.89-.29l.2-.31s.41,.19,.69,.19c.19,0,.5-.06,.51-.26,0-.2-.53-.26-.53-.26,0,0-.8-.01-.8-.68,0-.42,.4-.69,.91-.69,.29,0,.85,.26,.85,.26l-.22,.35s-.43-.17-.65-.18h-.01Zm2.13,1.18s0,.23,.35,.24c.19,0,.36-.14,.36-.14l.18,.47s-.42,.16-.64,.16c-.78,0-.74-.73-.74-.73v-1.08h-.4v-.46h.4v-.63h.49v.63h.74v.46h-.74v1.08h0Zm3.18-.3h-1.55s.03,.58,.62,.58c.29,0,.62-.23,.62-.23l.21,.37s-.48,.31-.82,.31c-.8,0-1.13-.61-1.13-1.16s.36-1.14,1.09-1.14c1.09,0,.98,1.29,.98,1.28h-.02Zm-.99-.86h-.06c-.53,.03-.5,.52-.51,.53h1.11s0-.53-.54-.53h0Zm4.62,.23s-.14-.23-.55-.23-.63,.36-.63,.7c0,.38,.25,.71,.64,.71,.29,0,.55-.23,.55-.23l.21,.42s-.33,.22-.7,.22c-.76,0-1.19-.58-1.19-1.14,0-.87,.68-1.12,1.13-1.12,.41,0,.78,.24,.78,.24l-.23,.42h0Zm8.05,1.62s-.09,.06-.15,.06-.11-.02-.15-.06c-.04-.04-.06-.09-.06-.16s.02-.11,.06-.16c.04-.04,.09-.06,.15-.06s.11,.02,.15,.06c.04,.04,.06,.09,.06,.16s-.02,.11-.06,.16h0Zm-.03-.28s-.07-.05-.12-.05-.09,.02-.12,.05c-.03,.03-.05,.07-.05,.12s.02,.09,.05,.12c.03,.04,.07,.05,.12,.05s.08-.01,.12-.05c.03-.03,.05-.07,.05-.12s-.02-.09-.05-.12h0Zm-.07,.22l-.06-.08h-.02v.08h-.04v-.2h.15s.02,.03,.02,.05,0,.03,0,.04-.03,.02-.05,.02l.06,.08h-.05Zm0-.1v-.04h-.08v.06h.08v-.02Z"/><path class="cls-20" d="M88.6,6.78c-1.87,1.49-3.06,3.81-3.06,6.41s1.2,4.92,3.06,6.42c1.87-1.49,3.06-3.81,3.06-6.42s-1.2-4.92-3.06-6.41"/></g></svg>