<?xml version="1.0" encoding="UTF-8"?>
<svg id="Layer_1" data-name="Layer 1" xmlns="http://www.w3.org/2000/svg" width="45" height="45" version="1.1" viewBox="0 0 45 45">
  <defs>
    <style>
      .cls-1 {
        fill: #24c02d;
      }

      .cls-1, .cls-2 {
        stroke-width: 0px;
      }

      .cls-2 {
        fill: #fff;
      }
    </style>
  </defs>
  <circle class="cls-1" cx="22.5" cy="22.5" r="22.5"/>
  <path class="cls-2" d="M19.4,17.3c-.2-.5-.5-.5-.7-.5-.2,0-.4,0-.6,0s-.6,0-.8.4c-.3.3-1.1,1.1-1.1,2.6s1.1,3,1.3,3.3c.2.2,2.2,3.5,5.4,4.7,2.7,1,3.2.8,3.8.8.6,0,1.9-.8,2.1-1.5.3-.7.3-1.4.2-1.5,0-.1-.3-.2-.6-.4-.3-.2-1.9-.9-2.2-1-.3-.1-.5-.2-.7.2-.2.3-.8,1-1,1.2-.2.2-.4.2-.7,0-.3-.2-1.3-.5-2.6-1.6-.9-.8-1.6-1.9-1.8-2.2-.2-.3,0-.5.1-.6.1-.1.3-.4.5-.6.2-.2.2-.3.3-.5.1-.2,0-.4,0-.5,0-.2-.7-1.7-1-2.3"/>
  <path class="cls-2" d="M31.7,13.3c-2.4-2.4-5.6-3.7-9.1-3.7-7.1,0-12.8,5.7-12.8,12.8,0,2.3.6,4.5,1.7,6.4l-1.8,6.6,6.8-1.8c1.9,1,4,1.6,6.1,1.6h0c7.1,0,12.8-5.7,12.8-12.8,0-3.4-1.3-6.6-3.8-9ZM22.6,32.2c-1.6,0-3.3-.4-4.7-1.2l-1-.6-3,.8.8-2.9-.6-1.1c-.9-1.5-1.3-3.2-1.3-4.9,0-5.4,4.4-9.8,9.9-9.8,2.6,0,5.1,1,7,2.9,1.9,1.9,2.9,4.3,2.9,6.9,0,5.4-4.4,9.8-9.9,9.8Z"/>
</svg>